SplineFontDB: 3.0
FontName: MrBedfort-Regular
FullName: Mr Bedfort
FamilyName: Mr Bedfort
Weight: Regular
Copyright: Copyright (c) 2006 Alejandro Paul (sudtipos@sudtipos.com),\nwith Reserved Font Name "Mr Bedfort"
Version: 001.001
ItalicAngle: 0
UnderlinePosition: -50
UnderlineWidth: 50
Ascent: 800
Descent: 200
sfntRevision: 0x00010000
LayerCount: 2
Layer: 0 1 "Back"  1
Layer: 1 1 "Fore"  0
NeedsXUIDChange: 1
XUID: [1021 288 713564382 7260148]
FSType: 0
OS2Version: 2
OS2_WeightWidthSlopeOnly: 0
OS2_UseTypoMetrics: 1
CreationTime: 1322382284
ModificationTime: 1322411177
PfmFamily: 17
TTFWeight: 400
TTFWidth: 5
LineGap: 0
VLineGap: 0
Panose: 2 0 0 0 0 0 0 0 0 0
OS2TypoAscent: 215
OS2TypoAOffset: 1
OS2TypoDescent: -461
OS2TypoDOffset: 1
OS2TypoLinegap: 0
OS2WinAscent: 0
OS2WinAOffset: 1
OS2WinDescent: 0
OS2WinDOffset: 1
HheadAscent: 0
HheadAOffset: 1
HheadDescent: 0
HheadDOffset: 1
OS2SubXSize: 700
OS2SubYSize: 650
OS2SubXOff: 0
OS2SubYOff: 140
OS2SupXSize: 700
OS2SupYSize: 650
OS2SupXOff: 0
OS2SupYOff: 477
OS2StrikeYSize: 50
OS2StrikeYPos: 250
OS2Vendor: 'SUDT'
OS2CodePages: 20000001.00000000
OS2UnicodeRanges: 80000027.5000004b.00000000.00000000
Lookup: 258 0 0 "'kern' Horizontal Kerning in Latin lookup 0"  {"'kern' Horizontal Kerning in Latin lookup 0 subtable"  } ['kern' ('DFLT' <'dflt' > 'latn' <'dflt' > ) ]
MarkAttachClasses: 1
DEI: 91125
TtTable: prep
PUSHW_1
 511
SCANCTRL
PUSHB_1
 4
SCANTYPE
EndTTInstrs
LangName: 1033 "" "" "" "AlejandroPaul: Mr Bedfort Regular: 2006" "Mr Bedfort" "Version 1.000" "" "Mr Bedfort is a trademark of Alejandro Paul." "Alejandro Paul" "Alejandro Paul" "" "http://www.sudtipos.com" "http://www.sudtipos.com" "This Font Software is licensed under the SIL Open Font License,+AA0A-Version 1.1. This license is available with a FAQ at:+AA0A-http://scripts.sil.org/OFL" "http://scripts.sil.org/OFL" 
GaspTable: 1 65535 15
Encoding: UnicodeBmp
UnicodeInterp: none
NameList: Adobe Glyph List
DisplaySize: -36
AntiAlias: 1
FitToEm: 1

StartChar: C
Encoding: 67 67 1
Width: 612
Flags: HMW
HStem: -63 39<272.5 389> 445 49<278 280.5> 445 99<240 254.5 240 280.5> 768 42<297 374>
VStem: -10 106<246 389> 180 78<478.5 516.5> 421 84<669 705.5>
LayerCount: 2
Fore
SplineSet
261 534 m 1,0,-1
 258 514 l 1,1,2
 258 494 258 494 284 494 c 0,3,4
 334 494 334 494 377.5 552 c 128,-1,5
 421 610 421 610 421 672 c 0,6,7
 421 768 421 768 354 768 c 0,8,9
 279 768 279 768 218.5 703.5 c 128,-1,10
 158 639 158 639 127 542 c 128,-1,11
 96 445 96 445 96 343 c 128,-1,12
 96 241 96 241 123 161.5 c 128,-1,13
 150 82 150 82 213.5 29 c 128,-1,14
 277 -24 277 -24 360.5 -24 c 0,15,16
 522.26984127 -24 522.26984127 -24 635 110 c 1,17,-1
 642 98 l 1,18,19
 595 23 595 23 508.5 -20 c 128,-1,20
 422 -63 422 -63 327 -63 c 0,21,22
 157 -63 157 -63 73.5 29.5 c 128,-1,23
 -10 122 -10 122 -10 265 c 0,24,25
 -10 358 -10 358 23.5 455 c 128,-1,26
 57 552 57 552 113 630.5 c 128,-1,27
 169 709 169 709 249.5 759.5 c 128,-1,28
 330 810 330 810 416 810 c 0,29,30
 457 810 457 810 481 788.5 c 128,-1,31
 505 767 505 767 505 718.5 c 128,-1,32
 505 670 505 670 459.5 604 c 128,-1,33
 414 538 414 538 346 491.5 c 128,-1,34
 278 445 278 445 220 445 c 0,35,36
 190.625 445 190.625 445 185 460 c 0,37,38
 180 473.333333333 180 473.333333333 180 487.666666667 c 128,-1,39
 180 502 180 502 207 523 c 128,-1,40
 234 544 234 544 247.5 544 c 128,-1,41
 261 544 261 544 261 534 c 1,0,-1
EndSplineSet
EndChar

StartChar: D
Encoding: 68 68 2
Width: 854
Flags: HMW
HStem: -169 21G<258.5 353> -25 48 789 46<88 239>
VStem: -105 56<645 684.5> 233 90<468.5 584> 769 55<172 301.5>
LayerCount: 2
Fore
SplineSet
39 105 m 1,0,-1
 38 105 l 1,1,2
 77.2036199095 22.4660633484 77.2036199095 22.4660633484 143 -54 c 0,3,4
 180 -97 180 -97 229 -123.5 c 128,-1,5
 278 -150 278 -150 330 -150 c 1,6,7
 386 -145 386 -145 386 -82 c 0,8,9
 386 -57 386 -57 379 -22 c 1,10,11
 185 -5 185 -5 39 105 c 1,0,-1
240 394 m 1,12,13
 233 445 233 445 233 475 c 128,-1,14
 233 505 233 505 236 523 c 1,15,16
 252 591 252 591 337 641 c 1,17,18
 343 643 343 643 345 643 c 128,-1,19
 347 643 347 643 347 640 c 128,-1,20
 347 637 347 637 341 628 c 1,21,22
 323 608 323 608 323 564 c 0,23,24
 323 466 323 466 361 333 c 1,25,26
 514 265 514 265 630 249 c 0,27,28
 635 248 635 248 635 243 c 128,-1,29
 635 238 635 238 625.5 231 c 128,-1,30
 616 224 616 224 591 217.5 c 128,-1,31
 566 211 566 211 520.5 211 c 128,-1,32
 475 211 475 211 391 237 c 1,33,34
 443 76 443 76 451 28 c 1,35,36
 489 23 489 23 520 23 c 0,37,38
 648 23 648 23 708.5 67.5 c 128,-1,39
 769 112 769 112 769 191.5 c 128,-1,40
 769 271 769 271 704 377 c 128,-1,41
 639 483 639 483 542 573.5 c 128,-1,42
 445 664 445 664 321 726.5 c 128,-1,43
 197 789 197 789 91 789 c 0,44,45
 47.6666666667 789 47.6666666667 789 14.3333333333 776.5 c 0,46,47
 -49 752.75 -49 752.75 -49 697 c 0,48,49
 -49 624 -49 624 31.5 544.5 c 128,-1,50
 112 465 112 465 240 394 c 1,12,13
-105 634 m 0,51,52
 -105 711 -105 711 -25.5 773 c 128,-1,53
 54 835 54 835 158 835 c 128,-1,54
 262 835 262 835 364 798 c 128,-1,55
 466 761 466 761 547.5 699.5 c 128,-1,56
 629 638 629 638 692 562.5 c 128,-1,57
 755 487 755 487 789.5 404 c 128,-1,58
 824 321 824 321 824 246 c 0,59,60
 824 127 824 127 733.5 53 c 128,-1,61
 643 -21 643 -21 454 -25 c 1,62,63
 449 -77 449 -77 408 -123 c 128,-1,64
 367 -169 367 -169 321 -169 c 0,65,66
 261 -169 261 -169 180.5 -109 c 128,-1,67
 100 -49 100 -49 33.5 35.5 c 128,-1,68
 -33 120 -33 120 -63 196 c 0,69,70
 -66 202 -66 202 -66 206 c 1,71,-1
 -61.0819496889 213.04267085 l 1,72,73
 -29.434779013 263 -29.434779013 263 -15 263 c 0,74,75
 -6 263 -6 263 20.5 236.5 c 128,-1,76
 47 210 47 210 145.5 146.5 c 128,-1,77
 244 83 244 83 358 48 c 1,78,79
 349 73 349 73 316 153.5 c 128,-1,80
 283 234 283 234 267 282 c 1,81,82
 113 349 113 349 4 444 c 128,-1,83
 -105 539 -105 539 -105 634 c 0,51,52
EndSplineSet
EndChar

StartChar: E
Encoding: 69 69 3
Width: 450
Flags: HMW
HStem: -39 51<235.5 266> 408 112 430 90<298 351> 830 89<448 573>
VStem: -71 50<540.5 621> 18 104<118 197>
LayerCount: 2
Fore
SplineSet
291 12 m 0,0,1
 342 12 342 12 390.5 36.5 c 128,-1,2
 439 61 439 61 473 110 c 1,3,-1
 480 98 l 1,4,5
 444 33 444 33 369.5 -3 c 128,-1,6
 295 -39 295 -39 215 -39 c 128,-1,7
 135 -39 135 -39 76.5 2 c 128,-1,8
 18 43 18 43 18 119 c 0,9,10
 18 205.865671642 18 205.865671642 88.5 269 c 0,11,12
 122 299 122 299 155 321 c 128,-1,13
 188 343 188 343 231.5 370 c 0,14,15
 304 415 304 415 304 426 c 0,16,17
 304 430 304 430 295 430 c 128,-1,18
 286 430 286 430 202 419 c 128,-1,19
 118 408 118 408 86 408 c 0,20,21
 -71 408 -71 408 -71 504 c 0,22,23
 -71 570 -71 570 -9.5 636.5 c 128,-1,24
 52 703 52 703 139.5 752 c 128,-1,25
 227 801 227 801 320 840 c 128,-1,26
 413 879 413 879 479 899 c 128,-1,27
 545 919 545 919 562 919 c 128,-1,28
 579 919 579 919 594 906.5 c 128,-1,29
 609 894 609 894 609 878 c 0,30,31
 609 850 609 850 571.5 828 c 128,-1,32
 534 806 534 806 496.5 798 c 2,33,-1
 459 790 l 1,34,35
 449 790 449 790 449 797 c 128,-1,36
 449 804 449 804 460 815 c 128,-1,37
 471 826 471 826 471 828 c 128,-1,38
 471 830 471 830 461 830 c 128,-1,39
 451 830 451 830 374.5 805 c 128,-1,40
 298 780 298 780 208.5 743.5 c 128,-1,41
 119 707 119 707 49 657.5 c 128,-1,42
 -21 608 -21 608 -21 567 c 0,43,44
 -21 509 -21 509 98 509 c 0,45,46
 148 509 148 509 227.5 514.5 c 128,-1,47
 307 520 307 520 337 520 c 0,48,49
 390 520 390 520 390 480 c 0,50,51
 390 464 390 464 366.5 443 c 128,-1,52
 343 422 343 422 294.5 390.5 c 128,-1,53
 246 359 246 359 212.5 334.5 c 128,-1,54
 179 310 179 310 150.5 267 c 128,-1,55
 122 224 122 224 122 174 c 0,56,57
 122 12 122 12 291 12 c 0,0,1
EndSplineSet
EndChar

StartChar: G
Encoding: 71 71 4
Width: 755
Flags: HMW
HStem: -367 21G<713.5 787> -19 60<227 264> 500 66<401 527> 500 102<461.5 469> 774 34<462 571.5>
VStem: 0 105<159.5 301> 566 96<288.5 327.5> 616 46
LayerCount: 2
Fore
SplineSet
480 599 m 1,0,-1
 471 580 l 1,1,2
 471 574 471 574 479 570 c 128,-1,3
 487 566 487 566 495 566 c 0,4,5
 541 566 541 566 578.5 614 c 128,-1,6
 616 662 616 662 616 710 c 0,7,8
 616 739 616 739 599 756.5 c 128,-1,9
 582 774 582 774 547 774 c 0,10,11
 479 774 479 774 398.5 717.5 c 128,-1,12
 318 661 318 661 254.5 578 c 128,-1,13
 191 495 191 495 148 396.5 c 128,-1,14
 105 298 105 298 105 215.5 c 128,-1,15
 105 133 105 133 152.5 87 c 128,-1,16
 200 41 200 41 279 41 c 128,-1,17
 358 41 358 41 440.5 100 c 128,-1,18
 523 159 523 159 567 265 c 1,19,20
 566 277 566 277 566 291 c 0,21,22
 566 524 566 524 655 550 c 0,23,24
 687 560 687 560 694 560 c 0,25,26
 707 560 707 560 707 544 c 128,-1,27
 707 528 707 528 684.5 460.5 c 128,-1,28
 662 393 662 393 662 326 c 0,29,30
 662 132 662 132 715.5 -64 c 128,-1,31
 769 -260 769 -260 828 -319 c 0,32,33
 830 -321 830 -321 835.5 -324.5 c 128,-1,34
 841 -328 841 -328 841 -333 c 0,35,36
 841 -348 841 -348 818 -357.5 c 128,-1,37
 795 -367 795 -367 783 -367 c 0,38,39
 750 -367 750 -367 720.5 -336 c 128,-1,40
 691 -305 691 -305 669.5 -251.5 c 128,-1,41
 648 -198 648 -198 631 -137.5 c 128,-1,42
 614 -77 614 -77 602 -6 c 0,43,44
 581.408560311 115.832684825 581.408560311 115.832684825 571 222 c 1,45,46
 513 111 513 111 407.5 46 c 128,-1,47
 302 -19 302 -19 206.5 -19 c 128,-1,48
 111 -19 111 -19 55.5 31 c 128,-1,49
 0 81 0 81 0 175.5 c 128,-1,50
 0 270 0 270 52.5 380 c 128,-1,51
 105 490 105 490 188.5 585 c 128,-1,52
 272 680 272 680 390.5 744 c 128,-1,53
 509 808 509 808 628 808 c 0,54,55
 700 808 700 808 700 757 c 0,56,57
 700 714 700 714 652.5 653 c 128,-1,58
 605 592 605 592 535.5 546 c 128,-1,59
 466 500 466 500 411 500 c 0,60,61
 397 500 397 500 389.5 511.5 c 128,-1,62
 382 523 382 523 382 534 c 0,63,64
 382 554 382 554 417.5 578 c 128,-1,65
 453 602 453 602 476 602 c 0,66,67
 480 602 480 602 480 599 c 1,0,-1
EndSplineSet
EndChar

StartChar: B
Encoding: 66 66 5
Width: 1056
Flags: HMW
HStem: -86 50<293 380> -68 57<826.5 856.5> 771 75<177 355>
VStem: -80 38<407.5 566.5> 303 85<443.5 584> 476 54<76 94.5> 712 43<536 586.5> 947 61<98.5 127.5>
LayerCount: 2
Fore
SplineSet
947 56 m 0,0,1
 947 106 947 106 890.5 162 c 128,-1,2
 834 218 834 218 754 260 c 128,-1,3
 674 302 674 302 591.5 332.5 c 128,-1,4
 509 363 509 363 453 370 c 1,5,6
 479 318 479 318 491.5 291 c 128,-1,7
 504 264 504 264 517 221.5 c 128,-1,8
 530 179 530 179 530 146 c 0,9,10
 530 44 530 44 469.5 -21 c 128,-1,11
 409 -86 409 -86 327 -86 c 0,12,13
 219 -86 219 -86 123.5 -1.5 c 128,-1,14
 28 83 28 83 -26 210 c 128,-1,15
 -80 337 -80 337 -80 466 c 0,16,17
 -80 624.741935484 -80 624.741935484 11.5 731 c 0,18,19
 58 785 58 785 137.5 815.5 c 128,-1,20
 217 846 217 846 323 846 c 0,21,22
 428.586956522 846 428.586956522 846 540.5 802 c 0,23,24
 671.223718281 750.604350078 671.223718281 750.604350078 724.5 672 c 0,25,26
 755 627 755 627 755 573 c 128,-1,27
 755 519 755 519 723.5 479.5 c 128,-1,28
 692 440 692 440 642 423 c 0,29,30
 640 422 640 422 631.5 422 c 128,-1,31
 623 422 623 422 623 425.5 c 128,-1,32
 623 429 623 429 636 435 c 0,33,34
 712 465 712 465 712 519 c 0,35,36
 712 584 712 584 640.5 643.5 c 128,-1,37
 569 703 569 703 462 737 c 128,-1,38
 355 771 355 771 248 771 c 0,39,40
 98 771 98 771 28 704 c 128,-1,41
 -42 637 -42 637 -42 523.5 c 128,-1,42
 -42 410 -42 410 24.5 277.5 c 128,-1,43
 91 145 91 145 193.5 54.5 c 128,-1,44
 296 -36 296 -36 391 -36 c 0,45,46
 476 -36 476 -36 476 45 c 0,47,48
 476 85 476 85 433 174.5 c 128,-1,49
 390 264 390 264 346.5 358.5 c 128,-1,50
 303 453 303 453 303 502 c 128,-1,51
 303 551 303 551 332 589 c 128,-1,52
 361 627 361 627 389.5 643.5 c 2,53,-1
 418 660 l 1,54,55
 424 660 424 660 424 654.5 c 128,-1,56
 424 649 424 649 420 645 c 1,57,58
 388 630 388 630 388 572 c 1,59,60
 393 500 393 500 443 390 c 1,61,62
 474 423 474 423 487 430 c 128,-1,63
 500 437 500 437 532 437 c 128,-1,64
 564 437 564 437 620 421.5 c 128,-1,65
 676 406 676 406 742.5 377.5 c 128,-1,66
 809 349 809 349 868.5 313.5 c 128,-1,67
 928 278 928 278 968 232 c 128,-1,68
 1008 186 1008 186 1008 141 c 0,69,70
 1008 69 1008 69 945.5 0.5 c 128,-1,71
 883 -68 883 -68 788 -68 c 0,72,73
 720 -68 720 -68 671 -35.5 c 128,-1,74
 622 -3 622 -3 573 56 c 1,75,76
 615 105 615 105 635 113 c 1,77,78
 642 113 642 113 653.5 101.5 c 2,79,-1
 668 87 l 1,80,81
 699 60 699 60 719 44.5 c 128,-1,82
 739 29 739 29 785 9 c 128,-1,83
 831 -11 831 -11 868 -11 c 128,-1,84
 905 -11 905 -11 926 6.5 c 128,-1,85
 947 24 947 24 947 56 c 0,0,1
EndSplineSet
EndChar

StartChar: F
Encoding: 70 70 6
Width: 640
Flags: HMW
HStem: -218 53<258 344.5> 857 20G<618 622.5>
VStem: 221 72<-125 -99> 265 88<578.5 609.5> 411 71<-66 81>
LayerCount: 2
Fore
SplineSet
293 -103 m 0,0,1
 293 -165 293 -165 327 -165 c 0,2,3
 355 -165 355 -165 383 -123.5 c 128,-1,4
 411 -82 411 -82 411 -26 c 128,-1,5
 411 30 411 30 398 90 c 1,6,7
 293 -8 293 -8 293 -103 c 0,0,1
8 187 m 1,8,9
 123 260 123 260 315 343 c 1,10,11
 265 475 265 475 265 566 c 0,12,13
 265 627 265 627 294 663.5 c 128,-1,14
 323 700 323 700 414 770 c 1,15,16
 401 770 401 770 279 729.5 c 128,-1,17
 157 689 157 689 6.5 630.5 c 128,-1,18
 -144 572 -144 572 -205 533 c 0,19,20
 -219 525 -219 525 -224 525 c 128,-1,21
 -229 525 -229 525 -229 537.5 c 0,22,23
 -229 564.1875 -229 564.1875 -204 609.5 c 2,24,-1
 -196 624 l 1,25,26
 -165 662 -165 662 107.5 754 c 128,-1,27
 380 846 380 846 618 877 c 1,28,29
 633 877 633 877 633 872 c 128,-1,30
 633 867 633 867 627 861 c 2,31,-1
 581 812 l 2,32,33
 573.952380952 803.19047619 573.952380952 803.19047619 530.976190476 794.595238095 c 128,-1,34
 488 786 488 786 459.5 772.5 c 128,-1,35
 431 759 431 759 407.5 740.5 c 128,-1,36
 384 722 384 722 368.5 687 c 128,-1,37
 353 652 353 652 353 600.5 c 128,-1,38
 353 549 353 549 410 382 c 1,39,40
 536 432 536 432 686 483 c 1,41,42
 698 485 698 485 700 485 c 0,43,44
 706 485 706 485 706 480.5 c 128,-1,45
 706 476 706 476 688.5 444.5 c 128,-1,46
 671 413 671 413 663 410 c 0,47,48
 540 367 540 367 430 321 c 1,49,50
 458 233 458 233 471 169 c 1,51,52
 543 214 543 214 586 223 c 1,53,54
 601 223 601 223 601 219.5 c 128,-1,55
 601 216 601 216 590 213 c 0,56,57
 551 202 551 202 474 151 c 1,58,59
 482 105 482 105 482 68 c 0,60,61
 482 -2 482 -2 445.5 -70.5 c 128,-1,62
 409 -139 409 -139 360.5 -178.5 c 128,-1,63
 312 -218 312 -218 273 -218 c 0,64,65
 221 -218 221 -218 221 -144 c 0,66,67
 221 -24 221 -24 393 114 c 1,68,69
 376 184 376 184 338 280 c 1,70,71
 132 186 132 186 -3 91 c 1,72,73
 -13.5 85 -13.5 85 -22.25 85 c 128,-1,74
 -31 85 -31 85 -31 96 c 0,75,76
 -31 99 -31 99 -29 107 c 0,77,78
 -15 171 -15 171 8 187 c 1,8,9
EndSplineSet
EndChar

StartChar: H
Encoding: 72 72 7
Width: 731
Flags: HMW
HStem: -38 20<506 506 506 520> 799 20G<435.5 449>
VStem: -4 100<644 665.5> 353 96<671 756 671 759>
LayerCount: 2
Fore
SplineSet
91 197 m 1,0,-1
 73 275 l 1,1,2
 -1 300 -1 300 -79 330 c 0,3,4
 -80 330 -80 330 -80 329 c 0,5,6
 -79 308 -79 308 91 197 c 1,0,-1
176 242 m 1,7,8
 196 154 196 154 201 128 c 1,9,10
 439 -17 439 -17 506 -18 c 1,11,-1
 452 175 l 1,12,13
 318 201 318 201 176 242 c 1,7,8
100 753 m 2,14,-1
 96 689 l 1,15,16
 96 596 96 596 159 320 c 1,17,18
 289 280 289 280 432 251 c 1,19,20
 391 406 391 406 372 518.5 c 128,-1,21
 353 631 353 631 353 759 c 1,22,23
 355 770 355 770 392.5 794.5 c 128,-1,24
 430 819 430 819 446 819 c 0,25,26
 454 819 454 819 454 808 c 2,27,-1
 449 738 l 1,28,29
 449 576 449 576 533 234 c 1,30,31
 651 216 651 216 753 213 c 0,32,33
 760 213 760 213 760 206.5 c 128,-1,34
 760 200 760 200 716 176 c 128,-1,35
 672 152 672 152 664 152 c 0,36,37
 617 152 617 152 552 160 c 1,38,-1
 591 20 l 1,39,40
 591 3 591 3 520 -38 c 1,41,42
 440 -38 440 -38 206 101 c 1,43,44
 216 45 216 45 218 3 c 1,45,46
 216 1 216 1 178 -17 c 128,-1,47
 140 -35 140 -35 135 -35 c 0,48,49
 122 -35 122 -35 122 -16 c 1,50,51
 113 79 113 79 96 169 c 1,52,53
 -6 235 -6 235 -78 289.5 c 128,-1,54
 -150 344 -150 344 -150 356 c 0,55,56
 -150 371.938645009 -150 371.938645009 -84.3987014054 411.126078738 c 1,57,-1
 -81 413 l 1,58,59
 -13 381 -13 381 53 357 c 1,60,61
 -4 574 -4 574 -4 652 c 0,62,63
 -4 687 -4 687 4 707 c 0,64,65
 6 710 6 710 48 735 c 128,-1,66
 90 760 90 760 96 760 c 0,67,68
 100 760 100 760 100 753 c 2,14,-1
EndSplineSet
EndChar

StartChar: I
Encoding: 73 73 8
Width: 451
Flags: HMW
HStem: -42 21G<223 227> 129 81 734 54<33 90.5>
VStem: -96 63<518.5 561> 166 90
LayerCount: 2
Fore
SplineSet
36 734 m 1,0,1
 -33 734 -33 734 -33 589 c 0,2,3
 -33 480 -33 480 20 382.5 c 128,-1,4
 73 285 73 285 166 240 c 1,5,6
 153.326042707 495.783501741 153.326042707 495.783501741 134.423408028 587.378292962 c 0,7,8
 103.345160639 732.919194501 103.345160639 732.919194501 36 734 c 1,0,1
453 230 m 128,-1,10
 453 221.157894737 453 221.157894737 427 198.578947368 c 128,-1,11
 401 176 401 176 356.5 154 c 128,-1,12
 312 132 312 132 265 129 c 1,13,14
 275 60 275 60 292 33 c 128,-1,15
 309 6 309 6 309 2 c 128,-1,16
 309 -2 309 -2 302.5 -6.5 c 128,-1,17
 296 -11 296 -11 277 -20 c 0,18,19
 230.555555556 -42 230.555555556 -42 226 -42 c 0,20,21
 214 -42 214 -42 198 -10 c 128,-1,22
 182 22 182 22 172 140 c 1,23,24
 62 172 62 172 -17 271 c 128,-1,25
 -96 370 -96 370 -96 498 c 0,26,27
 -96 603.913043478 -96 603.913043478 -51 690 c 0,28,29
 -28 734 -28 734 13.5 761 c 128,-1,30
 55 788 55 788 109 788 c 0,31,32
 167.881578947 788 167.881578947 788 196.5 713 c 0,33,34
 226.234871407 635.074130106 226.234871407 635.074130106 233.617435703 554.537065053 c 128,-1,35
 241 474 241 474 244 428 c 128,-1,36
 247 382 247 382 250 315.5 c 128,-1,37
 253 249 253 249 256 213 c 1,38,39
 277 210 277 210 318.5 210 c 128,-1,40
 360 210 360 210 386 215 c 128,-1,41
 412 220 412 220 427.5 229.5 c 128,-1,42
 443 239 443 239 446 239 c 0,43,9
 453 239 453 239 453 230 c 128,-1,10
EndSplineSet
EndChar

StartChar: J
Encoding: 74 74 9
Width: 409
Flags: HMW
HStem: -535 21G<402 413> 107 61<135.5 154.5> 725 49<40 93.5>
VStem: -103 72<466 551.5>
LayerCount: 2
Fore
SplineSet
75.5 713.5 m 128,-1,1
 57 725 57 725 43 725 c 128,-1,2
 29 725 29 725 21.5 721 c 128,-1,3
 14 717 14 717 4.5 704.5 c 128,-1,4
 -5 692 -5 692 -13 673 c 0,5,6
 -31 630.25 -31 630.25 -31 547.625 c 128,-1,7
 -31 465 -31 465 -1 378.5 c 128,-1,8
 29 292 29 292 84 230 c 128,-1,9
 139 168 139 168 199 168 c 0,10,11
 210 168 210 168 218 172 c 1,12,13
 195.686460808 376.009501188 195.686460808 376.009501188 182.343230404 444.504750594 c 128,-1,14
 169 513 169 513 158.5 556 c 128,-1,15
 148 599 148 599 135.5 626.5 c 128,-1,16
 123 654 123 654 108.5 678 c 128,-1,0
 94 702 94 702 75.5 713.5 c 128,-1,1
221 146 m 1,17,18
 188 107 188 107 124.5 107 c 128,-1,19
 61 107 61 107 6 162.5 c 128,-1,20
 -49 218 -49 218 -76 300.5 c 128,-1,21
 -103 383 -103 383 -103 474 c 0,22,23
 -103 600 -103 600 -47 687 c 128,-1,24
 9 774 9 774 116 774 c 0,25,26
 169 774 169 774 205 719 c 128,-1,27
 241 664 241 664 260.5 570.5 c 128,-1,28
 280 477 280 477 293 362.5 c 128,-1,29
 306 248 306 248 318.5 121 c 128,-1,30
 331 -6 331 -6 347 -120.5 c 128,-1,31
 363 -235 363 -235 394.5 -336 c 128,-1,32
 426 -437 426 -437 471 -492 c 1,33,34
 471 -504 471 -504 445 -519.5 c 128,-1,35
 419 -535 419 -535 402 -535 c 1,36,37
 362 -508 362 -508 332.5 -448.5 c 128,-1,38
 303 -389 303 -389 281 -274 c 128,-1,39
 259 -159 259 -159 250 -93.5 c 128,-1,40
 241 -28 241 -28 231.5 56.5 c 128,-1,41
 222 141 222 141 221 146 c 1,17,18
EndSplineSet
EndChar

StartChar: K
Encoding: 75 75 10
Width: 803
Flags: HMW
HStem: -64 21G<80 92> -49 72<669 697.5> 338 73<137 163> 411 20<137 189 137 191.5> 781 20G<500 515>
VStem: -96 92<670.5 719.5> 77 92<-51.5 68>
LayerCount: 2
Fore
SplineSet
751 23 m 1,0,-1
 781 28 l 2,1,2
 786 28 786 28 786 23 c 0,3,4
 786 5 786 5 746 -22 c 128,-1,5
 706 -49 706 -49 682 -49 c 0,6,7
 600.03539823 -49 600.03539823 -49 443 87.5 c 0,8,9
 378 144 378 144 314.5 201 c 0,10,11
 161.877192982 338 161.877192982 338 94 338 c 1,12,-1
 88 337 l 1,13,14
 169 102 169 102 169 35 c 0,15,16
 169 -5 169 -5 136 -34.5 c 128,-1,17
 103 -64 103 -64 82 -64 c 0,18,19
 77 -64 77 -64 77 -44 c 0,20,21
 76 31 76 31 49 136.5 c 128,-1,22
 22 242 22 242 -10 330.5 c 128,-1,23
 -42 419 -42 419 -69 522 c 128,-1,24
 -96 625 -96 625 -96 695 c 0,25,26
 -96 727 -96 727 -53 756.5 c 128,-1,27
 -10 786 -10 786 6 786 c 0,28,29
 11 786 11 786 11 781.5 c 128,-1,30
 11 777 11 777 3.5 752.5 c 128,-1,31
 -4 728 -4 728 -4 719 c 0,32,33
 -4 613 -4 613 77 368 c 1,34,35
 110 427 110 427 137 431 c 1,36,37
 184 431 184 431 255.5 492.5 c 128,-1,38
 327 554 327 554 377 620 c 128,-1,39
 427 686 427 686 428 706 c 1,40,41
 426 704 426 704 405.5 695 c 128,-1,42
 385 686 385 686 377.5 686 c 128,-1,43
 370 686 370 686 370 692 c 128,-1,44
 370 698 370 698 381 703 c 0,45,46
 464 747 464 747 497 800 c 0,47,48
 498 801 498 801 506 801 c 128,-1,49
 514 801 514 801 530 796 c 0,50,51
 567 784.4375 567 784.4375 567 781 c 0,52,53
 567 749 567 749 515 686 c 128,-1,54
 463 623 463 623 393.5 562.5 c 128,-1,55
 324 502 324 502 250 456.5 c 128,-1,56
 176 411 176 411 137 411 c 1,57,58
 185 409 185 409 251 368.5 c 128,-1,59
 317 328 317 328 382.5 271 c 128,-1,60
 448 214 448 214 513 158 c 0,61,62
 669.696428571 23 669.696428571 23 751 23 c 1,0,-1
EndSplineSet
EndChar

StartChar: M
Encoding: 77 77 11
Width: 995
Flags: HMW
HStem: -46 53<816 902.5> 634 71<207 238> 705 42
VStem: 11 127<-5.5 272.5> 345 77 561 89<545.5 582>
LayerCount: 2
Fore
SplineSet
-141 716 m 0,0,1
 -141 728 -141 728 -98.5 737.5 c 128,-1,2
 -56 747 -56 747 -32.5 747 c 128,-1,3
 -9 747 -9 747 9 709 c 0,4,5
 28.03125 668.21875 28.03125 668.21875 48.515625 612.109375 c 128,-1,6
 69 556 69 556 68 556 c 1,7,8
 101 625 101 625 146 665 c 128,-1,9
 191 705 191 705 243 705 c 0,10,11
 279 705 279 705 307.5 671 c 128,-1,12
 336 637 336 637 354 585.5 c 0,13,14
 388.114285714 487.895238095 388.114285714 487.895238095 407.5 300.5 c 1,15,-1
 422.071005917 131.692307692 l 1,16,17
 423.871443625 131.692307692 423.871443625 131.692307692 452.435721812 250.846153846 c 128,-1,18
 481 370 481 370 500 444 c 0,19,20
 547.369863014 628.493150685 547.369863014 628.493150685 556 640 c 1,21,22
 560 649 560 649 596 661 c 128,-1,23
 632 673 632 673 648 673 c 0,24,25
 652 673 652 673 652 662 c 2,26,-1
 651 648 l 2,27,28
 650 634 650 634 650 602.5 c 128,-1,29
 650 571 650 571 652 533.5 c 128,-1,30
 654 496 654 496 661.5 435 c 128,-1,31
 669 374 669 374 681.5 319 c 128,-1,32
 694 264 694 264 717.5 205.5 c 128,-1,33
 741 147 741 147 772.5 104.5 c 128,-1,34
 804 62 804 62 852 34.5 c 128,-1,35
 900 7 900 7 959 7 c 0,36,37
 988 7 988 7 1000 12 c 128,-1,38
 1012 17 1012 17 1019.5 21 c 128,-1,39
 1027 25 1027 25 1029 26 c 1,40,41
 1037 26 1037 26 1037 16 c 0,42,43
 1037 -1 1037 -1 977 -23.5 c 128,-1,44
 917 -46 917 -46 876 -46 c 0,45,46
 776 -46 776 -46 702.5 46.5 c 128,-1,47
 629 139 629 139 595 278.5 c 128,-1,48
 561 418 561 418 561 582 c 1,49,-1
 556 582 l 1,50,-1
 427 65 l 1,51,52
 422 2 422 2 415 -4 c 1,53,54
 371 -34 371 -34 358.5 -34 c 128,-1,55
 346 -34 346 -34 345 -10 c 0,56,57
 342.43020595 95.3615560641 342.43020595 95.3615560641 324.715102975 226.180778032 c 128,-1,58
 307 357 307 357 289 438 c 128,-1,59
 271 519 271 519 241 576.5 c 128,-1,60
 211 634 211 634 178.5 634 c 128,-1,61
 146 634 146 634 119.5 606 c 128,-1,62
 93 578 93 578 78 528 c 1,63,64
 94 450 94 450 116 284.5 c 128,-1,65
 138 119 138 119 138 16 c 0,66,67
 138 -13 138 -13 120 -29.5 c 128,-1,68
 102 -46 102 -46 85 -46 c 128,-1,69
 68 -46 68 -46 51 -8.5 c 128,-1,70
 34 29 34 29 22.5 101 c 128,-1,71
 11 173 11 173 11 228 c 128,-1,72
 11 283 11 283 15 351 c 1,73,74
 -5.27419354839 492.919354839 -5.27419354839 492.919354839 -45.5 602.5 c 0,75,76
 -60 642 -60 642 -82.5 672.5 c 128,-1,77
 -105 703 -105 703 -128 705 c 0,78,79
 -141 707 -141 707 -141 716 c 0,0,1
EndSplineSet
EndChar

StartChar: N
Encoding: 78 78 12
Width: 727
Flags: HMW
HStem: -45 52<583 634> 717 20G<-12.5 -5>
VStem: 319 87<535 626>
LayerCount: 2
Fore
SplineSet
693 7 m 1,0,-1
 715 8 l 2,1,2
 727 8 727 8 727 -2.5 c 128,-1,3
 727 -13 727 -13 685.5 -29 c 128,-1,4
 644 -45 644 -45 612 -45 c 0,5,6
 541 -45 541 -45 486 4.5 c 128,-1,7
 431 54 431 54 400.5 127 c 128,-1,8
 370 200 370 200 350.5 296.5 c 0,9,10
 319 452.384615385 319 452.384615385 319 626 c 1,11,12
 241 359 241 359 145 -26 c 1,13,14
 95 -45 95 -45 84 -45 c 128,-1,15
 73 -45 73 -45 73 -31 c 0,16,17
 53.1565617805 425.399079048 53.1565617805 425.399079048 -26.5 610 c 0,18,19
 -58 683 -58 683 -97 695 c 0,20,21
 -106 698 -106 698 -106 702 c 0,22,23
 -106 708 -106 708 -62 722.5 c 128,-1,24
 -18 737 -18 737 -5 737 c 1,25,26
 67 705 67 705 97 560.5 c 128,-1,27
 127 416 127 416 147 86 c 0,28,29
 147 82 147 82 150 82 c 1,30,-1
 152 83 l 1,31,-1
 300 652 l 1,32,33
 315 652 315 652 348.5 674 c 128,-1,34
 382 696 382 696 394 696 c 128,-1,35
 406 696 406 696 406 687 c 0,36,37
 406 433.285714286 406 433.285714286 466.5 234.5 c 0,38,39
 498 131 498 131 556 69 c 128,-1,40
 614 7 614 7 693 7 c 1,0,-1
EndSplineSet
EndChar

StartChar: L
Encoding: 76 76 13
Width: 750
Flags: HMW
HStem: -125 20<162 250 162 268.5> -1 57<519 524.5> 364 58<-133.5 -19.5> 795 41<258.5 362>
VStem: 118 86<646 648.5> 327 74<758 762>
LayerCount: 2
Fore
SplineSet
225.5 757.5 m 128,-1,1
 204 720 204 720 204 664.5 c 128,-1,2
 204 609 204 609 219 552 c 1,3,4
 268 602 268 602 297.5 656.5 c 128,-1,5
 327 711 327 711 327 748 c 0,6,7
 327 795 327 795 282 795 c 0,8,0
 247 795 247 795 225.5 757.5 c 128,-1,1
299 -22 m 0,9,10
 299 -7 299 -7 296 8 c 1,11,12
 202 19 202 19 121.5 38 c 128,-1,13
 41 57 41 57 22 67 c 1,14,15
 45.8157894737 3.49122807018 45.8157894737 3.49122807018 99.5 -49 c 0,16,17
 122 -71 122 -71 157 -88 c 128,-1,18
 192 -105 192 -105 231 -105 c 0,19,20
 299 -105 299 -105 299 -22 c 0,9,10
-125 364 m 0,21,22
 -148 364 -148 364 -148 377.5 c 128,-1,23
 -148 391 -148 391 -130 408.5 c 128,-1,24
 -112 426 -112 426 -99 426 c 1,25,26
 -65 422 -65 422 -52 422 c 0,27,28
 38 422 38 422 130 479 c 1,29,30
 118 524 118 524 118 562 c 0,31,32
 118 681 118 681 192 758.5 c 128,-1,33
 266 836 266 836 341 836 c 0,34,35
 401 836 401 836 401 788 c 0,36,37
 401 743 401 743 351.5 672 c 128,-1,38
 302 601 302 601 224 532 c 1,39,40
 241 473 241 473 279 381 c 128,-1,41
 317 289 317 289 344.5 210 c 128,-1,42
 372 131 372 131 376 70 c 1,43,44
 465 56 465 56 547 56 c 0,45,46
 720 56 720 56 813 124 c 1,47,48
 821 124 821 124 821 117 c 1,49,50
 716 -1 716 -1 452 -1 c 0,51,52
 411.5 -1 411.5 -1 371 2 c 1,53,54
 359 -52 359 -52 322 -88.5 c 128,-1,55
 285 -125 285 -125 233 -125 c 128,-1,56
 181 -125 181 -125 127 -94.5 c 128,-1,57
 73 -64 73 -64 35 -23.5 c 128,-1,58
 -3 17 -3 17 -28 54.5 c 128,-1,59
 -53 92 -53 92 -53 108 c 0,60,61
 -53 117 -53 117 -23.5 142.5 c 128,-1,62
 6 168 6 168 26 168 c 1,63,64
 139 119 139 119 276 89 c 1,65,66
 260 138 260 138 206 268.5 c 128,-1,67
 152 399 152 399 134 462 c 1,68,69
 -10 364 -10 364 -125 364 c 0,21,22
EndSplineSet
EndChar

StartChar: O
Encoding: 79 79 14
Width: 709
Flags: HMW
HStem: -43 55<275 432.5> 694 62<401.5 491> 750 20G<296 298 298 299.5>
VStem: -8 87<266.5 376> 658 79<356.5 459.5>
LayerCount: 2
Fore
SplineSet
295 748 m 0,0,1
 196 699 196 699 137.5 587 c 128,-1,2
 79 475 79 475 79 351 c 0,3,4
 79 216.885714286 79 216.885714286 150 118.5 c 0,5,6
 185 70 185 70 245 41 c 128,-1,7
 305 12 305 12 385.5 12 c 128,-1,8
 466 12 466 12 531 67 c 128,-1,9
 596 122 596 122 627 204.5 c 128,-1,10
 658 287 658 287 658 379 c 0,11,12
 658 510 658 510 592.5 602 c 128,-1,13
 527 694 527 694 404 694 c 0,14,15
 262 694 262 694 214 519 c 0,16,17
 212 510 212 510 204 510 c 0,18,19
 198 510 198 510 198 521 c 0,20,21
 198 564 198 564 235 618.5 c 128,-1,22
 272 673 272 673 339 714.5 c 128,-1,23
 406 756 406 756 479 756 c 0,24,25
 607 756 607 756 672 675.5 c 128,-1,26
 737 595 737 595 737 471 c 0,27,28
 737 384 737 384 705.5 294 c 128,-1,29
 674 204 674 204 619 128.5 c 128,-1,30
 564 53 564 53 479.5 5 c 128,-1,31
 395 -43 395 -43 299 -43 c 0,32,33
 154 -43 154 -43 73 52 c 128,-1,34
 -8 147 -8 147 -8 287.5 c 128,-1,35
 -8 428 -8 428 70.5 560.5 c 128,-1,36
 149 693 149 693 296 770 c 1,37,-1
 298 770 l 2,38,39
 302 770 302 770 302 761 c 128,-1,40
 302 752 302 752 295 748 c 0,0,1
EndSplineSet
EndChar

StartChar: P
Encoding: 80 80 15
Width: 659
Flags: HMW
HStem: -62 43<347.5 394.5> 374 60<594 689.5> 374 89<548.5 634> 819 56<263 325>
VStem: -109 93<429.5 595.5> 348 86<582 584> 509 69<79 137> 737 72<538.5 604.5>
LayerCount: 2
Fore
SplineSet
373 414.5 m 128,-1,1
 348 481 348 481 348 520.5 c 128,-1,2
 348 560 348 560 359 587 c 128,-1,3
 370 614 370 614 386 630.5 c 0,4,5
 417.60591133 663.093596059 417.60591133 663.093596059 446 676 c 2,6,-1
 457 681 l 1,7,8
 463 681 463 681 463 675.5 c 128,-1,9
 463 670 463 670 458 666 c 0,10,11
 434 642 434 642 434 598.5 c 128,-1,12
 434 555 434 555 487 429 c 1,13,14
 525 463 525 463 553 463 c 128,-1,15
 581 463 581 463 614 448.5 c 128,-1,16
 647 434 647 434 665 434 c 0,17,18
 699 434 699 434 718 462.5 c 128,-1,19
 737 491 737 491 737 523 c 0,20,21
 737 581 737 581 683.5 637.5 c 128,-1,22
 630 694 630 694 552 732.5 c 128,-1,23
 474 771 474 771 389.5 795 c 128,-1,24
 305 819 305 819 240 819 c 0,25,26
 123 819 123 819 53.5 738.5 c 128,-1,27
 -16 658 -16 658 -16 561 c 128,-1,28
 -16 464 -16 464 31 360 c 128,-1,29
 78 256 78 256 145.5 174 c 128,-1,30
 213 92 213 92 290.5 36.5 c 128,-1,31
 368 -19 368 -19 426 -19 c 0,32,33
 466 -19 466 -19 487.5 14.5 c 128,-1,34
 509 48 509 48 509 83.5 c 128,-1,35
 509 119 509 119 484 178.5 c 128,-1,36
 459 238 459 238 428.5 293 c 128,-1,0
 398 348 398 348 373 414.5 c 128,-1,1
555.5 393 m 128,-1,38
 518 412 518 412 510 412 c 128,-1,39
 502 412 502 412 497 407 c 1,40,41
 548 288 548 288 555 262 c 128,-1,42
 562 236 562 236 568 215.5 c 0,43,44
 578 181.333333333 578 181.333333333 578 150 c 0,45,46
 578 83 578 83 539.5 33 c 128,-1,47
 501 -17 501 -17 449.5 -39.5 c 128,-1,48
 398 -62 398 -62 346 -62 c 0,49,50
 264 -62 264 -62 178.5 -3 c 128,-1,51
 93 56 93 56 31.5 140.5 c 128,-1,52
 -30 225 -30 225 -69.5 318 c 128,-1,53
 -109 411 -109 411 -109 487 c 128,-1,54
 -109 563 -109 563 -63.5 638.5 c 128,-1,55
 -18 714 -18 714 52 765 c 128,-1,56
 122 816 122 816 205 845.5 c 128,-1,57
 288 875 288 875 357.5 875 c 128,-1,58
 427 875 427 875 503 853 c 128,-1,59
 579 831 579 831 647.5 794.5 c 128,-1,60
 716 758 716 758 762.5 701.5 c 128,-1,61
 809 645 809 645 809 583 c 0,62,63
 809 542 809 542 769 491 c 128,-1,64
 729 440 729 440 682 407 c 128,-1,65
 635 374 635 374 614 374 c 128,-1,37
 593 374 593 374 555.5 393 c 128,-1,38
EndSplineSet
EndChar

StartChar: Q
Encoding: 81 81 16
Width: 860
Flags: HMW
HStem: -503 54<862.5 921.5> -43 63<216 218> 483 59<414.5 532.5> 764 43<455 570>
VStem: 1 102<156.5 283.5> 386 98<502.5 567> 583 89<252 258 212 301> 628 80<703.5 713.5> 973 23<-391 -322 -401 -290>
LayerCount: 2
Fore
SplineSet
973 -367 m 0,0,1
 973 -292 973 -292 932 -212 c 128,-1,2
 891 -132 891 -132 828 -78.5 c 128,-1,3
 765 -25 765 -25 704 -24 c 1,4,5
 708 -33 708 -33 722.5 -86 c 128,-1,6
 737 -139 737 -139 755 -196 c 128,-1,7
 773 -253 773 -253 798 -312.5 c 128,-1,8
 823 -372 823 -372 857 -410.5 c 128,-1,9
 891 -449 891 -449 927 -449 c 0,10,11
 944 -449 944 -449 958.5 -425 c 128,-1,12
 973 -401 973 -401 973 -367 c 0,0,1
491 587 m 1,13,-1
 484 564 l 1,14,15
 484 553 484 553 491 547.5 c 128,-1,16
 498 542 498 542 505 542 c 0,17,18
 546 542 546 542 587 593.5 c 128,-1,19
 628 645 628 645 628 694 c 0,20,21
 628 764 628 764 536 764 c 0,22,23
 455 764 455 764 373.5 708.5 c 128,-1,24
 292 653 292 653 234 570 c 128,-1,25
 176 487 176 487 139.5 390 c 128,-1,26
 103 293 103 293 103 208.5 c 128,-1,27
 103 124 103 124 146 72 c 128,-1,28
 189 20 189 20 278 20 c 0,29,30
 328 20 328 20 377.5 44 c 128,-1,31
 427 68 427 68 462.5 102 c 0,32,33
 537.276595745 173.617021277 537.276595745 173.617021277 569 228 c 2,34,-1
 583 252 l 1,35,36
 583 350.5 583 350.5 591 442.5 c 2,37,-1
 594 477 l 1,38,39
 594 489 594 489 625 515.5 c 128,-1,40
 656 542 656 542 674 542 c 128,-1,41
 692 542 692 542 697.5 537 c 128,-1,42
 703 532 703 532 703 521 c 128,-1,43
 703 510 703 510 694 462.5 c 128,-1,44
 685 415 685 415 678 409 c 1,45,46
 672 283 672 283 672 229.5 c 128,-1,47
 672 176 672 176 679 122 c 1,48,49
 699 127 699 127 774 208 c 1,50,51
 790 208 790 208 790 200 c 0,52,53
 790 198 790 198 770 176 c 128,-1,54
 750 154 750 154 723 129 c 128,-1,55
 696 104 696 104 682 96 c 1,56,-1
 693 36 l 1,57,58
 763 27 763 27 819 -10 c 128,-1,59
 875 -47 875 -47 907 -94 c 128,-1,60
 939 -141 939 -141 960 -196 c 0,61,62
 996 -290.285714286 996 -290.285714286 996 -355.642857143 c 128,-1,63
 996 -421 996 -421 966 -462 c 128,-1,64
 936 -503 936 -503 883.5 -503 c 128,-1,65
 831 -503 831 -503 782.5 -455.5 c 128,-1,66
 734 -408 734 -408 700.5 -328.5 c 0,67,68
 639.590909091 -183.954545455 639.590909091 -183.954545455 608 -26 c 1,69,-1
 549 -43 l 1,70,71
 536.272727273 -43 536.272727273 -43 524 2 c 0,72,73
 521 13 521 13 519 19 c 1,74,75
 519 27 519 27 531 30 c 0,76,77
 555.571428571 36.1428571429 555.571428571 36.1428571429 587 55 c 2,78,-1
 597 61 l 1,79,80
 589.033057851 138.67768595 589.033057851 138.67768595 587.5 200 c 2,81,-1
 587 220 l 1,82,83
 541 148 541 148 487 95 c 128,-1,84
 433 42 433 42 391 16.5 c 128,-1,85
 349 -9 349 -9 304 -23.5 c 0,86,87
 243.482758621 -43 243.482758621 -43 201 -43 c 0,88,89
 100 -43 100 -43 50.5 11.5 c 128,-1,90
 1 66 1 66 1 149.5 c 128,-1,91
 1 233 1 233 32.5 321.5 c 128,-1,92
 64 410 64 410 122.5 495 c 128,-1,93
 181 580 181 580 257 650.5 c 128,-1,94
 333 721 333 721 431 764 c 128,-1,95
 529 807 529 807 629 807 c 0,96,97
 708 807 708 807 708 750 c 0,98,99
 708 705 708 705 661 641 c 128,-1,100
 614 577 614 577 546 530 c 128,-1,101
 478 483 478 483 426 483 c 0,102,103
 409 483 409 483 397.5 490.5 c 128,-1,104
 386 498 386 498 386 512.5 c 128,-1,105
 386 527 386 527 395.5 541.5 c 128,-1,106
 405 556 405 556 418.5 565.5 c 128,-1,107
 432 575 432 575 446.5 582 c 0,108,109
 473.428571429 595 473.428571429 595 482.214285714 595 c 128,-1,110
 491 595 491 595 491 587 c 1,13,-1
EndSplineSet
EndChar

StartChar: T
Encoding: 84 84 17
Width: 361
Flags: HMW
HStem: -238 53<46 132.5> 837 20G<406 410.5>
VStem: 9 72<-145 -119> 53 88<537 589.5> 199 71<-86 61>
LayerCount: 2
Fore
SplineSet
81 -123 m 0,0,1
 81 -185 81 -185 115 -185 c 0,2,3
 143 -185 143 -185 171 -143.5 c 128,-1,4
 199 -102 199 -102 199 -46 c 128,-1,5
 199 10 199 10 186 70 c 1,6,7
 81 -28 81 -28 81 -123 c 0,0,1
-408 604 m 1,8,9
 -377 642 -377 642 -104.5 734 c 128,-1,10
 168 826 168 826 406 857 c 1,11,12
 421 857 421 857 421 852 c 128,-1,13
 421 847 421 847 415 841 c 2,14,-1
 369 792 l 2,15,16
 361.952380952 783.19047619 361.952380952 783.19047619 318.976190476 774.595238095 c 128,-1,17
 276 766 276 766 247.5 752.5 c 128,-1,18
 219 739 219 739 195.5 720.5 c 128,-1,19
 172 702 172 702 156.5 667 c 128,-1,20
 141 632 141 632 141 582.5 c 128,-1,21
 141 533 141 533 193 376.5 c 128,-1,22
 245 220 245 220 259 149 c 1,23,24
 331 194 331 194 374 203 c 1,25,26
 389 203 389 203 389 199.5 c 128,-1,27
 389 196 389 196 378 193 c 0,28,29
 339 182 339 182 262 131 c 1,30,31
 270 85 270 85 270 48 c 0,32,33
 270 -22 270 -22 233.5 -90.5 c 128,-1,34
 197 -159 197 -159 148.5 -198.5 c 128,-1,35
 100 -238 100 -238 61 -238 c 0,36,37
 9 -238 9 -238 9 -164 c 0,38,39
 9 -44 9 -44 181 94 c 1,40,41
 166 154 166 154 132 242 c 128,-1,42
 98 330 98 330 75.5 404.5 c 128,-1,43
 53 479 53 479 53 543 c 128,-1,44
 53 607 53 607 82 643.5 c 128,-1,45
 111 680 111 680 202 750 c 1,46,47
 189 750 189 750 67 709.5 c 128,-1,48
 -55 669 -55 669 -205.5 610.5 c 128,-1,49
 -356 552 -356 552 -417 513 c 0,50,51
 -431 505 -431 505 -436 505 c 128,-1,52
 -441 505 -441 505 -441 517.5 c 0,53,54
 -441 544.1875 -441 544.1875 -416 589.5 c 2,55,-1
 -408 604 l 1,8,9
EndSplineSet
EndChar

StartChar: U
Encoding: 85 85 18
Width: 780
Flags: HMW
HStem: -43 58<658.5 746> -29 61<198.5 344> 722 51<-64 87.5>
VStem: 422 112<449 462.5 381 524>
LayerCount: 2
Fore
SplineSet
534 396 m 1,0,-1
 532 337 l 1,1,2
 532 306 532 306 570 228.5 c 128,-1,3
 608 151 608 151 660 83 c 128,-1,4
 712 15 712 15 744 15 c 0,5,6
 745 15 745 15 757 17 c 0,7,8
 763 17 763 17 763 9 c 0,9,10
 763 -3 763 -3 728 -23 c 128,-1,11
 693 -43 693 -43 675 -43 c 0,12,13
 645 -43 645 -43 591.5 11.5 c 128,-1,14
 538 66 538 66 500 157 c 1,15,16
 412 -29 412 -29 289 -29 c 0,17,18
 227 -29 227 -29 180 3.5 c 128,-1,19
 133 36 133 36 106 88.5 c 128,-1,20
 79 141 79 141 60 208.5 c 128,-1,21
 41 276 41 276 33 346.5 c 128,-1,22
 25 417 25 417 16 484.5 c 2,23,-1
 0 604.5 l 2,24,25
 -15.6666666667 722 -15.6666666667 722 -61 722 c 0,26,27
 -71 722 -71 722 -71 728 c 128,-1,28
 -71 734 -71 734 -57.5 742.5 c 128,-1,29
 -44 751 -44 751 -13.5 762 c 128,-1,30
 17 773 17 773 32 773 c 0,31,32
 57 773 57 773 73.5 718 c 128,-1,33
 90 663 90 663 97.5 581 c 128,-1,34
 105 499 105 499 121 402.5 c 128,-1,35
 137 306 137 306 158.5 224 c 128,-1,36
 180 142 180 142 227.5 87 c 128,-1,37
 275 32 275 32 342 32 c 0,38,39
 389 32 389 32 429.5 75 c 128,-1,40
 470 118 470 118 485 188 c 1,41,42
 481 186 481 186 465.5 240.5 c 128,-1,43
 450 295 450 295 436 374.5 c 128,-1,44
 422 454 422 454 422 508 c 1,45,-1
 424 560 l 2,46,47
 424 566 424 566 444 575.5 c 128,-1,48
 464 585 464 585 473 585 c 0,49,50
 499 585 499 585 516.5 537.5 c 128,-1,51
 534 490 534 490 534 396 c 1,0,-1
EndSplineSet
EndChar

StartChar: S
Encoding: 83 83 19
Width: 588
Flags: HMW
HStem: -51 49<259 392> 772 47<171.5 183>
VStem: 15 56<602 608> 238 59<648 761> 475 74<98 136>
LayerCount: 2
Fore
SplineSet
71 640 m 0,0,1
 71 544 71 544 185 461 c 1,2,3
 238 597 238 597 238 677 c 0,4,5
 238 712 238 712 215 742 c 128,-1,6
 192 772 192 772 163.5 772 c 128,-1,7
 135 772 135 772 112.5 742 c 128,-1,8
 90 712 90 712 80.5 682.5 c 128,-1,9
 71 653 71 653 71 640 c 0,0,1
-59 -12 m 0,10,11
 -66 -19 -66 -19 -71 -19 c 0,12,13
 -79 -19 -79 -19 -79 -11 c 128,-1,14
 -79 -3 -79 -3 -75 2 c 0,15,16
 -30 52 -30 52 31 153 c 128,-1,17
 92 254 92 254 143 363 c 1,18,19
 15 452 15 452 15 545 c 0,20,21
 15 607 15 607 44.5 671 c 128,-1,22
 74 735 74 735 123.5 777 c 128,-1,23
 173 819 173 819 218.5 819 c 128,-1,24
 264 819 264 819 280.5 797.5 c 128,-1,25
 297 776 297 776 297 735 c 0,26,27
 297 658 297 658 204 447 c 1,28,29
 237 425 237 425 292.5 393.5 c 128,-1,30
 348 362 348 362 387.5 339 c 128,-1,31
 427 316 427 316 467 285.5 c 0,32,33
 549 222.975 549 222.975 549 149.4875 c 128,-1,34
 549 76 549 76 473 12.5 c 128,-1,35
 397 -51 397 -51 319 -51 c 0,36,37
 196 -51 196 -51 100 77 c 0,38,39
 89 92 89 92 89 102.5 c 128,-1,40
 89 113 89 113 114 133.5 c 128,-1,41
 139 154 139 154 153 154 c 0,42,43
 156 154 156 154 158 151 c 0,44,45
 185 104 185 104 255 51 c 128,-1,46
 325 -2 325 -2 392 -2 c 1,47,48
 475 4 475 4 475 80 c 0,49,50
 475 143.616438356 475 143.616438356 401.5 200 c 0,51,52
 347.82063385 241.178691841 347.82063385 241.178691841 268.910316925 286.58934592 c 128,-1,53
 190 332 190 332 160 352 c 1,54,55
 39 98 39 98 -59 -12 c 0,10,11
EndSplineSet
EndChar

StartChar: R
Encoding: 82 82 20
Width: 1224
Flags: HMW
HStem: -82 41<316 440> 365 70 783 91<235.5 401.5>
VStem: -100 78<468 537.5> 335 91<552.5 564.5> 505 68<53 118.5> 779 70<569.5 595.5>
LayerCount: 2
Fore
SplineSet
468 672 m 0,0,1
 426 641 426 641 426 590 c 0,2,3
 426 507 426 507 488 383 c 1,4,5
 519 441 519 441 588 441 c 0,6,7
 610.5 441 610.5 441 645 435 c 1,8,9
 693 436 693 436 736 461.5 c 128,-1,10
 779 487 779 487 779 532 c 0,11,12
 779 593 779 593 703 652.5 c 128,-1,13
 627 712 627 712 513.5 747.5 c 128,-1,14
 400 783 400 783 292 783 c 0,15,16
 136.450980392 783 136.450980392 783 53 716.5 c 0,17,18
 21 691 21 691 -0.5 645 c 128,-1,19
 -22 599 -22 599 -22 547 c 128,-1,20
 -22 495 -22 495 2.5 424 c 128,-1,21
 27 353 27 353 72 273.5 c 128,-1,22
 117 194 117 194 172 123 c 128,-1,23
 227 52 227 52 296 5.5 c 128,-1,24
 365 -41 365 -41 430 -41 c 0,25,26
 462 -41 462 -41 483.5 -23 c 128,-1,27
 505 -5 505 -5 505 30 c 0,28,29
 505 89 505 89 478.5 161.5 c 128,-1,30
 452 234 452 234 420 290.5 c 128,-1,31
 388 347 388 347 361.5 414 c 128,-1,32
 335 481 335 481 335 528.5 c 128,-1,33
 335 576 335 576 372.5 616 c 128,-1,34
 410 656 410 656 461 685 c 0,35,36
 462 686 462 686 464 686 c 0,37,38
 472 686 472 686 472 678 c 0,39,40
 472 675 472 675 468 672 c 0,0,1
573 124 m 0,41,42
 573 23 573 23 521 -29.5 c 128,-1,43
 469 -82 469 -82 393 -82 c 0,44,45
 334 -82 334 -82 265.5 -53 c 128,-1,46
 197 -24 197 -24 133 28.5 c 128,-1,47
 69 81 69 81 16.5 145.5 c 128,-1,48
 -36 210 -36 210 -68 288.5 c 128,-1,49
 -100 367 -100 367 -100 440 c 128,-1,50
 -100 513 -100 513 -62 590 c 128,-1,51
 -24 667 -24 667 37 730 c 128,-1,52
 98 793 98 793 183.5 833.5 c 128,-1,53
 269 874 269 874 356 874 c 128,-1,54
 443.113636364 874 443.113636364 874 574.5 833 c 0,55,56
 645 811 645 811 705.5 781 c 128,-1,57
 766 751 766 751 807.5 704 c 128,-1,58
 849 657 849 657 849 604 c 128,-1,59
 849 551 849 551 799.5 493 c 128,-1,60
 750 435 750 435 683 417 c 1,61,-1
 682 416 l 1,62,63
 718.365799257 399.332342007 718.365799257 399.332342007 856.5 265 c 0,64,65
 911 212 911 212 969.5 159 c 128,-1,66
 1028 106 1028 106 1089.5 66 c 128,-1,67
 1151 26 1151 26 1197 18 c 0,68,69
 1207 16 1207 16 1207 9 c 128,-1,70
 1207 2 1207 2 1198 -3 c 0,71,72
 1139 -37 1139 -37 1096 -37 c 128,-1,73
 1053 -37 1053 -37 992 4.5 c 128,-1,74
 931 46 931 46 872.5 105 c 128,-1,75
 814 164 814 164 755.5 223 c 0,76,77
 614.703389831 365 614.703389831 365 534 365 c 0,78,79
 514 365 514 365 500 359 c 1,80,81
 525 308 525 308 536.5 282 c 128,-1,82
 548 256 548 256 560.5 210.5 c 128,-1,83
 573 165 573 165 573 124 c 0,41,42
EndSplineSet
EndChar

StartChar: V
Encoding: 86 86 21
Width: 514
Flags: HMW
HStem: -32 61<199.5 339> 711 20G<217.5 273.5>
VStem: -87 101<539.5 651.5 539.5 662> 442 29<186 261>
LayerCount: 2
Fore
SplineSet
18 710 m 2,0,-1
 14 636 l 1,1,2
 14 487.181818182 14 487.181818182 52 339.5 c 0,3,4
 74 254 74 254 107 186.5 c 128,-1,5
 140 119 140 119 196 74 c 128,-1,6
 252 29 252 29 317.5 29 c 128,-1,7
 383 29 383 29 412.5 76 c 128,-1,8
 442 123 442 123 442 207 c 128,-1,9
 442 291 442 291 408 393.5 c 128,-1,10
 374 496 374 496 320 569 c 1,11,12
 282 584 282 584 228 633.5 c 128,-1,13
 174 683 174 683 174 700 c 0,14,15
 174 710 174 710 193.5 720.5 c 128,-1,16
 213 731 213 731 223 731 c 0,17,18
 289 731 289 731 347 665 c 128,-1,19
 405 599 405 599 416 553 c 1,20,21
 484 531 484 531 500 527.5 c 128,-1,22
 516 524 516 524 516 515 c 0,23,24
 516 504 516 504 504.5 504 c 128,-1,25
 493 504 493 504 479 507 c 0,26,27
 451 513 451 513 433 519 c 1,28,29
 471 396 471 396 471 258 c 0,30,31
 471 139.595744681 471 139.595744681 427.5 60 c 0,32,33
 404 17 404 17 359 -7.5 c 128,-1,34
 314 -32 314 -32 245 -32 c 128,-1,35
 176 -32 176 -32 110.5 33.5 c 128,-1,36
 45 99 45 99 3 202 c 128,-1,37
 -39 305 -39 305 -63 426 c 128,-1,38
 -87 547 -87 547 -87 662 c 1,39,40
 -85 668 -85 668 -81 672 c 1,41,42
 -59 686 -59 686 -24 704 c 128,-1,43
 11 722 11 722 14.5 722 c 128,-1,44
 18 722 18 722 18 710 c 2,0,-1
EndSplineSet
EndChar

StartChar: W
Encoding: 87 87 22
Width: 781
Flags: HMW
HStem: -109 39<513 596.5> 27 53<106 167> 416 22<781 803.5> 766 20G<-43 -18>
VStem: 699 44<101 188.5>
LayerCount: 2
Fore
SplineSet
-106 744 m 0,0,1
 -114 750 -114 750 -114 752 c 1,2,3
 -68 786 -68 786 -18 786 c 1,4,5
 29 742 29 742 53 652 c 128,-1,6
 77 562 77 562 82.5 467.5 c 128,-1,7
 88 373 88 373 93.5 283.5 c 128,-1,8
 99 194 99 194 120 137 c 128,-1,9
 141 80 141 80 185 80 c 0,10,11
 214 80 214 80 234.5 111 c 128,-1,12
 255 142 255 142 259 160 c 1,13,14
 231 224 231 224 214 332.5 c 128,-1,15
 197 441 197 441 197 491 c 0,16,17
 197 572.166666667 197 572.166666667 210 596 c 0,18,19
 212 598 212 598 230 605 c 128,-1,20
 248 612 248 612 253 612 c 0,21,22
 285 612 285 612 306 469 c 1,23,-1
 315 307 l 1,24,25
 359.342611001 137.691848907 359.342611001 137.691848907 414.5 43.5 c 0,26,27
 480.963963964 -70 480.963963964 -70 587 -70 c 0,28,29
 643 -70 643 -70 671 -17 c 128,-1,30
 699 36 699 36 699 130.5 c 128,-1,31
 699 225 699 225 661.5 336 c 128,-1,32
 624 447 624 447 564 510 c 1,33,34
 527 535 527 535 480 577 c 128,-1,35
 433 619 433 619 433 642 c 0,36,37
 433 649 433 649 462 658.5 c 128,-1,38
 491 668 491 668 498 668 c 1,39,40
 574.720399429 628.656205421 574.720399429 628.656205421 614.5 575 c 0,41,42
 636 546 636 546 646.5 527 c 128,-1,43
 657 508 657 508 676 470 c 1,44,45
 688.638297872 457.361702128 688.638297872 457.361702128 730.819148936 447.680851064 c 128,-1,46
 773 438 773 438 802 438 c 0,47,48
 812 438 812 438 812 426 c 0,49,50
 812 416 812 416 797.5 416 c 0,51,52
 764.545454545 416 764.545454545 416 711 431.5 c 2,53,-1
 692 437 l 2,54,55
 689 437 689 437 689 433 c 1,56,57
 743 310 743 310 743 181.5 c 128,-1,58
 743 53 743 53 686.5 -28 c 128,-1,59
 630 -109 630 -109 517 -109 c 0,60,61
 477 -109 477 -109 440.5 -91 c 128,-1,62
 404 -73 404 -73 379.5 -49.5 c 128,-1,63
 355 -26 355 -26 330 12 c 0,64,65
 300.247933884 57.2231404959 300.247933884 57.2231404959 266 130 c 1,66,67
 207 27 207 27 143 27 c 0,68,69
 93 27 93 27 61 73 c 128,-1,70
 29 119 29 119 16.5 189 c 128,-1,71
 4 259 4 259 -6 346 c 128,-1,72
 -16 433 -16 433 -23 511 c 128,-1,73
 -30 589 -30 589 -51 654.5 c 128,-1,74
 -72 720 -72 720 -106 744 c 0,0,1
EndSplineSet
EndChar

StartChar: X
Encoding: 88 88 23
Width: 653
Flags: HMW
HStem: -54 21G<-47 -43> -28 51<538 551> 737 20G<44 54.5>
VStem: -27 85
LayerCount: 2
Fore
SplineSet
-31 -40 m 0,0,1
 -39 -54 -39 -54 -45 -54 c 128,-1,2
 -51 -54 -51 -54 -51 -45 c 128,-1,3
 -51 -36 -51 -36 -49 -33 c 0,4,5
 27 125 27 125 110 266 c 1,6,7
 46 368 46 368 9.5 475.5 c 128,-1,8
 -27 583 -27 583 -27 659 c 0,9,10
 -27 680 -27 680 -24 698 c 0,11,12
 -24 703 -24 703 8.5 730 c 128,-1,13
 41 757 41 757 49.5 757 c 128,-1,14
 58 757 58 757 58 751 c 0,15,16
 69 552 69 552 172 367 c 1,17,18
 292 554 292 554 427 710 c 0,19,20
 438 722 438 722 446 722 c 128,-1,21
 454 722 454 722 463 715 c 128,-1,22
 472 708 472 708 472 706 c 128,-1,23
 472 704 472 704 470 702 c 0,24,25
 342 572 342 572 189 339 c 1,26,27
 274 197 274 197 389 110 c 128,-1,28
 504 23 504 23 605 23 c 0,29,30
 646.583333333 23 646.583333333 23 673.5 42 c 0,31,32
 682 48 682 48 684 48 c 0,33,34
 690 48 690 48 690 41.5 c 128,-1,35
 690 35 690 35 688 31 c 1,36,37
 611 -28 611 -28 533 -28 c 0,38,39
 415 -28 415 -28 311 46 c 128,-1,40
 207 120 207 120 126 241 c 1,41,42
 38 99 38 99 -31 -40 c 0,0,1
EndSplineSet
EndChar

StartChar: Z
Encoding: 90 90 24
Width: 854
Flags: HMW
HStem: -602 52<698 727> 202 203<339 440> 717 55<170.5 262.5>
VStem: -56 72<476.5 544.5> 542 60<-374 -325> 602 67<356.5 437.5> 784 48<-457.5 -434>
LayerCount: 2
Fore
SplineSet
644 -88 m 1,0,1
 602 -194 602 -194 602 -302.5 c 128,-1,2
 602 -411 602 -411 640 -480.5 c 128,-1,3
 678 -550 678 -550 741 -550 c 0,4,5
 760 -550 760 -550 772 -527.5 c 128,-1,6
 784 -505 784 -505 784 -460.5 c 128,-1,7
 784 -416 784 -416 745 -310 c 128,-1,8
 706 -204 706 -204 644 -88 c 1,0,1
273 31 m 1,9,10
 232 31 232 31 182 74 c 1,11,12
 -56 286 -56 286 -56 486 c 0,13,14
 -56 531 -56 531 -33.5 580 c 128,-1,15
 -11 629 -11 629 29.5 672.5 c 128,-1,16
 70 716 70 716 135.5 744 c 128,-1,17
 201 772 201 772 278 772 c 0,18,19
 375 772 375 772 467.5 709.5 c 128,-1,20
 560 647 560 647 614.5 557.5 c 128,-1,21
 669 468 669 468 669 386 c 0,22,23
 669 337 669 337 636 282.5 c 128,-1,24
 603 228 603 228 554 215 c 1,25,26
 637 99 637 99 680 27 c 1,27,28
 751 123 751 123 847 177 c 1,29,30
 854 177 854 177 854 166 c 1,31,32
 756 105 756 105 693 6 c 1,33,34
 832 -232 832 -232 832 -387 c 0,35,36
 832 -483 832 -483 788.5 -542.5 c 128,-1,37
 745 -602 745 -602 705 -602 c 0,38,39
 625 -602 625 -602 583.5 -539 c 128,-1,40
 542 -476 542 -476 542 -374 c 0,41,42
 542 -215 542 -215 627 -57 c 1,43,44
 530 115 530 115 440 202 c 1,45,46
 402 202 402 202 349.5 264 c 128,-1,47
 297 326 297 326 297 364 c 0,48,49
 297 377 297 377 315.5 391 c 128,-1,50
 334 405 334 405 345 405 c 0,51,52
 364 405 364 405 425.5 351 c 128,-1,53
 487 297 487 297 544 224 c 1,54,55
 550.25 224 550.25 224 562.125 233.5 c 128,-1,56
 574 243 574 243 581.5 255.5 c 0,57,58
 602 289.666666667 602 289.666666667 602 352.333333333 c 128,-1,59
 602 415 602 415 563.5 481 c 128,-1,60
 525 547 525 547 462.5 599 c 128,-1,61
 400 651 400 651 315 684 c 128,-1,62
 230 717 230 717 144 717 c 0,63,64
 87 717 87 717 51.5 661.5 c 128,-1,65
 16 606 16 606 16 539.5 c 128,-1,66
 16 473 16 473 55 385 c 128,-1,67
 94 297 94 297 178 204 c 128,-1,68
 262 111 262 111 367 60 c 1,69,70
 367 51 367 51 343.5 43.5 c 128,-1,71
 320 36 320 36 296.5 33.5 c 2,72,-1
 273 31 l 1,9,10
EndSplineSet
EndChar

StartChar: Y
Encoding: 89 89 25
Width: 693
Flags: HMW
HStem: -403 49<716 859> -4 54<193 329> 749 20G<21.5 27.5>
VStem: 427 118<385 526>
LayerCount: 2
Fore
SplineSet
854 -354 m 1,0,-1
 877 -349 l 2,1,2
 881 -349 881 -349 881 -353 c 0,3,4
 881 -366 881 -366 848.5 -384.5 c 128,-1,5
 816 -403 816 -403 783.5 -403 c 128,-1,6
 751 -403 751 -403 715.5 -367.5 c 128,-1,7
 680 -332 680 -332 647.5 -270.5 c 128,-1,8
 615 -209 615 -209 588 -151 c 128,-1,9
 561 -93 561 -93 535 -21 c 128,-1,10
 509 51 509 51 500 78.5 c 128,-1,11
 491 106 491 106 482 133 c 1,12,13
 482 131 482 131 472 117.5 c 128,-1,14
 462 104 462 104 442 83.5 c 128,-1,15
 422 63 422 63 397 43.5 c 128,-1,16
 372 24 372 24 336 10 c 128,-1,17
 300 -4 300 -4 264 -4 c 0,18,19
 197 -4 197 -4 149 34 c 128,-1,20
 101 72 101 72 77 134 c 128,-1,21
 53 196 53 196 38.5 271 c 128,-1,22
 24 346 24 346 17.5 423 c 128,-1,23
 11 500 11 500 4 565.5 c 0,24,25
 -12.1051127342 716.197840584 -12.1051127342 716.197840584 -56 732 c 0,26,27
 -61 734 -61 734 -61 739 c 0,28,29
 -61 751 -61 751 -39 758.5 c 0,30,31
 -8.2 769 -8.2 769 15.4 769 c 128,-1,32
 39 769 39 769 46 768 c 1,33,34
 79 730 79 730 96 639.5 c 128,-1,35
 113 549 113 549 121.5 452.5 c 128,-1,36
 130 356 130 356 146.5 263 c 128,-1,37
 163 170 163 170 208 110 c 128,-1,38
 253 50 253 50 329 50 c 0,39,40
 382 50 382 50 425.5 93.5 c 128,-1,41
 469 137 469 137 474 159 c 1,42,43
 427 320 427 320 427 489 c 0,44,45
 427 541 427 541 446 567 c 128,-1,46
 465 593 465 593 493.5 593 c 128,-1,47
 522 593 522 593 533.5 537 c 128,-1,48
 545 481 545 481 545 434.5 c 0,49,50
 545 369.25 545 369.25 538 325.5 c 2,51,-1
 536 313 l 1,52,53
 558 186 558 186 602.5 58.5 c 128,-1,54
 647 -69 647 -69 694 -156.5 c 128,-1,55
 741 -244 741 -244 785 -299 c 128,-1,56
 829 -354 829 -354 854 -354 c 1,0,-1
EndSplineSet
EndChar

StartChar: a
Encoding: 97 97 26
Width: 458
Flags: HMW
HStem: -26 21G<293 343> -19 41 -19 56<55.5 159> 248 20G<248.5 279>
VStem: 0 94<90.5 91.5> 185 83<138 154 106 183>
LayerCount: 2
Fore
SplineSet
203 262 m 1,0,1
 206 268 206 268 257.5 268 c 128,-1,2
 309 268 309 268 309 253 c 0,3,4
 309 250 309 250 303 241 c 0,5,6
 268 193 268 193 268 141 c 128,-1,7
 268 89 268 89 292.5 55.5 c 128,-1,8
 317 22 317 22 355 22 c 0,9,10
 417 22 417 22 481 110 c 1,11,-1
 488 98 l 1,12,13
 410 -26 410 -26 316 -26 c 0,14,15
 245 -26 245 -26 207 47 c 1,16,17
 191 23 191 23 155 2 c 128,-1,18
 119 -19 119 -19 87 -19 c 0,19,20
 0 -19 0 -19 0 54 c 0,21,22
 0 111 0 111 48.5 173.5 c 128,-1,23
 97 236 97 236 144 236 c 0,24,25
 148 236 148 236 148 233 c 128,-1,26
 148 230 148 230 144 226 c 1,27,28
 123 215 123 215 108.5 180.5 c 128,-1,29
 94 146 94 146 94 110 c 0,30,31
 94 37 94 37 150 37 c 0,32,33
 166 37 166 37 180.5 45.5 c 128,-1,34
 195 54 195 54 198 70 c 1,35,36
 185 105 185 105 185 143 c 128,-1,37
 185 181 185 181 188.5 207 c 0,38,39
 195.903846154 262 195.903846154 262 203 262 c 1,0,1
EndSplineSet
EndChar

StartChar: e
Encoding: 101 101 27
Width: 314
Flags: HMW
HStem: -45 62<77 203> 167 47 279 73<138.5 155.5> 321 31<84 164>
VStem: -39 70<240 252.5> -39 231<193 334.5> 1 78<14.5 150>
LayerCount: 2
Fore
SplineSet
127 296 m 1,0,-1
 128 309 l 2,1,2
 128 321 128 321 101 321 c 128,-1,3
 74 321 74 321 52.5 305 c 128,-1,4
 31 289 31 289 31 262 c 0,5,6
 31 214 31 214 100 214 c 0,7,8
 111 214 111 214 122.5 217.5 c 128,-1,9
 134 221 134 221 146 221 c 128,-1,10
 158 221 158 221 158 213 c 0,11,12
 158 212 158 212 150 208.5 c 128,-1,13
 142 205 142 205 130.5 198 c 128,-1,14
 119 191 119 191 107 180 c 0,15,16
 79 154.333333333 79 154.333333333 79 109.166666667 c 128,-1,17
 79 64 79 64 106 40.5 c 128,-1,18
 133 17 133 17 176 17 c 128,-1,19
 219 17 219 17 264 42 c 128,-1,20
 309 67 309 67 337 110 c 1,21,-1
 344 98 l 1,22,23
 306 32 306 32 238.5 -6.5 c 128,-1,24
 171 -45 171 -45 115.5 -45 c 128,-1,25
 60 -45 60 -45 30.5 -22 c 128,-1,26
 1 1 1 1 1 37.5 c 128,-1,27
 1 74 1 74 19 105 c 128,-1,28
 37 136 37 136 50.5 149.5 c 128,-1,29
 64 163 64 163 70.5 168.5 c 128,-1,30
 77 174 77 174 77 176.5 c 128,-1,31
 77 179 77 179 76 179 c 0,32,33
 44 167 44 167 14 167 c 0,34,35
 -39 167 -39 167 -39 210 c 0,36,37
 -39 268 -39 268 27 310 c 128,-1,38
 93 352 93 352 142.5 352 c 128,-1,39
 192 352 192 352 192 328 c 0,40,41
 192 313 192 313 176 296 c 128,-1,42
 160 279 160 279 147 279 c 0,43,44
 127 279 127 279 127 296 c 1,0,-1
EndSplineSet
EndChar

StartChar: b
Encoding: 98 98 28
Width: 406
Flags: HMW
HStem: -40 32<210 216> 23 213<194.5 344> 189 47<216 237> 729 39<73 96.5>
VStem: -30 63<464 486> 124 68<559.5 580.5> 166 42<155.5 176.5 151.5 199.5> 278 40<91 99.5>
LayerCount: 2
Fore
SplineSet
220 189 m 0,0,1
 208 189 208 189 208 165 c 128,-1,2
 208 141 208 141 227.5 108.5 c 128,-1,3
 247 76 247 76 277 57 c 1,4,5
 278 62 278 62 278 72 c 0,6,7
 278 116 278 116 261 152.5 c 128,-1,8
 244 189 244 189 220 189 c 0,0,1
33 535 m 0,9,10
 33 335 33 335 79 195 c 1,11,12
 124 318 124 318 124 524 c 0,13,14
 124 613 124 613 113 671 c 128,-1,15
 102 729 102 729 83 729 c 0,16,17
 58 729 58 729 45.5 675.5 c 128,-1,18
 33 622 33 622 33 535 c 0,9,10
192 630 m 0,19,20
 192 532 192 532 158.5 396 c 128,-1,21
 125 260 125 260 86 175 c 1,22,23
 117 87 117 87 157 39.5 c 128,-1,24
 197 -8 197 -8 230 -8 c 128,-1,25
 263 -8 263 -8 274 33 c 1,26,27
 229 53 229 53 197.5 97 c 128,-1,28
 166 141 166 141 166 185 c 0,29,30
 166 208 166 208 177 222 c 128,-1,31
 188 236 188 236 209 236 c 0,32,33
 261 236 261 236 289.5 196.5 c 128,-1,34
 318 157 318 157 318 102 c 0,35,36
 318 71 318 71 308 43 c 1,37,38
 318 40 318 40 331 40 c 0,39,40
 386 40 386 40 429 110 c 1,41,-1
 437 100 l 1,42,43
 392 23 392 23 324 23 c 0,44,45
 316 23 316 23 300 25 c 1,46,47
 265 -40 265 -40 194 -40 c 0,48,49
 111.5 -40 111.5 -40 44.5 58 c 0,50,51
 11 107 11 107 -9.5 192.5 c 128,-1,52
 -30 278 -30 278 -30 383 c 128,-1,53
 -30 488 -30 488 -12.5 573 c 128,-1,54
 5 658 5 658 40 713 c 128,-1,55
 75 768 75 768 120 768 c 0,56,57
 192 768 192 768 192 630 c 0,19,20
EndSplineSet
EndChar

StartChar: c
Encoding: 99 99 29
Width: 401
Flags: HMW
HStem: -39 51<184 217> 161 131<201.5 226> 270 22<145 182>
VStem: 0 80<120.5 129> 206 63<221 249>
LayerCount: 2
Fore
SplineSet
206 240 m 0,0,1
 206 270 206 270 168 270 c 128,-1,2
 130 270 130 270 105 236 c 128,-1,3
 80 202 80 202 80 149.5 c 128,-1,4
 80 97 80 97 120.5 54.5 c 128,-1,5
 161 12 161 12 242 12 c 0,6,7
 293 12 293 12 341.5 36.5 c 128,-1,8
 390 61 390 61 424 110 c 1,9,-1
 431 98 l 1,10,11
 395 33 395 33 320.5 -3 c 128,-1,12
 246 -39 246 -39 170.5 -39 c 128,-1,13
 95 -39 95 -39 47.5 -7.5 c 128,-1,14
 0 24 0 24 0 83 c 0,15,16
 0 158 0 158 59.5 225 c 128,-1,17
 119 292 119 292 208 292 c 0,18,19
 239 292 239 292 254 276.5 c 128,-1,20
 269 261 269 261 269 235.5 c 128,-1,21
 269 210 269 210 251 185.5 c 128,-1,22
 233 161 233 161 210 161 c 0,23,24
 198 161 198 161 185.5 170.5 c 128,-1,25
 173 180 173 180 173 186.5 c 128,-1,26
 173 193 173 193 178 197.5 c 128,-1,27
 183 202 183 202 189.5 205.5 c 0,28,29
 206 214.384615385 206 214.384615385 206 240 c 0,0,1
EndSplineSet
EndChar

StartChar: d
Encoding: 100 100 30
Width: 507
Flags: HMW
HStem: -42 21G<405 427.5> -8 68<65.5 192.5> 763 48<268.5 286>
VStem: 1 99<132 138> 150 56<573 618> 337 53<566 611.5>
LayerCount: 2
Fore
SplineSet
176 60 m 0,0,1
 223 60 223 60 266 161 c 1,2,3
 243 207 243 207 228 242 c 1,4,5
 220 235 220 235 210 235 c 0,6,7
 194 235 194 235 194 255 c 0,8,9
 194 261 194 261 202.5 266.5 c 128,-1,10
 211 272 211 272 211 281 c 0,11,12
 211 300 211 300 194 300 c 0,13,14
 153 300 153 300 126.5 255.5 c 128,-1,15
 100 211 100 211 100 163.5 c 128,-1,16
 100 116 100 116 119 88 c 128,-1,17
 138 60 138 60 176 60 c 0,0,1
206 634 m 0,18,19
 206 477 206 477 302 276 c 1,20,21
 337 416 337 416 337 531.5 c 0,22,23
 337 763 337 763 258 763 c 0,24,25
 206 763 206 763 206 634 c 0,18,19
404.5 97.5 m 128,-1,27
 447 35 447 35 460.5 19.5 c 128,-1,28
 474 4 474 4 474 -1 c 128,-1,29
 474 -6 474 -6 452.5 -24 c 128,-1,30
 431 -42 431 -42 415 -42 c 128,-1,31
 399 -42 399 -42 360 8.5 c 128,-1,32
 321 59 321 59 279 136 c 1,33,34
 202 -8 202 -8 101 -8 c 0,35,36
 50 -8 50 -8 25.5 19 c 128,-1,37
 1 46 1 46 1 90 c 0,38,39
 1 167 1 167 60.5 242.5 c 128,-1,40
 120 318 120 318 196 318 c 2,41,-1
 197 318 l 1,42,43
 150 449 150 449 150 550 c 128,-1,44
 150 651 150 651 199 731 c 128,-1,45
 248 811 248 811 303 811 c 0,46,47
 341 811 341 811 365.5 764.5 c 128,-1,48
 390 718 390 718 390 623 c 0,49,50
 390 425 390 425 323 236 c 1,51,26
 362 160 362 160 404.5 97.5 c 128,-1,27
EndSplineSet
EndChar

StartChar: f
Encoding: 102 102 31
Width: 256
Flags: HMW
HStem: -414 21G<133.5 136> -176 54<-138 -113> 791 30<26 52.5>
VStem: -78 63<643 673.5> 103 53<563 584>
LayerCount: 2
Fore
SplineSet
-58 -146 m 1,0,1
 -85 -134 -85 -134 -113.5 -134 c 128,-1,2
 -142 -134 -142 -134 -142 -142.5 c 128,-1,3
 -142 -151 -142 -151 -114 -151 c 128,-1,4
 -86 -151 -86 -151 -58 -146 c 1,0,1
122 -335 m 1,5,6
 110 -259 110 -259 76 -110 c 1,7,8
 29 -140 29 -140 -20 -157 c 1,9,10
 56 -210 56 -210 119 -340 c 1,11,-1
 122 -335 l 1,5,6
83.5 711 m 128,-1,13
 64 791 64 791 24.5 791 c 128,-1,14
 -15 791 -15 791 -15 689 c 128,-1,15
 -15 587 -15 587 77 232 c 1,16,17
 103 351 103 351 103 491 c 128,-1,12
 103 631 103 631 83.5 711 c 128,-1,13
156 631 m 0,18,19
 156 533 156 533 135.5 412.5 c 128,-1,20
 115 292 115 292 86 202 c 1,21,-1
 147 -36 l 1,22,23
 232 35 232 35 279 110 c 1,24,-1
 286 98 l 1,25,26
 232 16 232 16 151 -54 c 1,27,28
 203 -269 203 -269 203 -367 c 0,29,30
 203 -374 203 -374 197.5 -375 c 128,-1,31
 192 -376 192 -376 169 -391.5 c 128,-1,32
 146 -407 146 -407 142.5 -410.5 c 128,-1,33
 139 -414 139 -414 134.5 -414 c 128,-1,34
 130 -414 130 -414 127 -406 c 0,35,36
 58 -219 58 -219 -31 -160 c 1,37,38
 -82 -176 -82 -176 -114.5 -176 c 0,39,40
 -182 -176 -182 -176 -182 -152 c 0,41,42
 -182 -141 -182 -141 -165 -131.5 c 128,-1,43
 -148 -122 -148 -122 -113.5 -122 c 128,-1,44
 -79 -122 -79 -122 -42 -142 c 1,45,46
 12 -128 12 -128 71 -92 c 1,47,48
 58 -41 58 -41 23 95.5 c 128,-1,49
 -12 232 -12 232 -28.5 301.5 c 0,50,51
 -78 510 -78 510 -78 608.5 c 128,-1,52
 -78 707 -78 707 -37.5 764 c 128,-1,53
 3 821 3 821 78 821 c 0,54,55
 156 821 156 821 156 631 c 0,18,19
EndSplineSet
EndChar

StartChar: g
Encoding: 103 103 32
Width: 447
Flags: HMW
HStem: -529 40<298 316> -28 68<64.5 191> 299 20G<302 315.5>
VStem: 0 99<112 118> 165 71<-379 -360> 193 114<179 241.5> 210 97<179 268> 360 68<-401 -373>
LayerCount: 2
Fore
SplineSet
246 72 m 1,0,1
 226 162 226 162 225 220 c 1,2,3
 219 215 219 215 209 215 c 0,4,5
 193 215 193 215 193 235 c 0,6,7
 193 241 193 241 201.5 246.5 c 128,-1,8
 210 252 210 252 210 261 c 0,9,10
 210 280 210 280 193 280 c 0,11,12
 152 280 152 280 125.5 235.5 c 128,-1,13
 99 191 99 191 99 143.5 c 128,-1,14
 99 96 99 96 118 68 c 128,-1,15
 137 40 137 40 174 40 c 128,-1,16
 211 40 211 40 246 72 c 1,0,1
347.5 -466 m 128,-1,18
 360 -443 360 -443 360 -393.5 c 128,-1,19
 360 -344 360 -344 298 -129 c 1,20,21
 236 -225 236 -225 236 -330 c 0,22,23
 236 -399 236 -399 261.5 -444 c 128,-1,24
 287 -489 287 -489 316 -489 c 0,25,17
 335 -489 335 -489 347.5 -466 c 128,-1,18
477 98 m 1,26,27
 448.846153846 51.0769230769 448.846153846 51.0769230769 359 -50 c 1,28,29
 376.571428571 -102.714285714 376.571428571 -102.714285714 386.285714286 -140.357142857 c 128,-1,30
 396 -178 396 -178 405 -211.5 c 128,-1,31
 414 -245 414 -245 417.5 -263 c 0,32,33
 428 -317 428 -317 428 -343 c 0,34,35
 428 -426 428 -426 382.5 -477.5 c 128,-1,36
 337 -529 337 -529 284.5 -529 c 128,-1,37
 232 -529 232 -529 198.5 -486 c 128,-1,38
 165 -443 165 -443 165 -360 c 1,39,40
 172 -288 172 -288 204 -227 c 128,-1,41
 236 -166 236 -166 291 -102 c 1,42,43
 265 -8 265 -8 251 50 c 1,44,45
 212.666666667 11.6666666667 212.666666667 11.6666666667 171.833333333 -8.16666666667 c 128,-1,46
 131 -28 131 -28 100 -28 c 0,47,48
 49 -28 49 -28 24.5 -1 c 128,-1,49
 0 26 0 26 0 70 c 0,50,51
 0 147 0 147 59.5 222.5 c 128,-1,52
 119 298 119 298 195 298 c 0,53,54
 237 298 237 298 245 270 c 1,55,56
 260 290 260 290 279 304.5 c 128,-1,57
 298 319 298 319 312 319 c 128,-1,58
 326 319 326 319 326 298 c 0,59,60
 326 291.6875 326 291.6875 316.5 257.84375 c 128,-1,61
 307 224 307 224 307 213 c 0,62,63
 307 134 307 134 354 -31 c 1,64,65
 435 58 435 58 470 110 c 1,66,-1
 477 98 l 1,26,27
EndSplineSet
EndChar

StartChar: j
Encoding: 106 106 33
Width: 229
Flags: HMW
HStem: -661 35<143.5 170.5 143.5 172> 337 116<2 30.5>
VStem: -45 136<181 254.5> -32 71<-407.5 -375> -32 100 9 82 186 50<-551 -531.5>
LayerCount: 2
Fore
SplineSet
68 395 m 128,-1,1
 68 371 68 371 53 354 c 128,-1,2
 38 337 38 337 16.5 337 c 128,-1,3
 -5 337 -5 337 -20.5 354 c 128,-1,4
 -36 371 -36 371 -36 395 c 128,-1,5
 -36 419 -36 419 -20.5 436 c 128,-1,6
 -5 453 -5 453 16.5 453 c 128,-1,7
 38 453 38 453 53 436 c 128,-1,0
 68 419 68 419 68 395 c 128,-1,1
39 -345 m 0,8,9
 39 -404 39 -404 61.5 -471.5 c 128,-1,10
 84 -539 84 -539 113.5 -582.5 c 128,-1,11
 143 -626 143 -626 164.5 -626 c 128,-1,12
 186 -626 186 -626 186 -572 c 0,13,14
 186 -522 186 -522 168 -452 c 128,-1,15
 150 -382 150 -382 142.5 -355 c 128,-1,16
 135 -328 135 -328 112.5 -250.5 c 128,-1,17
 90 -173 90 -173 85 -155 c 1,18,19
 39 -244 39 -244 39 -345 c 0,8,9
9 189 m 1,20,21
 -4 174 -4 174 -24.5 174 c 128,-1,22
 -45 174 -45 174 -45 185 c 0,23,24
 -45 193 -45 193 -34.5 197 c 0,25,26
 21.3409090909 218.272727273 21.3409090909 218.272727273 48.6704545455 240.636363636 c 128,-1,27
 76 263 76 263 80 263 c 0,28,29
 91 263 91 263 91 246 c 0,30,31
 98 126 98 126 137 -40 c 1,32,33
 229 77 229 77 252 110 c 1,34,-1
 259 98 l 1,35,36
 239.854700855 66.8888888889 239.854700855 66.8888888889 196.927350427 9.94444444444 c 128,-1,37
 154 -47 154 -47 142 -63 c 1,38,39
 154 -113 154 -113 182.5 -222.5 c 0,40,41
 236 -428.052631579 236 -428.052631579 236 -502.526315789 c 128,-1,42
 236 -577 236 -577 211.5 -619 c 128,-1,43
 187 -661 187 -661 148 -661 c 0,44,45
 86 -661 86 -661 27 -574.5 c 128,-1,46
 -32 -488 -32 -488 -32 -375 c 1,47,48
 -19 -249 -19 -249 75 -120 c 1,49,50
 15 91 15 91 9 189 c 1,20,21
EndSplineSet
EndChar

StartChar: k
Encoding: 107 107 34
Width: 485
Flags: HMW
HStem: -38 53<308 331> -38 156<257.5 274.5 253 331> 106 195<253 285.5> 239 62<231 272> 795 26<26 70>
VStem: -80 70<499.5 693> 116 59<599.5 651.5> 304 75<169.5 260>
LayerCount: 2
Fore
SplineSet
4 754.5 m 128,-1,1
 -10 714 -10 714 -10 646 c 128,-1,2
 -10 578 -10 578 71 247 c 1,3,4
 116 421 116 421 116 596 c 0,5,6
 116 795 116 795 43 795 c 0,7,0
 18 795 18 795 4 754.5 c 128,-1,1
257 106 m 1,8,-1
 237 110 l 2,9,10
 235 110 235 110 235 106 c 0,11,12
 235 61 235 61 263.5 38 c 128,-1,13
 292 15 292 15 337.5 15 c 128,-1,14
 383 15 383 15 431.5 40.5 c 128,-1,15
 480 66 480 66 508 110 c 1,16,-1
 515 98 l 1,17,18
 472 31 472 31 412.5 -3.5 c 128,-1,19
 353 -38 353 -38 295 -38 c 128,-1,20
 237 -38 237 -38 196.5 -6.5 c 128,-1,21
 156 25 156 25 146 83 c 1,22,23
 146 93 146 93 166 108.5 c 128,-1,24
 186 124 186 124 205.5 134 c 2,25,-1
 225 144 l 2,26,27
 227 144 227 144 239 131 c 128,-1,28
 251 118 251 118 265 118 c 128,-1,29
 279 118 279 118 291.5 139.5 c 128,-1,30
 304 161 304 161 304 186 c 0,31,32
 304 239 304 239 253 239 c 0,33,34
 219 239 219 239 193 210.5 c 128,-1,35
 167 182 167 182 155 143.5 c 0,36,37
 132 69.7083333333 132 69.7083333333 132 39 c 1,38,-1
 135 11 l 1,39,40
 135 -1 135 -1 100 -18 c 128,-1,41
 65 -35 65 -35 56 -35 c 128,-1,42
 47 -35 47 -35 45 -23 c 0,43,44
 31 49 31 49 -2.5 178.5 c 128,-1,45
 -36 308 -36 308 -58 408 c 128,-1,46
 -80 508 -80 508 -80 553.5 c 128,-1,47
 -80 599 -80 599 -76.5 628.5 c 128,-1,48
 -73 658 -73 658 -62 694 c 128,-1,49
 -51 730 -51 730 -33.5 757 c 128,-1,50
 -16 784 -16 784 15 802.5 c 128,-1,51
 46 821 46 821 87 821 c 0,52,53
 175 821 175 821 175 672 c 0,54,55
 175 507 175 507 79 216 c 1,56,-1
 118 66 l 1,57,58
 119 71 119 71 120.5 79.5 c 128,-1,59
 122 88 122 88 129 112.5 c 128,-1,60
 136 137 136 137 144.5 159 c 128,-1,61
 153 181 153 181 169 208 c 128,-1,62
 185 235 185 235 203 254.5 c 0,63,64
 245.923076923 301 245.923076923 301 306 301 c 0,65,66
 379 301 379 301 379 244 c 0,67,68
 379 199 379 199 339 152.5 c 128,-1,69
 299 106 299 106 257 106 c 1,8,-1
EndSplineSet
EndChar

StartChar: l
Encoding: 108 108 35
Width: 401
Flags: HMW
HStem: -45 62<111 290 191 290> 798 41<147.5 217.5>
VStem: -47 71<399.5 474.5> 273 75<635 713>
LayerCount: 2
Fore
SplineSet
273 677 m 0,0,1
 273 798 273 798 187 798 c 0,2,3
 111 798 111 798 67.5 696 c 128,-1,4
 24 594 24 594 24 437.5 c 128,-1,5
 24 281 24 281 80 160 c 1,6,7
 150 252 150 252 211.5 410.5 c 128,-1,8
 273 569 273 569 273 677 c 0,0,1
262 17 m 0,9,10
 306 17 306 17 351 42 c 128,-1,11
 396 67 396 67 424 110 c 1,12,-1
 431 98 l 1,13,14
 393 32 393 32 325.5 -6.5 c 128,-1,15
 258 -45 258 -45 194 -45 c 2,16,-1
 191 -45 l 2,17,18
 114 -45 114 -45 59 13.5 c 0,19,20
 -47 126.245454545 -47 126.245454545 -47 358 c 0,21,22
 -47 479 -47 479 -15.5 586 c 128,-1,23
 16 693 16 693 84 766 c 128,-1,24
 152 839 152 839 243 839 c 0,25,26
 348 839 348 839 348 711 c 0,27,28
 348 598 348 598 271.5 432 c 128,-1,29
 195 266 195 266 89 141 c 1,30,31
 154 17 154 17 262 17 c 0,9,10
EndSplineSet
EndChar

StartChar: m
Encoding: 109 109 36
Width: 687
Flags: HMW
HStem: -27 21G<303 349> -26 21G<516 572> -18 45 251 20G<434 453.5>
VStem: 1 95<169 173> 189 94<198.5 214> 373 98<191 218 187 226.5>
LayerCount: 2
Fore
SplineSet
98 234 m 2,0,-1
 96 208 l 1,1,2
 96 110.157894737 96 110.157894737 128 63 c 0,3,4
 147 35 147 35 175.5 35 c 128,-1,5
 204 35 204 35 213 69 c 1,6,7
 189 129 189 129 189 203 c 0,8,9
 189 234 189 234 269 234 c 0,10,11
 283 234 283 234 283 219 c 0,12,13
 283 169.125 283 169.125 293.5 120.5625 c 0,14,15
 313.72972973 27 313.72972973 27 377 27 c 0,16,17
 396 27 396 27 412 49 c 1,18,19
 373 116 373 116 373 213 c 0,20,21
 373 232 373 232 399.5 251.5 c 128,-1,22
 426 271 426 271 447 271 c 0,23,24
 471 271 471 271 471 192 c 0,25,26
 471 184 471 184 467 154 c 1,27,28
 484 93 484 93 510 57.5 c 128,-1,29
 536 22 536 22 584 22 c 0,30,31
 646 22 646 22 710 110 c 1,32,-1
 717 98 l 1,33,34
 639 -26 639 -26 545 -26 c 0,35,36
 467 -26 467 -26 422 34 c 1,37,38
 383 -27 383 -27 329 -27 c 0,39,40
 259 -27 259 -27 222 49 c 1,41,42
 210 24 210 24 185 3 c 128,-1,43
 160 -18 160 -18 125 -18 c 0,44,45
 72 -18 72 -18 36.5 36 c 128,-1,46
 1 90 1 90 1 173 c 1,47,-1
 3 202 l 2,48,49
 4 213 4 213 45 228 c 128,-1,50
 86 243 86 243 94 243 c 0,51,52
 98 243 98 243 98 234 c 2,0,-1
EndSplineSet
EndChar

StartChar: o
Encoding: 111 111 37
Width: 384
Flags: HMW
HStem: -40 57<134 144> 239 48<208 208.5 179.5 224>
VStem: 1 74<94.5 133.5> 133 55<187 204.5 170 229> 253 20<126.5 174>
LayerCount: 2
Fore
SplineSet
240 71 m 1,0,1
 253 100 253 100 253 144 c 128,-1,2
 253 188 253 188 241.5 213.5 c 128,-1,3
 230 239 230 239 215 239 c 0,4,5
 204 239 204 239 196 225 c 128,-1,6
 188 211 188 211 188 185.5 c 128,-1,7
 188 160 188 160 202 127 c 128,-1,8
 216 94 216 94 240 71 c 1,0,1
75 122 m 0,9,10
 75 78 75 78 98.5 47.5 c 128,-1,11
 122 17 122 17 160 17 c 128,-1,12
 198 17 198 17 222 44 c 1,13,14
 183 71 183 71 158 120 c 128,-1,15
 133 169 133 169 133 226 c 0,16,17
 133 232 133 232 135 242 c 1,18,19
 75 200 75 200 75 122 c 0,9,10
122 -40 m 0,20,21
 64 -40 64 -40 32.5 -1 c 128,-1,22
 1 38 1 38 1 98 c 128,-1,23
 1 158 1 158 39 208.5 c 128,-1,24
 77 259 77 259 143 262 c 1,25,26
 159 287 159 287 190.5 287 c 128,-1,27
 222 287 222 287 247.5 250.5 c 128,-1,28
 273 214 273 214 273 156 c 128,-1,29
 273 98 273 98 256 57 c 1,30,31
 281 39 281 39 308 39 c 0,32,33
 361 39 361 39 407 110 c 1,34,-1
 415 100 l 1,35,36
 366 20 366 20 296 20 c 0,37,38
 268 20 268 20 243 32 c 1,39,40
 221 -2 221 -2 188.5 -21 c 128,-1,41
 156 -40 156 -40 122 -40 c 0,20,21
EndSplineSet
EndChar

StartChar: p
Encoding: 112 112 38
Width: 433
Flags: HMW
HStem: -418 21G<106.5 114> -53 36<230.5 250.5> -53 57<170 250.5> 227 73<197.5 217.5> 282 20G<65 73>
VStem: 112 148<106.5 128> 260 74<106.5 244>
LayerCount: 2
Fore
SplineSet
118 20 m 1,0,-1
 145 47 l 2,1,2
 147 48 147 48 150.5 48 c 128,-1,3
 154 48 154 48 154 40 c 0,4,5
 154 4 154 4 185 4 c 1,6,7
 217 6 217 6 238.5 47.5 c 128,-1,8
 260 89 260 89 260 132.5 c 128,-1,9
 260 176 260 176 243.5 201.5 c 128,-1,10
 227 227 227 227 194 227 c 0,11,12
 112 227 112 227 112 91 c 0,13,14
 112 64 112 64 118 20 c 1,0,-1
233 -17 m 0,15,16
 288 -17 288 -17 353 17 c 128,-1,17
 418 51 418 51 456 110 c 1,18,-1
 463 98 l 1,19,20
 415 24 415 24 345 -14.5 c 128,-1,21
 275 -53 275 -53 213 -53 c 128,-1,22
 151 -53 151 -53 124 -21 c 1,23,24
 131 -70 131 -70 145.5 -154.5 c 0,25,26
 177 -338.068965517 177 -338.068965517 177 -359.534482759 c 128,-1,27
 177 -381 177 -381 171 -383.5 c 128,-1,28
 165 -386 165 -386 149.5 -396 c 0,29,30
 115.4 -418 115.4 -418 110 -418 c 0,31,32
 94 -418 94 -418 92 -390 c 0,33,34
 74.3214285714 -219.642857143 74.3214285714 -219.642857143 41.6607142857 -6.82142857143 c 128,-1,35
 9 206 9 206 8.5 219.5 c 128,-1,36
 8 233 8 233 34.5 267.5 c 128,-1,37
 61 302 61 302 74 301.5 c 128,-1,38
 87 301 87 301 87 276 c 1,39,-1
 104 152 l 1,40,41
 111.289256198 183.58677686 111.289256198 183.58677686 132.644628099 222.29338843 c 0,42,43
 175.517241379 300 175.517241379 300 254.75862069 300 c 128,-1,44
 334 300 334 300 334 221 c 0,45,46
 334 167 334 167 298 96.5 c 128,-1,47
 262 26 262 26 218 -16 c 1,48,49
 223 -17 223 -17 233 -17 c 0,15,16
EndSplineSet
EndChar

StartChar: q
Encoding: 113 113 39
Width: 504
Flags: HMW
HStem: -466 29<435.5 495> -28 65<56 184> 249 25<175.5 207>
VStem: -1 87<101 101.5> 229 70<201.5 254.5> 250 86 537 21<-353 -287>
LayerCount: 2
Fore
SplineSet
386 -20 m 1,0,1
 379 -21 379 -21 366.5 -21 c 128,-1,2
 354 -21 354 -21 336 -19 c 1,3,4
 348.047863248 -173.614245014 348.047863248 -173.614245014 378.5 -294.5 c 0,5,6
 395 -360 395 -360 422 -398.5 c 128,-1,7
 449 -437 449 -437 483 -437 c 0,8,9
 537 -437 537 -437 537 -345.5 c 128,-1,10
 537 -254 537 -254 494.5 -157 c 128,-1,11
 452 -60 452 -60 386 -20 c 1,0,1
258 274 m 0,12,13
 299 274 299 274 299 245 c 0,14,15
 299 223 299 223 276 207.5 c 128,-1,16
 253 192 253 192 238 192 c 0,17,18
 229 192 229 192 229 207 c 0,19,20
 229 249 229 249 190 249 c 0,21,22
 146 249 146 249 116 210 c 128,-1,23
 86 171 86 171 86 128.5 c 128,-1,24
 86 86 86 86 107.5 61.5 c 128,-1,25
 129 37 129 37 172 37 c 0,26,27
 194 37 194 37 219.5 63 c 128,-1,28
 245 89 245 89 248 130 c 1,29,30
 247 150 247 150 247 154 c 0,31,32
 247 163 247 163 262 169 c 2,33,-1
 311 189 l 2,34,35
 314 191 314 191 318 191 c 0,36,37
 327 191 327 191 327 176 c 0,38,39
 327 107 327 107 331 48 c 1,40,41
 371 45 371 45 406 22 c 1,42,43
 483 43 483 43 527 110 c 1,44,-1
 534 98 l 1,45,46
 497 35 497 35 437 -1 c 1,47,48
 493 -52 493 -52 525.5 -139.5 c 128,-1,49
 558 -227 558 -227 558 -303 c 128,-1,50
 558 -379 558 -379 533.5 -422.5 c 128,-1,51
 509 -466 509 -466 462 -466 c 0,52,53
 402.93877551 -466 402.93877551 -466 356 -408.5 c 0,54,55
 322.46051905 -367.414135837 322.46051905 -367.414135837 293.5 -269.5 c 0,56,57
 278.361445783 -218.317269076 278.361445783 -218.317269076 268.180722892 -143.658634538 c 128,-1,58
 258 -69 258 -69 255 -23.5 c 128,-1,59
 252 22 252 22 251.5 39.5 c 128,-1,60
 251 57 251 57 250 85 c 1,61,62
 233 35 233 35 188 3.5 c 128,-1,63
 143 -28 143 -28 93 -28 c 128,-1,64
 43 -28 43 -28 21 -4.5 c 128,-1,65
 -1 19 -1 19 -1 55 c 128,-1,66
 -1 91 -1 91 17 128.5 c 128,-1,67
 35 166 35 166 66.5 199 c 128,-1,68
 98 232 98 232 148.5 253 c 128,-1,69
 199 274 199 274 258 274 c 0,12,13
EndSplineSet
EndChar

StartChar: r
Encoding: 114 114 40
Width: 377
Flags: HMW
HStem: -37 58<165.5 279> 166 42<73.5 159> 166 131<50.5 80>
VStem: -5 80<260 268> 99 62<22.5 134.5>
LayerCount: 2
Fore
SplineSet
95 165 m 2,0,-1
 76 166 l 2,1,2
 66 166 66 166 62 157 c 0,3,4
 50 127 50 127 24 89 c 1,5,-1
 16 100 l 1,6,7
 36 127 36 127 47 168 c 1,8,9
 47 176 47 176 40 179 c 0,10,11
 -5 194 -5 194 -5 258 c 0,12,13
 -5 272 -5 272 19 284.5 c 128,-1,14
 43 297 43 297 59 297 c 128,-1,15
 75 297 75 297 75 283 c 0,16,17
 75 208 75 208 145 208 c 0,18,19
 162 208 162 208 172.5 211.5 c 128,-1,20
 183 215 183 215 184 215 c 0,21,22
 194 215 194 215 194 200.5 c 128,-1,23
 194 186 194 186 186.5 180.5 c 128,-1,24
 179 175 179 175 170 157.5 c 128,-1,25
 161 140 161 140 161 117 c 0,26,27
 161 72 161 72 187.5 46.5 c 128,-1,28
 214 21 214 21 253.5 21 c 128,-1,29
 293 21 293 21 332 44 c 128,-1,30
 371 67 371 67 400 110 c 1,31,-1
 407 98 l 1,32,33
 372 37 372 37 310 0 c 128,-1,34
 248 -37 248 -37 199 -37 c 0,35,36
 99 -37 99 -37 99 54 c 0,37,38
 99 71 99 71 111 100 c 128,-1,39
 123 129 123 129 135 149 c 2,40,-1
 147 169 l 1,41,42
 147 173 147 173 144 173 c 0,43,44
 112 165 112 165 95 165 c 2,0,-1
EndSplineSet
EndChar

StartChar: s
Encoding: 115 115 41
Width: 303
Flags: HMW
HStem: -40 44<107.5 129.5 107.5 152> 288 20G<70 80.5>
VStem: 16 72<198.5 296.5> 161 48
LayerCount: 2
Fore
SplineSet
326 110 m 1,0,-1
 333 98 l 1,1,2
 291 31 291 31 232 -4.5 c 128,-1,3
 173 -40 173 -40 120.5 -40 c 0,4,5
 12.7555555556 -40 12.7555555556 -40 -22 52 c 1,6,7
 -22 57 -22 57 1 85 c 128,-1,8
 24 113 24 113 31.5 113 c 128,-1,9
 39 113 39 113 40 108 c 0,10,11
 46 76 46 76 73.5 40 c 128,-1,12
 101 4 101 4 124 4 c 0,13,14
 160 4 160 4 161 24 c 1,15,16
 161 54.962962963 161 54.962962963 88 118.5 c 0,17,18
 61 142 61 142 38.5 179.5 c 128,-1,19
 16 217 16 217 16 257 c 0,20,21
 16 265 16 265 19 268 c 0,22,23
 63 308 63 308 77 308 c 0,24,25
 88 308 88 308 88 291 c 0,26,27
 89 254 89 254 119.5 214.5 c 128,-1,28
 150 175 150 175 179.5 139 c 128,-1,29
 209 103 209 103 209 67.5 c 128,-1,30
 209 32 209 32 174 4 c 1,31,32
 256 6 256 6 326 110 c 1,0,-1
EndSplineSet
EndChar

StartChar: t
Encoding: 116 116 42
Width: 316
Flags: HMW
HStem: -42 54<154 194> 646 20G<328 332.5>
VStem: -27 90
LayerCount: 2
Fore
SplineSet
63 482 m 1,0,1
 79.3953488372 12 79.3953488372 12 208 12 c 0,2,3
 263 12 263 12 340 110 c 1,4,-1
 347 98 l 1,5,6
 253 -42 253 -42 167.5 -42 c 128,-1,7
 82 -42 82 -42 29 88.5 c 128,-1,8
 -24 219 -24 219 -27 436 c 1,9,10
 -151.090909091 371 -151.090909091 371 -159 371 c 0,11,12
 -172 371 -172 371 -172 385 c 128,-1,13
 -172 399 -172 399 -158 407 c 2,14,-1
 -27 477 l 1,15,16
 -25 553 -25 553 -20 621 c 0,17,18
 -20 630 -20 630 -11 633 c 0,19,20
 49 657 49 657 56.5 657 c 128,-1,21
 64 657 64 657 64 648 c 0,22,23
 62 598 62 598 62 557 c 2,24,-1
 62 525 l 1,25,-1
 114 553 l 2,26,27
 325 666 325 666 330.5 666 c 128,-1,28
 336 666 336 666 339 663 c 0,29,30
 361 641 361 641 361 638 c 128,-1,31
 361 635 361 635 355 630.5 c 128,-1,32
 349 626 349 626 310.5 606.5 c 128,-1,33
 272 587 272 587 195.5 549 c 128,-1,34
 119 511 119 511 63 482 c 1,0,1
EndSplineSet
EndChar

StartChar: u
Encoding: 117 117 43
Width: 512
Flags: HMW
HStem: -42 47<364.5 380> -25 59<148.5 163.5> 240 20G<71.5 92>
VStem: 1 97<107.5 240.5> 217 81<137.5 168>
LayerCount: 2
Fore
SplineSet
221 222 m 1,0,1
 221 231 221 231 230 234 c 0,2,3
 290 258 290 258 297.5 258 c 128,-1,4
 305 258 305 258 305 249 c 1,5,6
 298 210 298 210 298 171 c 0,7,8
 298 96 298 96 324 50.5 c 128,-1,9
 350 5 350 5 393 5 c 0,10,11
 459 5 459 5 535 110 c 1,12,-1
 542 98 l 1,13,14
 498 29 498 29 447.5 -6.5 c 128,-1,15
 397 -42 397 -42 350 -42 c 0,16,17
 278 -42 278 -42 241 33 c 1,18,19
 202 -25 202 -25 140.5 -25 c 128,-1,20
 79 -25 79 -25 40 28.5 c 128,-1,21
 1 82 1 82 1 155 c 0,22,23
 1 226.193548387 1 226.193548387 32.5 245.5 c 0,24,25
 56.1578947368 260 56.1578947368 260 89 260 c 0,26,27
 98 260 98 260 98 224 c 128,-1,28
 98 188 98 188 84 146 c 1,29,30
 98.2320441989 74.8397790055 98.2320441989 74.8397790055 147.5 46 c 0,31,32
 168 34 168 34 190.5 34 c 128,-1,33
 213 34 213 34 233 53 c 1,34,35
 217 99 217 99 217 145 c 128,-1,36
 217 191 217 191 221 222 c 1,0,1
EndSplineSet
EndChar

StartChar: v
Encoding: 118 118 44
Width: 287
Flags: HMW
HStem: -35 21G<70.5 78> 300 20G<157.5 189.5>
VStem: 116 30<183 198 158.5 238> 186 20<216 285.5>
LayerCount: 2
Fore
SplineSet
172 268 m 0,0,1
 161 268 161 268 153.5 239.5 c 128,-1,2
 146 211 146 211 146 166 c 128,-1,3
 146 121 146 121 158 89 c 1,4,5
 186 181 186 181 186 224.5 c 128,-1,6
 186 268 186 268 172 268 c 0,0,1
131 24 m 1,7,8
 139.545454545 34.6818181818 139.545454545 34.6818181818 150 65 c 1,9,10
 116 125 116 125 116 208 c 0,11,12
 116 257 116 257 132 288.5 c 128,-1,13
 148 320 148 320 180 320 c 0,14,15
 206 320 206 320 206 263.5 c 128,-1,16
 206 207 206 207 164 75 c 1,17,18
 181 40 181 40 211 40 c 0,19,20
 266 40 266 40 309 110 c 1,21,-1
 317 100 l 1,22,23
 272 23 272 23 204 23 c 0,24,25
 180 23 180 23 157 54 c 1,26,-1
 139 1 l 1,27,28
 139 -8 139 -8 131.5 -10 c 128,-1,29
 124 -12 124 -12 101 -23.5 c 128,-1,30
 78 -35 78 -35 73 -35 c 0,31,32
 65 -35 65 -35 61 -23 c 0,33,34
 13.3904448105 144.886326194 13.3904448105 144.886326194 -22.5 204 c 0,35,36
 -31 218 -31 218 -34.5 223.5 c 128,-1,37
 -38 229 -38 229 -37.5 235 c 128,-1,38
 -37 241 -37 241 -15.5 253.5 c 128,-1,39
 6 266 6 266 20 266 c 1,40,41
 40 264 40 264 59.5 224.5 c 128,-1,42
 79 185 79 185 102 109.5 c 128,-1,43
 125 34 125 34 127 29 c 128,-1,44
 129 24 129 24 131 24 c 1,7,8
EndSplineSet
EndChar

StartChar: h
Encoding: 104 104 45
Width: 458
Flags: HMW
HStem: -41 51<322.5 330.5> 750 53<42 53>
VStem: -75 56<475.5 678.5> 109 62<407.5 668.5> 194 79<155 161.5 106 172 106 172>
LayerCount: 2
Fore
SplineSet
79 218 m 1,0,1
 109 311 109 311 109 441 c 128,-1,2
 109 571 109 571 86.5 660.5 c 128,-1,3
 64 750 64 750 27 750 c 0,4,5
 8 750 8 750 -5.5 721.5 c 128,-1,6
 -19 693 -19 693 -19 645 c 0,7,8
 -19 562 -19 562 79 218 c 1,0,1
194 172 m 1,9,10
 145.047619048 37.380952381 145.047619048 37.380952381 143 21 c 1,11,12
 143 0 143 0 133.643625382 -4.2190310727 c 128,-1,13
 124.287250764 -8.43806214541 124.287250764 -8.43806214541 99.2721197423 -19.1929216825 c 2,14,-1
 72 -32 l 1,15,16
 62 -32 62 -32 58.5 -19.5 c 128,-1,17
 55 -7 55 -7 39 48.5 c 128,-1,18
 23 104 23 104 14 135.5 c 128,-1,19
 5 167 5 167 -10.5 223.5 c 128,-1,20
 -26 280 -26 280 -35.5 317.5 c 128,-1,21
 -45 355 -45 355 -55 397.5 c 0,22,23
 -75 482.5 -75 482.5 -75 511 c 0,24,25
 -75 632 -75 632 -26.5 717.5 c 128,-1,26
 22 803 22 803 75 803 c 0,27,28
 171 803 171 803 171 615 c 0,29,30
 171 517 171 517 146 396.5 c 128,-1,31
 121 276 121 276 87 192 c 1,32,-1
 132 44 l 1,33,34
 134 44 134 44 158 115.5 c 128,-1,35
 182 187 182 187 183 197 c 1,36,37
 188 216 188 216 207 222 c 0,38,39
 217.933333333 224.733333333 217.933333333 224.733333333 245.966666667 235.366666667 c 128,-1,40
 274 246 274 246 275 246 c 0,41,42
 282 246 282 246 282 237 c 1,43,44
 273 189 273 189 273 136.5 c 128,-1,45
 273 84 273 84 292 47 c 128,-1,46
 311 10 311 10 346 10 c 0,47,48
 404 10 404 10 481 110 c 1,49,-1
 488 98 l 1,50,51
 442 30 442 30 393.5 -5.5 c 128,-1,52
 345 -41 345 -41 299.5 -41 c 128,-1,53
 254 -41 254 -41 224 9 c 128,-1,54
 194 59 194 59 194 155 c 2,55,-1
 194 172 l 1,9,10
EndSplineSet
EndChar

StartChar: i
Encoding: 105 105 46
Width: 312
Flags: HMW
HStem: -45 48<163 176.5> 340 116<52.5 81>
VStem: 15 104<382 414>
LayerCount: 2
Fore
SplineSet
20 224 m 1,0,1
 15 182 15 182 15 155 c 0,2,3
 15 60 15 60 51.5 7.5 c 128,-1,4
 88 -45 88 -45 140.5 -45 c 0,5,6
 193 -45 193 -45 245 -8.5 c 128,-1,7
 297 28 297 28 342 98 c 1,8,-1
 335 110 l 1,9,10
 257 3 257 3 191 3 c 0,11,12
 149 3 149 3 123 48 c 128,-1,13
 97 93 97 93 97 170 c 0,14,15
 97 210 97 210 104 251 c 1,16,17
 104 260 104 260 96.5 260 c 0,18,19
 89 260 89 260 29 236 c 0,20,21
 20 233 20 233 20 224 c 1,0,1
119 398 m 128,-1,23
 119 374 119 374 103.5 357 c 128,-1,24
 88 340 88 340 66.5 340 c 0,25,26
 45 340 45 340 30 357 c 128,-1,27
 15 374 15 374 15 398 c 128,-1,28
 15 422 15 422 30 439 c 128,-1,29
 45 456 45 456 66.5 456 c 0,30,31
 88 456 88 456 103.5 439 c 128,-1,22
 119 422 119 422 119 398 c 128,-1,23
EndSplineSet
EndChar

StartChar: w
Encoding: 119 119 47
Width: 601
Flags: HMW
HStem: -46 54<378 399> -8 48<83.5 183.5> 23 234<399.5 539> 210 47<421 442.5 399.5 446> 238 20G<81 85>
VStem: 1 85<168 237.5> 219 79<137 190> 371 42<176.5 197.5 171.5 220.5> 489 20<98 130>
LayerCount: 2
Fore
SplineSet
413 192 m 0,0,1
 413 159 413 159 432.5 117.5 c 128,-1,2
 452 76 452 76 482 55 c 1,3,4
 489 75 489 75 489 110.5 c 128,-1,5
 489 146 489 146 472 178 c 128,-1,6
 455 210 455 210 425 210 c 0,7,8
 413 210 413 210 413 192 c 0,0,1
367 -46 m 0,9,10
 303.2 -46 303.2 -46 259 25.5 c 0,11,12
 242 53 242 53 232 90 c 1,13,14
 229.166666667 78.6666666667 229.166666667 78.6666666667 218.083333333 58.8333333333 c 128,-1,15
 207 39 207 39 195.5 26.5 c 0,16,17
 163.76 -8 163.76 -8 122 -8 c 0,18,19
 63 -8 63 -8 32.5 47 c 128,-1,20
 2 102 2 102 1 224 c 0,21,22
 1 241 1 241 34 249.5 c 128,-1,23
 67 258 67 258 84 258 c 0,24,25
 89 258 89 258 89 248 c 1,26,27
 86 228.5 86 228.5 86 199.75 c 128,-1,28
 86 171 86 171 89 147 c 128,-1,29
 92 123 92 123 100 97 c 128,-1,30
 108 71 108 71 125 55.5 c 128,-1,31
 142 40 142 40 167 40 c 128,-1,32
 192 40 192 40 206 62 c 128,-1,33
 220 84 220 84 220 107.5 c 128,-1,34
 220 131 220 131 219 137 c 1,35,36
 219 156 219 156 246 177 c 128,-1,37
 273 198 273 198 285.5 198 c 128,-1,38
 298 198 298 198 298 183 c 0,39,40
 298 102.838709677 298 102.838709677 351 43 c 0,41,42
 382 8 382 8 427 8 c 0,43,44
 456 8 456 8 472 35 c 1,45,46
 430 57 430 57 400.5 108.5 c 128,-1,47
 371 160 371 160 371 206 c 0,48,49
 371 229 371 229 382 243 c 128,-1,50
 393 257 393 257 414 257 c 0,51,52
 455 257 455 257 482 212.5 c 128,-1,53
 509 168 509 168 509 121 c 128,-1,54
 509 74 509 74 499 45 c 1,55,56
 512 40 512 40 526 40 c 0,57,58
 581 40 581 40 624 110 c 1,59,-1
 632 100 l 1,60,61
 587 23 587 23 519 23 c 0,62,63
 503 23 503 23 491 27 c 1,64,65
 454 -46 454 -46 367 -46 c 0,9,10
EndSplineSet
EndChar

StartChar: x
Encoding: 120 120 48
Width: 336
Flags: HMW
HStem: -98 21G<-9.5 -4> -17 56<219.5 220> 240 20G<70 72.5>
VStem: -6 84<219 224 224 226>
LayerCount: 2
Fore
SplineSet
-6 219 m 2,0,-1
 -6 224 l 2,1,2
 -6 233 -6 233 3 236 c 0,3,4
 63 260 63 260 70.5 260 c 128,-1,5
 78 260 78 260 78 251 c 0,6,7
 78 161 78 161 121 103 c 1,8,9
 210 212 210 212 219.5 220 c 128,-1,10
 229 228 229 228 240 228 c 128,-1,11
 251 228 251 228 251 222 c 128,-1,12
 251 216 251 216 247.5 212.5 c 128,-1,13
 244 209 244 209 233 196.5 c 128,-1,14
 222 184 222 184 209.5 169.5 c 0,15,16
 164.708333333 117.541666667 164.708333333 117.541666667 137 84 c 1,17,18
 180 39 180 39 238 39 c 0,19,20
 308 39 308 39 359 110 c 1,21,-1
 366 98 l 1,22,23
 333 41 333 41 285.5 12 c 128,-1,24
 238 -17 238 -17 184.5 -17 c 128,-1,25
 131 -17 131 -17 83 17 c 1,26,27
 32 -51 32 -51 8 -91 c 0,28,29
 3 -98 3 -98 -7 -98 c 128,-1,30
 -17 -98 -17 -98 -17 -85.5 c 128,-1,31
 -17 -73 -17 -73 64 32 c 1,32,33
 -6 97 -6 97 -6 219 c 2,0,-1
EndSplineSet
EndChar

StartChar: y
Encoding: 121 121 49
Width: 447
Flags: HMW
HStem: -602 43<350.5 370> -13 59<149 162> 249 20G<285.5 291.5>
VStem: 2 83<189 210.5> 165 71<-388.5 -360> 220 79<164 260> 412 44<-476 -459>
LayerCount: 2
Fore
SplineSet
236 -330 m 0,0,1
 236 -413 236 -413 285 -486 c 128,-1,2
 334 -559 334 -559 376 -559 c 0,3,4
 412 -559 412 -559 412 -495 c 0,5,6
 412 -447.923076923 412 -447.923076923 377 -351 c 0,7,8
 364 -315 364 -315 338 -244.5 c 128,-1,9
 312 -174 312 -174 297 -131 c 1,10,11
 236 -224 236 -224 236 -330 c 0,0,1
456 -407 m 0,12,13
 456 -505 456 -505 423 -553.5 c 128,-1,14
 390 -602 390 -602 339 -602 c 0,15,16
 274 -602 274 -602 219.5 -532.5 c 128,-1,17
 165 -463 165 -463 165 -360 c 1,18,19
 172 -289 172 -289 203.5 -229 c 128,-1,20
 235 -169 235 -169 288 -105 c 1,21,22
 254 -12 254 -12 241 42 c 1,23,24
 198 -13 198 -13 142 -13 c 128,-1,25
 86 -13 86 -13 44 44 c 128,-1,26
 2 101 2 101 2 208 c 0,27,28
 2 219 2 219 18 223 c 0,29,30
 66 233 66 233 73 233 c 0,31,32
 85 233 85 233 85 221 c 0,33,34
 85 130.078431373 85 130.078431373 126.5 78 c 0,35,36
 152 46 152 46 191 46 c 0,37,38
 212 46 212 46 235 65 c 1,39,40
 220 132 220 132 220 177.5 c 128,-1,41
 220 223 220 223 241 244 c 1,42,43
 284 269 284 269 289 269 c 0,44,45
 299 269 299 269 299 254 c 0,46,47
 299 145 299 145 339 24 c 1,48,-1
 356 -29 l 1,49,50
 431 52 431 52 470 110 c 1,51,-1
 477 98 l 1,52,53
 453 60 453 60 433 36 c 128,-1,54
 413 12 413 12 390.5 -14 c 128,-1,55
 368 -40 368 -40 362 -47 c 1,56,57
 435.25 -256.285714286 435.25 -256.285714286 442.125 -291.642857143 c 0,58,59
 456 -363 456 -363 456 -407 c 0,12,13
EndSplineSet
EndChar

StartChar: z
Encoding: 122 122 50
Width: 408
Flags: HMW
HStem: -529 40<264 283.5> 194 36<158 163> 319 20G<59.5 77>
VStem: 4 80<296 310> 126 71<-379 -360> 331 68<-401 -358.5>
LayerCount: 2
Fore
SplineSet
331 -399 m 0,0,1
 331 -249 331 -249 259 -130 c 1,2,3
 197 -222 197 -222 197 -330 c 0,4,5
 197 -399 197 -399 224.5 -444 c 128,-1,6
 252 -489 252 -489 283 -489 c 0,7,8
 304 -489 304 -489 317.5 -466 c 128,-1,9
 331 -443 331 -443 331 -399 c 0,0,1
186 191 m 1,10,11
 186 195 186 195 179 194.5 c 128,-1,12
 172 194 172 194 140 194 c 128,-1,13
 108 194 108 194 75 205 c 1,14,15
 75 200.545454545 75 200.545454545 65 173.272727273 c 0,16,17
 44.2 116.545454545 44.2 116.545454545 24 89 c 1,18,-1
 16 100 l 1,19,20
 32 119 32 119 44 157 c 128,-1,21
 56 195 56 195 57 213 c 1,22,23
 4 240 4 240 4 300 c 0,24,25
 4 314 4 314 28 326.5 c 128,-1,26
 52 339 52 339 68 339 c 128,-1,27
 84 339 84 339 84 325 c 2,28,-1
 84 313 l 2,29,30
 84 286 84 286 115.5 258 c 128,-1,31
 147 230 147 230 184 230 c 0,32,33
 201 230 201 230 211.5 233.5 c 128,-1,34
 222 237 222 237 223 237 c 0,35,36
 233 237 233 237 233 222.5 c 128,-1,37
 233 208 233 208 226 203 c 0,38,39
 197.826086957 187.347826087 197.826086957 187.347826087 173.913043478 152.673913043 c 128,-1,40
 150 118 150 118 146 86 c 1,41,42
 239 18 239 18 295 -53 c 1,43,44
 397 60 397 60 431 110 c 1,45,-1
 438 98 l 1,46,47
 405.991304348 48.2086956522 405.991304348 48.2086956522 360.495652174 -4.39565217391 c 128,-1,48
 315 -57 315 -57 306 -68 c 1,49,50
 399 -193 399 -193 399 -343 c 0,51,52
 399 -426 399 -426 352.5 -477.5 c 128,-1,53
 306 -529 306 -529 251 -529 c 128,-1,54
 196 -529 196 -529 161 -486 c 128,-1,55
 126 -443 126 -443 126 -360 c 1,56,57
 138 -238 138 -238 246 -109 c 1,58,59
 194 -34 194 -34 120 8 c 0,60,61
 107 15 107 15 107 41 c 128,-1,62
 107 67 107 67 126.5 106 c 128,-1,63
 146 145 146 145 163.5 166 c 128,-1,64
 181 187 181 187 186 191 c 1,10,11
EndSplineSet
EndChar

StartChar: n
Encoding: 110 110 52
Width: 500
Flags: HMW
HStem: -35 21G<45.5 60.5> -26 48<349 388> 251 20G<255.5 265.5>
VStem: -10 80<216.5 227>
LayerCount: 2
Fore
SplineSet
71 255 m 2,0,-1
 70 231 l 1,1,2
 70 160 70 160 107 9 c 1,3,4
 166 223 166 223 209 246 c 1,5,6
 238 271 238 271 263 271 c 0,7,8
 271 271 271 271 271 262 c 128,-1,9
 271 253 271 253 260 238 c 1,10,11
 264 225 264 225 271.5 196 c 128,-1,12
 279 167 279 167 284.5 147 c 128,-1,13
 290 127 290 127 301 101.5 c 128,-1,14
 312 76 312 76 324 60.5 c 0,15,16
 353.806451613 22 353.806451613 22 400 22 c 0,17,18
 462 22 462 22 526 110 c 1,19,-1
 533 98 l 1,20,21
 455 -26 455 -26 361 -26 c 0,22,23
 314 -26 314 -26 279 -4.5 c 128,-1,24
 244 17 244 17 226 53 c 0,25,26
 193.125 118.75 193.125 118.75 189 193 c 1,27,28
 152.145695364 126.662251656 152.145695364 126.662251656 122 15.5 c 0,29,30
 114 -14 114 -14 107 -18 c 1,31,32
 92 -35 92 -35 62 -35 c 128,-1,33
 32 -35 32 -35 32 -28 c 0,34,35
 30 -12 30 -12 18.5 38.5 c 0,36,37
 -10 163.652173913 -10 163.652173913 -10 208.326086957 c 128,-1,38
 -10 253 -10 253 2 261 c 128,-1,39
 14 269 14 269 40 269 c 128,-1,40
 66 269 66 269 70 262 c 0,41,42
 71 260 71 260 71 255 c 2,0,-1
EndSplineSet
EndChar

StartChar: fi
Encoding: 64257 64257 53
Width: 568
Flags: HMW
HStem: -414 21G<133.5 136> -176 54<-138 -113> -45 48<419 432.5> 340 116<308.5 337> 791 30<26 52.5>
VStem: -78 63<643 673.5> 103 53<563 584> 271 82<145.5 165.5> 271 104<382 414>
LayerCount: 2
Fore
SplineSet
-58 -146 m 1,0,1
 -85 -134 -85 -134 -113.5 -134 c 128,-1,2
 -142 -134 -142 -134 -142 -142.5 c 128,-1,3
 -142 -151 -142 -151 -114 -151 c 128,-1,4
 -86 -151 -86 -151 -58 -146 c 1,0,1
375 398 m 128,-1,6
 375 374 375 374 359.5 357 c 128,-1,7
 344 340 344 340 322.5 340 c 128,-1,8
 301 340 301 340 286 357 c 128,-1,9
 271 374 271 374 271 398 c 128,-1,10
 271 422 271 422 286 439 c 128,-1,11
 301 456 301 456 322.5 456 c 128,-1,12
 344 456 344 456 359.5 439 c 128,-1,5
 375 422 375 422 375 398 c 128,-1,6
122 -335 m 1,13,14
 110 -259 110 -259 76 -110 c 1,15,16
 29 -140 29 -140 -20 -157 c 1,17,18
 56 -210 56 -210 119 -340 c 1,19,-1
 122 -335 l 1,13,14
83.5 711 m 128,-1,21
 64 791 64 791 24.5 791 c 128,-1,22
 -15 791 -15 791 -15 689 c 128,-1,23
 -15 587 -15 587 77 232 c 1,24,25
 103 351 103 351 103 491 c 128,-1,20
 103 631 103 631 83.5 711 c 128,-1,21
276 224 m 1,26,27
 276 233 276 233 285 236 c 0,28,29
 345 260 345 260 352.5 260 c 128,-1,30
 360 260 360 260 360 251 c 1,31,32
 353 210 353 210 353 170 c 0,33,34
 353 93 353 93 379 48 c 128,-1,35
 405 3 405 3 447 3 c 0,36,37
 513 3 513 3 591 110 c 1,38,-1
 598 98 l 1,39,40
 553 28 553 28 501 -8.5 c 128,-1,41
 449 -45 449 -45 402.5 -45 c 128,-1,42
 356 -45 356 -45 323 -11.5 c 128,-1,43
 290 22 290 22 277 85 c 1,44,45
 226 12 226 12 151 -54 c 1,46,47
 203 -269 203 -269 203 -367 c 0,48,49
 203 -374 203 -374 197.5 -375 c 128,-1,50
 192 -376 192 -376 169 -391.5 c 128,-1,51
 146 -407 146 -407 142.5 -410.5 c 128,-1,52
 139 -414 139 -414 134.5 -414 c 128,-1,53
 130 -414 130 -414 127 -406 c 0,54,55
 58 -219 58 -219 -31 -160 c 1,56,57
 -82 -176 -82 -176 -114.5 -176 c 0,58,59
 -182 -176 -182 -176 -182 -152 c 0,60,61
 -182 -141 -182 -141 -165 -131.5 c 128,-1,62
 -148 -122 -148 -122 -113.5 -122 c 128,-1,63
 -79 -122 -79 -122 -42 -142 c 1,64,65
 12 -128 12 -128 71 -92 c 1,66,67
 58 -41 58 -41 23 95.5 c 128,-1,68
 -12 232 -12 232 -28.5 301.5 c 0,69,70
 -78 510 -78 510 -78 608.5 c 128,-1,71
 -78 707 -78 707 -37.5 764 c 128,-1,72
 3 821 3 821 78 821 c 0,73,74
 156 821 156 821 156 631 c 0,75,76
 156 533 156 533 135.5 412.5 c 128,-1,77
 115 292 115 292 86 202 c 1,78,-1
 147 -36 l 1,79,80
 227 30 227 30 274 102 c 1,81,82
 271 128 271 128 271 155 c 128,-1,83
 271 182 271 182 276 224 c 1,26,27
EndSplineSet
EndChar

StartChar: fl
Encoding: 64258 64258 54
Width: 657
Flags: HMW
HStem: -414 21G<133.5 136> -176 25<-116.5 -113.5> -176 54<-138 -113.5> -45 62<410 546 446 546> 798 23 798 41<403.5 471>
VStem: 209 71<401 473.5> 523 75<640.5 713.5>
LayerCount: 2
Fore
SplineSet
-57 -146 m 1,0,1
 -84 -134 -84 -134 -113 -134 c 128,-1,2
 -142 -134 -142 -134 -142 -142.5 c 128,-1,3
 -142 -151 -142 -151 -113.5 -151 c 128,-1,4
 -85 -151 -85 -151 -57 -146 c 1,0,1
122 -335 m 1,5,6
 108 -243 108 -243 76 -113 c 1,7,8
 36 -137 36 -137 -19 -157 c 1,9,10
 56 -210 56 -210 119 -340 c 1,11,-1
 122 -335 l 1,5,6
83.5 711 m 128,-1,13
 64 791 64 791 24.5 791 c 128,-1,14
 -15 791 -15 791 -15 689 c 128,-1,15
 -15 587 -15 587 77 232 c 1,16,17
 103 351 103 351 103 491 c 128,-1,12
 103 631 103 631 83.5 711 c 128,-1,13
323.5 696 m 128,-1,19
 280 594 280 594 280 440.5 c 128,-1,20
 280 287 280 287 332 168 c 1,21,22
 418 298 418 298 470.5 439 c 128,-1,23
 523 580 523 580 523 677 c 0,24,25
 523 798 523 798 443 798 c 0,26,18
 367 798 367 798 323.5 696 c 128,-1,19
156 631 m 0,27,28
 156 533 156 533 135.5 412.5 c 128,-1,29
 115 292 115 292 86 202 c 1,30,31
 112.25 107.5 112.25 107.5 148 -42 c 1,32,33
 214 13 214 13 267 79 c 1,34,35
 209 191 209 191 209 357 c 0,36,37
 209 478 209 478 240.5 585.5 c 128,-1,38
 272 693 272 693 340 766 c 128,-1,39
 408 839 408 839 499 839 c 0,40,41
 598 839 598 839 598 712 c 0,42,43
 598 604 598 604 528 443 c 128,-1,44
 458 282 458 282 347 138 c 1,45,46
 412 17 412 17 518 17 c 0,47,48
 562 17 562 17 607 42 c 128,-1,49
 652 67 652 67 680 110 c 1,50,-1
 687 98 l 1,51,52
 649 32 649 32 581.5 -6.5 c 128,-1,53
 514 -45 514 -45 450 -45 c 2,54,-1
 446 -45 l 2,55,56
 344 -45 344 -45 280 57 c 1,57,58
 219 -10 219 -10 153 -61 c 1,59,60
 203 -271 203 -271 203 -367 c 0,61,62
 203 -374 203 -374 197.5 -375 c 128,-1,63
 192 -376 192 -376 169 -391.5 c 128,-1,64
 146 -407 146 -407 142.5 -410.5 c 128,-1,65
 139 -414 139 -414 134.5 -414 c 128,-1,66
 130 -414 130 -414 127 -406 c 0,67,68
 58 -220 58 -220 -31 -161 c 1,69,70
 -86 -176 -86 -176 -116.5 -176 c 0,71,72
 -182 -176 -182 -176 -182 -152 c 0,73,74
 -182 -141 -182 -141 -165 -131.5 c 128,-1,75
 -148 -122 -148 -122 -114.5 -122 c 128,-1,76
 -81 -122 -81 -122 -42 -143 c 1,77,78
 15 -130 15 -130 72 -96 c 1,79,80
 59 -45 59 -45 24 91.5 c 128,-1,81
 -11 228 -11 228 -28 299 c 0,82,83
 -78 507.823529412 -78 507.823529412 -78 607.411764706 c 128,-1,84
 -78 707 -78 707 -37.5 764 c 128,-1,85
 3 821 3 821 78 821 c 0,86,87
 156 821 156 821 156 631 c 0,27,28
EndSplineSet
EndChar

StartChar: ae
Encoding: 230 230 55
Width: 520
Flags: HMW
HStem: -45 62<283 409> -19 56<55.5 159> 167 47 279 73<344.5 361.5> 321 31<290 370>
VStem: 0 94<90.5 91.5> 167 70<240 252.5> 167 231<193 334.5> 207 78<45 150 47 150>
LayerCount: 2
Fore
SplineSet
333 296 m 1,0,-1
 334 309 l 2,1,2
 334 321 334 321 307 321 c 128,-1,3
 280 321 280 321 258.5 305 c 128,-1,4
 237 289 237 289 237 262 c 0,5,6
 237 214 237 214 306 214 c 0,7,8
 317 214 317 214 328.5 217.5 c 128,-1,9
 340 221 340 221 352 221 c 128,-1,10
 364 221 364 221 364 213 c 0,11,12
 364 212 364 212 356 208.5 c 128,-1,13
 348 205 348 205 336 198 c 128,-1,14
 324 191 324 191 312.5 180 c 0,15,16
 285 153.695652174 285 153.695652174 285 108.847826087 c 128,-1,17
 285 64 285 64 312 40.5 c 128,-1,18
 339 17 339 17 382 17 c 128,-1,19
 425 17 425 17 470 42 c 128,-1,20
 515 67 515 67 543 110 c 1,21,-1
 550 98 l 1,22,23
 512 32 512 32 444.5 -6.5 c 128,-1,24
 377 -45 377 -45 321.5 -45 c 128,-1,25
 266 -45 266 -45 236.5 -22 c 128,-1,26
 207 1 207 1 207 45 c 2,27,-1
 207 47 l 1,28,29
 190 23 190 23 154 2 c 128,-1,30
 118 -19 118 -19 87 -19 c 0,31,32
 0 -19 0 -19 0 54 c 0,33,34
 0 111 0 111 48.5 173.5 c 128,-1,35
 97 236 97 236 144 236 c 0,36,37
 148 236 148 236 148 233 c 128,-1,38
 148 230 148 230 144 226 c 1,39,40
 123 215 123 215 108.5 180.5 c 128,-1,41
 94 146 94 146 94 110 c 0,42,43
 94 37 94 37 150 37 c 0,44,45
 164 37 164 37 183 49 c 128,-1,46
 202 61 202 61 212 78 c 1,47,48
 219 100 219 100 235.5 122.5 c 0,49,50
 256.230769231 150.769230769 256.230769231 150.769230769 281 172 c 0,51,52
 283 174 283 174 283 176.5 c 128,-1,53
 283 179 283 179 282 179 c 0,54,55
 250 167 250 167 220 167 c 0,56,57
 167 167 167 167 167 210 c 0,58,59
 167 268 167 268 233 310 c 128,-1,60
 299 352 299 352 348.5 352 c 128,-1,61
 398 352 398 352 398 328 c 0,62,63
 398 313 398 313 382 296 c 128,-1,64
 366 279 366 279 353 279 c 0,65,66
 333 279 333 279 333 296 c 1,0,-1
EndSplineSet
EndChar

StartChar: oe
Encoding: 339 339 56
Width: 583
Flags: HMW
HStem: -45 62 279 73<407.5 424.5> 321 31<353 433>
VStem: 1 74<94.5 133.5> 133 55<187 204.5 170 229> 253 20<126.5 145> 270 78<48 150>
LayerCount: 2
Fore
SplineSet
272 167 m 1,0,-1
 273 143 l 1,1,2
 273 98 273 98 256 57 c 1,3,-1
 270 48 l 1,4,5
 271 76 271 76 289 106.5 c 128,-1,6
 307 137 307 137 320 150 c 128,-1,7
 333 163 333 163 339.5 168.5 c 128,-1,8
 346 174 346 174 346 176.5 c 128,-1,9
 346 179 346 179 345 179 c 0,10,11
 313 167 313 167 283 167 c 2,12,-1
 272 167 l 1,0,-1
240 71 m 1,13,14
 253 100 253 100 253 126.5 c 128,-1,15
 253 153 253 153 251 173 c 1,16,17
 230 184 230 184 230 210 c 0,18,19
 230 223 230 223 232 229 c 1,20,21
 223 239 223 239 213.5 239 c 128,-1,22
 204 239 204 239 196 225 c 128,-1,23
 188 211 188 211 188 185.5 c 128,-1,24
 188 160 188 160 202 127 c 128,-1,25
 216 94 216 94 240 71 c 1,13,14
133 226 m 0,26,27
 133 232 133 232 135 242 c 1,28,29
 75 200 75 200 75 122 c 0,30,31
 75 78 75 78 98.5 47.5 c 128,-1,32
 122 17 122 17 160 17 c 128,-1,33
 198 17 198 17 222 44 c 1,34,35
 183 71 183 71 158 120 c 128,-1,36
 133 169 133 169 133 226 c 0,26,27
396 296 m 1,37,-1
 397 309 l 2,38,39
 397 321 397 321 370 321 c 128,-1,40
 343 321 343 321 321.5 305 c 128,-1,41
 300 289 300 289 300 262 c 0,42,43
 300 214 300 214 369 214 c 0,44,45
 380 214 380 214 391.5 217.5 c 128,-1,46
 403 221 403 221 415 221 c 128,-1,47
 427 221 427 221 427 213 c 0,48,49
 427 212 427 212 419 208.5 c 128,-1,50
 411 205 411 205 399.5 198 c 128,-1,51
 388 191 388 191 376 180 c 0,52,53
 348 154.333333333 348 154.333333333 348 109.166666667 c 128,-1,54
 348 64 348 64 375 40.5 c 128,-1,55
 402 17 402 17 445 17 c 128,-1,56
 488 17 488 17 533 42 c 128,-1,57
 578 67 578 67 606 110 c 1,58,-1
 613 98 l 1,59,60
 575 32 575 32 507.5 -6.5 c 128,-1,61
 440 -45 440 -45 376 -45 c 0,62,63
 336 -45 336 -45 307.5 -28 c 128,-1,64
 279 -11 279 -11 272 22 c 1,65,66
 260 24 260 24 243 32 c 1,67,68
 221 -2 221 -2 188.5 -21 c 128,-1,69
 156 -40 156 -40 122 -40 c 0,70,71
 64 -40 64 -40 32.5 -1 c 128,-1,72
 1 38 1 38 1 98 c 128,-1,73
 1 158 1 158 39 208.5 c 128,-1,74
 77 259 77 259 143 262 c 1,75,76
 159 287 159 287 189.5 287 c 128,-1,77
 220 287 220 287 243 257 c 1,78,79
 267 297 267 297 321.5 324.5 c 128,-1,80
 376 352 376 352 418.5 352 c 128,-1,81
 461 352 461 352 461 328 c 0,82,83
 461 313 461 313 445 296 c 128,-1,84
 429 279 429 279 416 279 c 0,85,86
 396 279 396 279 396 296 c 1,37,-1
EndSplineSet
EndChar

StartChar: idieresis
Encoding: 239 239 57
Width: 312
Flags: HMW
HStem: -45 48<163 176.5> 340 116<-38.5 -10 125.5 154>
VStem: -76 104<382 414> 97 95
LayerCount: 2
Fore
SplineSet
192 398 m 128,-1,1
 192 374 192 374 176.5 357 c 128,-1,2
 161 340 161 340 139.5 340 c 0,3,4
 118 340 118 340 103 357 c 128,-1,5
 88 374 88 374 88 398 c 128,-1,6
 88 422 88 422 103 439 c 128,-1,7
 118 456 118 456 139.5 456 c 0,8,9
 161 456 161 456 176.5 439 c 128,-1,0
 192 422 192 422 192 398 c 128,-1,1
20 224 m 1,10,11
 15 182 15 182 15 155 c 0,12,13
 15 60 15 60 51.5 7.5 c 128,-1,14
 88 -45 88 -45 140.5 -45 c 0,15,16
 193 -45 193 -45 245 -8.5 c 128,-1,17
 297 28 297 28 342 98 c 1,18,-1
 335 110 l 1,19,20
 257 3 257 3 191 3 c 0,21,22
 149 3 149 3 123 48 c 128,-1,23
 97 93 97 93 97 170 c 0,24,25
 97 210 97 210 104 251 c 1,26,27
 104 260 104 260 96.5 260 c 0,28,29
 89 260 89 260 29 236 c 0,30,31
 20 233 20 233 20 224 c 1,10,11
28 398 m 128,-1,33
 28 374 28 374 12.5 357 c 128,-1,34
 -3 340 -3 340 -24.5 340 c 0,35,36
 -46 340 -46 340 -61 357 c 128,-1,37
 -76 374 -76 374 -76 398 c 128,-1,38
 -76 422 -76 422 -61 439 c 128,-1,39
 -46 456 -46 456 -24.5 456 c 0,40,41
 -3 456 -3 456 12.5 439 c 128,-1,32
 28 422 28 422 28 398 c 128,-1,33
EndSplineSet
EndChar

StartChar: dieresis
Encoding: 168 168 58
Width: 312
Flags: HMW
HStem: 340 116<-38.5 -10 125.5 154>
VStem: -76 104<382 414> 88 104<382 414>
LayerCount: 2
Fore
SplineSet
192 398 m 128,-1,1
 192 374 192 374 176.5 357 c 128,-1,2
 161 340 161 340 139.5 340 c 0,3,4
 118 340 118 340 103 357 c 128,-1,5
 88 374 88 374 88 398 c 128,-1,6
 88 422 88 422 103 439 c 128,-1,7
 118 456 118 456 139.5 456 c 0,8,9
 161 456 161 456 176.5 439 c 128,-1,0
 192 422 192 422 192 398 c 128,-1,1
28 398 m 128,-1,11
 28 374 28 374 12.5 357 c 128,-1,12
 -3 340 -3 340 -24.5 340 c 0,13,14
 -46 340 -46 340 -61 357 c 128,-1,15
 -76 374 -76 374 -76 398 c 128,-1,16
 -76 422 -76 422 -61 439 c 128,-1,17
 -46 456 -46 456 -24.5 456 c 0,18,19
 -3 456 -3 456 12.5 439 c 128,-1,10
 28 422 28 422 28 398 c 128,-1,11
EndSplineSet
EndChar

StartChar: edieresis
Encoding: 235 235 60
Width: 314
Flags: HMW
HStem: -45 62<77 203> 167 47 214 107<85.5 103.5 84 110> 279 73<138.5 155.5> 375 116<-9.5 19 154.5 183>
VStem: -47 104<417 449> 117 104<417 449>
LayerCount: 2
Fore
SplineSet
128 309 m 2,0,-1
 127 296 l 1,1,2
 127 279 127 279 147 279 c 0,3,4
 160 279 160 279 176 296 c 128,-1,5
 192 313 192 313 192 328 c 0,6,7
 192 352 192 352 142.5 352 c 128,-1,8
 93 352 93 352 27 310 c 128,-1,9
 -39 268 -39 268 -39 210 c 0,10,11
 -39 167 -39 167 14 167 c 0,12,13
 44 167 44 167 76 179 c 0,14,15
 77 179 77 179 77 176.5 c 128,-1,16
 77 174 77 174 70.5 168.5 c 128,-1,17
 64 163 64 163 50.5 149.5 c 128,-1,18
 37 136 37 136 19 105 c 128,-1,19
 1 74 1 74 1 37.5 c 128,-1,20
 1 1 1 1 30.5 -22 c 128,-1,21
 60 -45 60 -45 115.5 -45 c 128,-1,22
 171 -45 171 -45 238.5 -6.5 c 128,-1,23
 306 32 306 32 344 98 c 1,24,-1
 337 110 l 1,25,26
 309 67 309 67 264 42 c 128,-1,27
 219 17 219 17 176 17 c 128,-1,28
 133 17 133 17 106 40.5 c 128,-1,29
 79 64 79 64 79 109 c 0,30,31
 79 177.4375 79 177.4375 150 208.5 c 0,32,33
 158 212 158 212 158 213 c 0,34,35
 158 221 158 221 146 221 c 128,-1,36
 134 221 134 221 122.5 217.5 c 128,-1,37
 111 214 111 214 100 214 c 0,38,39
 31 214 31 214 31 262 c 0,40,41
 31 289 31 289 52.5 305 c 128,-1,42
 74 321 74 321 101 321 c 128,-1,43
 128 321 128 321 128 309 c 2,0,-1
221 433 m 128,-1,45
 221 409 221 409 205.5 392 c 128,-1,46
 190 375 190 375 168.5 375 c 128,-1,47
 147 375 147 375 132 392 c 128,-1,48
 117 409 117 409 117 433 c 128,-1,49
 117 457 117 457 132 474 c 128,-1,50
 147 491 147 491 168.5 491 c 128,-1,51
 190 491 190 491 205.5 474 c 128,-1,44
 221 457 221 457 221 433 c 128,-1,45
57 433 m 128,-1,53
 57 409 57 409 41.5 392 c 128,-1,54
 26 375 26 375 4.5 375 c 128,-1,55
 -17 375 -17 375 -32 392 c 128,-1,56
 -47 409 -47 409 -47 433 c 128,-1,57
 -47 457 -47 457 -32 474 c 128,-1,58
 -17 491 -17 491 4.5 491 c 128,-1,59
 26 491 26 491 41.5 474 c 128,-1,52
 57 457 57 457 57 433 c 128,-1,53
EndSplineSet
EndChar

StartChar: udieresis
Encoding: 252 252 62
Width: 512
Flags: HMW
HStem: -42 47<364.5 380> -25 59<148.5 163.5> 340 116<68.5 97 232.5 261>
VStem: 1 97<107.5 240.5> 31 104<382 414> 195 103 217 81<137.5 168>
LayerCount: 2
Fore
SplineSet
221 222 m 1,0,1
 221 231 221 231 230 234 c 0,2,3
 290 258 290 258 297.5 258 c 128,-1,4
 305 258 305 258 305 249 c 1,5,6
 298 210 298 210 298 171 c 0,7,8
 298 96 298 96 324 50.5 c 128,-1,9
 350 5 350 5 393 5 c 0,10,11
 459 5 459 5 535 110 c 1,12,-1
 542 98 l 1,13,14
 498 29 498 29 447.5 -6.5 c 128,-1,15
 397 -42 397 -42 350 -42 c 0,16,17
 278 -42 278 -42 241 33 c 1,18,19
 202 -25 202 -25 140.5 -25 c 128,-1,20
 79 -25 79 -25 40 28.5 c 128,-1,21
 1 82 1 82 1 155 c 0,22,23
 1 226.193548387 1 226.193548387 32.5 245.5 c 0,24,25
 56.1578947368 260 56.1578947368 260 89 260 c 0,26,27
 98 260 98 260 98 224 c 128,-1,28
 98 188 98 188 84 146 c 1,29,30
 98.2320441989 74.8397790055 98.2320441989 74.8397790055 147.5 46 c 0,31,32
 168 34 168 34 190.5 34 c 128,-1,33
 213 34 213 34 233 53 c 1,34,35
 217 99 217 99 217 145 c 128,-1,36
 217 191 217 191 221 222 c 1,0,1
299 398 m 128,-1,38
 299 374 299 374 283.5 357 c 128,-1,39
 268 340 268 340 246.5 340 c 128,-1,40
 225 340 225 340 210 357 c 128,-1,41
 195 374 195 374 195 398 c 128,-1,42
 195 422 195 422 210 439 c 128,-1,43
 225 456 225 456 246.5 456 c 128,-1,44
 268 456 268 456 283.5 439 c 128,-1,37
 299 422 299 422 299 398 c 128,-1,38
135 398 m 128,-1,46
 135 374 135 374 119.5 357 c 128,-1,47
 104 340 104 340 82.5 340 c 128,-1,48
 61 340 61 340 46 357 c 128,-1,49
 31 374 31 374 31 398 c 128,-1,50
 31 422 31 422 46 439 c 128,-1,51
 61 456 61 456 82.5 456 c 128,-1,52
 104 456 104 456 119.5 439 c 128,-1,45
 135 422 135 422 135 398 c 128,-1,46
EndSplineSet
EndChar

StartChar: Ydieresis
Encoding: 376 376 64
Width: 693
Flags: HMW
HStem: -403 49<716 859> -4 54<193 329> 736 116<194.5 223 358.5 387>
VStem: -61 218<737 810> 261 60<778 810> 427 118<385 526>
LayerCount: 2
Fore
SplineSet
877 -349 m 2,0,-1
 854 -354 l 1,1,2
 829 -354 829 -354 785 -299 c 128,-1,3
 741 -244 741 -244 694 -156.5 c 128,-1,4
 647 -69 647 -69 602.5 58.5 c 128,-1,5
 558 186 558 186 536 313 c 1,6,7
 545 356 545 356 545 418.5 c 128,-1,8
 545 481 545 481 533.5 537 c 128,-1,9
 522 593 522 593 493.5 593 c 128,-1,10
 465 593 465 593 446 567 c 128,-1,11
 427 541 427 541 427 489 c 0,12,13
 427 320 427 320 474 159 c 1,14,15
 469 137 469 137 425.5 93.5 c 128,-1,16
 382 50 382 50 329 50 c 0,17,18
 253 50 253 50 208 110 c 128,-1,19
 163 170 163 170 146.5 263 c 128,-1,20
 130 356 130 356 121.5 452.5 c 128,-1,21
 113 549 113 549 96 639.5 c 128,-1,22
 79 730 79 730 46 768 c 1,23,24
 39 769 39 769 27 769 c 128,-1,25
 15 769 15 769 -1 767.5 c 128,-1,26
 -17 766 -17 766 -39 758.5 c 128,-1,27
 -61 751 -61 751 -61 739 c 0,28,29
 -61 734 -61 734 -56 732 c 0,30,31
 -12.1051127342 716.197840584 -12.1051127342 716.197840584 4 565.5 c 0,32,33
 11 500 11 500 17.5 423 c 128,-1,34
 24 346 24 346 38.5 271 c 128,-1,35
 53 196 53 196 77 134 c 128,-1,36
 101 72 101 72 149 34 c 128,-1,37
 197 -4 197 -4 264 -4 c 0,38,39
 300 -4 300 -4 336 10 c 128,-1,40
 372 24 372 24 397 43.5 c 128,-1,41
 422 63 422 63 442 83.5 c 128,-1,42
 462 104 462 104 472 117.5 c 128,-1,43
 482 131 482 131 482 133 c 1,44,45
 491 106 491 106 500 78.5 c 128,-1,46
 509 51 509 51 535 -21 c 128,-1,47
 561 -93 561 -93 588 -151 c 128,-1,48
 615 -209 615 -209 647.5 -270.5 c 128,-1,49
 680 -332 680 -332 715.5 -367.5 c 128,-1,50
 751 -403 751 -403 783.5 -403 c 128,-1,51
 816 -403 816 -403 848.5 -384.5 c 128,-1,52
 881 -366 881 -366 881 -353 c 0,53,54
 881 -349 881 -349 877 -349 c 2,0,-1
425 794 m 128,-1,56
 425 770 425 770 409.5 753 c 128,-1,57
 394 736 394 736 372.5 736 c 128,-1,58
 351 736 351 736 336 753 c 128,-1,59
 321 770 321 770 321 794 c 128,-1,60
 321 818 321 818 336 835 c 128,-1,61
 351 852 351 852 372.5 852 c 128,-1,62
 394 852 394 852 409.5 835 c 128,-1,55
 425 818 425 818 425 794 c 128,-1,56
261 794 m 128,-1,64
 261 770 261 770 245.5 753 c 128,-1,65
 230 736 230 736 208.5 736 c 128,-1,66
 187 736 187 736 172 753 c 128,-1,67
 157 770 157 770 157 794 c 128,-1,68
 157 818 157 818 172 835 c 128,-1,69
 187 852 187 852 208.5 852 c 128,-1,70
 230 852 230 852 245.5 835 c 128,-1,63
 261 818 261 818 261 794 c 128,-1,64
EndSplineSet
EndChar

StartChar: apple
Encoding: 63743 63743 65
Width: 632
Flags: HMW
HStem: -12 45<241 390.5 241 403> 96 45<293 338 293 343.5> 468 44<293 334.5> 575 45<241 390.5>
VStem: 0 45<229 378.5 229 391> 183 54<370.5 429 370.5 448.5> 401 57<182.5 241.5> 586 46<229 378.5>
LayerCount: 2
Fore
SplineSet
458 204 m 0,0,1
 458 151 458 151 413.5 123.5 c 128,-1,2
 369 96 369 96 311.5 96 c 128,-1,3
 254 96 254 96 174 135 c 1,4,-1
 183 182 l 1,5,6
 249 141 249 141 311 141 c 0,7,8
 351 141 351 141 376 157.5 c 128,-1,9
 401 174 401 174 401 198.5 c 128,-1,10
 401 223 401 223 378.5 242.5 c 128,-1,11
 356 262 356 262 324 277.5 c 128,-1,12
 292 293 292 293 260 310 c 128,-1,13
 228 327 228 327 205.5 352.5 c 128,-1,14
 183 378 183 378 183 409 c 0,15,16
 183 463 183 463 222.5 487.5 c 128,-1,17
 262 512 262 512 314 512 c 0,18,19
 351 512 351 512 374 501 c 0,20,21
 420 479 420 479 435 469 c 1,22,-1
 424 426 l 1,23,24
 376 468 376 468 317 468 c 0,25,26
 281 468 281 468 259 452.5 c 128,-1,27
 237 437 237 437 237 413.5 c 128,-1,28
 237 390 237 390 260 372 c 128,-1,29
 283 354 283 354 315.5 340.5 c 128,-1,30
 348 327 348 327 380 311.5 c 128,-1,31
 412 296 412 296 435 268.5 c 128,-1,32
 458 241 458 241 458 204 c 0,0,1
586 304 m 128,-1,34
 586 416 586 416 507 495.5 c 128,-1,35
 428 575 428 575 316 575 c 128,-1,36
 204 575 204 575 124.5 495.5 c 128,-1,37
 45 416 45 416 45 304 c 128,-1,38
 45 192 45 192 124.5 112.5 c 128,-1,39
 204 33 204 33 316 33 c 128,-1,40
 428 33 428 33 507 112.5 c 128,-1,33
 586 192 586 192 586 304 c 128,-1,34
632 304 m 128,-1,42
 632 174 632 174 539 81 c 128,-1,43
 446 -12 446 -12 315.5 -12 c 128,-1,44
 185 -12 185 -12 92.5 80.5 c 128,-1,45
 0 173 0 173 0 304 c 128,-1,46
 0 435 0 435 92.5 527.5 c 128,-1,47
 185 620 185 620 315.5 620 c 128,-1,48
 446 620 446 620 539 527 c 128,-1,41
 632 434 632 434 632 304 c 128,-1,42
434 738 m 1,49,-1
 344 653 l 1,50,51
 335 654 335 654 316 654 c 128,-1,52
 297 654 297 654 288 653 c 1,53,-1
 198 738 l 1,54,-1
 257 738 l 1,55,-1
 315 677 l 1,56,-1
 374 738 l 1,57,-1
 434 738 l 1,49,-1
EndSplineSet
EndChar

StartChar: zero
Encoding: 48 48 66
Width: 637
Flags: HMW
HStem: -43 33<298 444 298 451> 713 71<272 442> 844 20G<325 327 327 328.5>
VStem: 35 93<289 427 289 455> 35 155<253 622> 566 71<258.5 414.5>
LayerCount: 2
Fore
SplineSet
224 504 m 1,0,1
 195 511 195 511 177 536.5 c 128,-1,2
 159 562 159 562 155 598 c 1,3,4
 128 501 128 501 128 393 c 128,-1,5
 128 285 128 285 155 196 c 128,-1,6
 182 107 182 107 242 48.5 c 128,-1,7
 302 -10 302 -10 385.5 -10 c 128,-1,8
 469 -10 469 -10 517.5 87 c 128,-1,9
 566 184 566 184 566 319 c 0,10,11
 566 540.868852459 566 540.868852459 452 653 c 0,12,13
 391 713 391 713 305 713 c 0,14,15
 257 713 257 713 223.5 675.5 c 128,-1,16
 190 638 190 638 190 590.5 c 128,-1,17
 190 543 190 543 231 516 c 1,18,19
 230 505 230 505 224 504 c 1,0,1
221 746 m 1,20,21
 271 784 271 784 343 784 c 128,-1,22
 415 784 415 784 472 747.5 c 128,-1,23
 529 711 529 711 564 650.5 c 0,24,25
 637 524.314285714 637 524.314285714 637 360 c 0,26,27
 637 255 637 255 607 165.5 c 128,-1,28
 577 76 577 76 512 16.5 c 128,-1,29
 447 -43 447 -43 351.5 -43 c 128,-1,30
 256 -43 256 -43 181.5 14 c 128,-1,31
 107 71 107 71 71 161 c 128,-1,32
 35 251 35 251 35 359 c 0,33,34
 35 512 35 512 109.5 651 c 128,-1,35
 184 790 184 790 325 864 c 1,36,-1
 327 864 l 2,37,38
 331 864 331 864 331 855 c 128,-1,39
 331 846 331 846 324 842 c 0,40,41
 266 814 266 814 221 746 c 1,20,21
EndSplineSet
EndChar

StartChar: one
Encoding: 49 49 67
Width: 287
Flags: HMW
HStem: -58 21G<226 230> 761 20G<202 202.5>
VStem: 103 79<345.5 448>
LayerCount: 2
Fore
SplineSet
309 7 m 1,0,1
 317 5 317 5 317 1.5 c 2,2,-1
 317 0 l 2,3,4
 317 -5.95238095238 317 -5.95238095238 280 -27.9761904762 c 128,-1,5
 243 -50 243 -50 237 -55 c 1,6,7
 236 -58 236 -58 228 -58 c 128,-1,8
 220 -58 220 -58 214 -52 c 0,9,10
 156 13 156 13 129.5 150 c 128,-1,11
 103 287 103 287 103 402 c 1,12,-1
 107 616 l 2,13,14
 107 624 107 624 105 625 c 1,15,-1
 104 625 l 1,16,-1
 96 621 l 1,17,18
 46 594 46 594 -8 594 c 0,19,20
 -24 594 -24 594 -49 599 c 1,21,22
 -57 602 -57 602 -57 607 c 1,23,-1
 -48 614 l 1,24,25
 -14 622 -14 622 15.5 640.5 c 128,-1,26
 45 659 45 659 63 678.5 c 128,-1,27
 81 698 81 698 94.5 718.5 c 0,28,29
 112.725 746.175 112.725 746.175 119 765 c 1,30,31
 119 769 119 769 130.5 769.5 c 0,32,33
 179.215277778 771.618055556 179.215277778 771.618055556 202 781 c 0,34,35
 204 781 204 781 204 776.5 c 128,-1,36
 204 772 204 772 198.5 738 c 0,37,38
 182 636 182 636 182 505 c 128,-1,39
 182 374 182 374 195 285 c 128,-1,40
 208 196 208 196 227 147 c 0,41,42
 266.816009558 44.3166069295 266.816009558 44.3166069295 296 18.5 c 2,43,-1
 309 7 l 1,0,1
EndSplineSet
EndChar

StartChar: two
Encoding: 50 50 68
Width: 418
Flags: HMW
HStem: -104 21G<435 435> 35 66<238 240> 490 66<47.5 141.5> 748 52<222 232>
VStem: -5 74<604.5 648> 278 102<602 655>
LayerCount: 2
Fore
SplineSet
238 101 m 1,0,1
 289 101 289 101 340.5 83 c 128,-1,2
 392 65 392 65 424 28 c 1,3,4
 431 23 431 23 431 9 c 1,5,-1
 440 -100 l 1,6,-1
 435 -104 l 1,7,8
 333 35 333 35 193 35 c 0,9,10
 153 35 153 35 113.5 24 c 128,-1,11
 74 13 74 13 54.5 1.5 c 2,12,-1
 24 -17 l 1,13,14
 18 -14 18 -14 18 -6 c 128,-1,15
 18 2 18 2 22 12.5 c 128,-1,16
 26 23 26 23 42.5 40.5 c 128,-1,17
 59 58 59 58 86 71 c 1,18,19
 157 142 157 142 217.5 315 c 128,-1,20
 278 488 278 488 278 618 c 128,-1,21
 278 748 278 748 207 748 c 0,22,23
 154 748 154 748 111.5 714 c 128,-1,24
 69 680 69 680 69 627 c 0,25,26
 69 594 69 594 87 575 c 128,-1,27
 105 556 105 556 134 556 c 1,28,-1
 159 561 l 1,29,30
 167.75 561 167.75 561 173 554 c 1,31,32
 170 544 170 544 135.5 517 c 128,-1,33
 101 490 101 490 68.5 490 c 128,-1,34
 36 490 36 490 15.5 518.5 c 128,-1,35
 -5 547 -5 547 -5 591 c 0,36,37
 -5 672 -5 672 90.5 736 c 128,-1,38
 186 800 186 800 283 800 c 128,-1,39
 380 800 380 800 380 685.5 c 128,-1,40
 380 571 380 571 305 396 c 128,-1,41
 230 221 230 221 139 89 c 1,42,43
 178 98 178 98 238 101 c 1,0,1
EndSplineSet
EndChar

StartChar: three
Encoding: 51 51 69
Width: 533
Flags: HMW
HStem: -51 59<278.5 309.5> 342 64<304.5 363.5> 466 66<62.5 156.5> 724 52<237 251>
VStem: 10 74<580.5 624> 334 83<635.5 647.5> 446 79<188.5 229>
LayerCount: 2
Fore
SplineSet
267 394 m 1,0,1
 279 406 279 406 338 406 c 0,2,3
 433 406 433 406 479 364 c 128,-1,4
 525 322 525 322 525 255 c 0,5,6
 525 150 525 150 434.5 49.5 c 128,-1,7
 344 -51 344 -51 230 -51 c 0,8,9
 162 -51 162 -51 113 -18.5 c 128,-1,10
 64 14 64 14 15 73 c 1,11,12
 57 122 57 122 77 130 c 1,13,14
 84 130 84 130 95.5 118.5 c 2,15,-1
 110 104 l 1,16,17
 220 8 220 8 303 8 c 0,18,19
 368 8 368 8 407 63.5 c 128,-1,20
 446 119 446 119 446 186 c 128,-1,21
 446 253 446 253 413.5 297.5 c 128,-1,22
 381 342 381 342 324.5 342 c 128,-1,23
 268 342 268 342 201 305 c 1,24,25
 190 297 190 297 184 297 c 1,26,27
 176 300 176 300 176 319.5 c 128,-1,28
 176 339 176 339 183 356 c 0,29,30
 194.407407407 383.703703704 194.407407407 383.703703704 205 389 c 1,31,32
 334 504 334 504 334 606 c 0,33,34
 334 665 334 665 302 694.5 c 128,-1,35
 270 724 270 724 219.5 724 c 128,-1,36
 169 724 169 724 126.5 690 c 128,-1,37
 84 656 84 656 84 603 c 0,38,39
 84 570 84 570 102 551 c 128,-1,40
 120 532 120 532 149 532 c 1,41,-1
 174 537 l 1,42,43
 182.75 537 182.75 537 188 530 c 1,44,45
 185 520 185 520 150.5 493 c 128,-1,46
 116 466 116 466 83.5 466 c 128,-1,47
 51 466 51 466 30.5 494.5 c 128,-1,48
 10 523 10 523 10 567 c 0,49,50
 10 648 10 648 105.5 712 c 128,-1,51
 201 776 201 776 297 776 c 0,52,53
 351 776 351 776 384 750 c 128,-1,54
 417 724 417 724 417 671 c 128,-1,55
 417 618 417 618 375.5 545 c 128,-1,56
 334 472 334 472 264 398 c 1,57,58
 264 396 264 396 267 394 c 1,0,1
EndSplineSet
EndChar

StartChar: four
Encoding: 52 52 70
Width: 500
Flags: HMW
HStem: -90 21G<432 436> 217 40 888 20G<194 196>
VStem: 223 59<706.5 793.5 683.5 820> 292 73<475 507.5>
LayerCount: 2
Fore
SplineSet
292.5 469 m 128,-1,1
 292 479 292 479 295.5 481.5 c 128,-1,2
 299 484 299 484 302 486 c 128,-1,3
 305 488 305 488 313 492.5 c 128,-1,4
 321 497 321 497 328.5 501.5 c 128,-1,5
 336 506 336 506 343 510.5 c 128,-1,6
 350 515 350 515 355.5 518 c 128,-1,7
 361 521 361 521 363 521 c 128,-1,8
 365 521 365 521 365 501 c 0,9,10
 365 356 365 356 377 256 c 1,11,12
 391 255 391 255 421 251 c 1,13,14
 463 243 463 243 502 224 c 128,-1,15
 541 205 541 205 550 179 c 1,16,-1
 562 129 l 1,17,18
 562 122 562 122 557 122 c 1,19,20
 487 195 487 195 383 212 c 1,21,22
 417 -15 417 -15 515 -25 c 1,23,24
 523 -27 523 -27 523 -30.5 c 2,25,-1
 523 -32 l 2,26,27
 523 -37.9523809524 523 -37.9523809524 486 -59.9761904762 c 128,-1,28
 449 -82 449 -82 443 -87 c 1,29,30
 442 -90 442 -90 434 -90 c 128,-1,31
 426 -90 426 -90 420 -84 c 0,32,33
 329 0 329 0 305 217 c 1,34,35
 172 213 172 213 9 141 c 0,36,37
 4 139 4 139 -2 139 c 0,38,39
 -10 140 -10 140 -10 154 c 2,40,-1
 -10 157 l 1,41,42
 64 258 64 258 143.5 464.5 c 128,-1,43
 223 671 223 671 223 797 c 0,44,45
 223 870 223 870 192 898 c 1,46,47
 191 902 191 902 191 903 c 0,48,49
 191 908 191 908 196 908 c 1,50,51
 282 879 282 879 282 756 c 0,52,53
 282 594 282 594 117 225 c 1,54,55
 117 218 117 218 122 218 c 1,56,57
 200 250 200 250 300 257 c 1,58,59
 294.634615385 324.961538462 294.634615385 324.961538462 293.817307692 391.980769231 c 128,-1,0
 293 459 293 459 292.5 469 c 128,-1,1
EndSplineSet
EndChar

StartChar: five
Encoding: 53 53 71
Width: 500
Flags: HMW
HStem: -51 63<258.5 292> 444 92<154 256> 660 87<300 312.5 272.5 341.5> 767 20G
VStem: 432 69<186.5 249.5>
LayerCount: 2
Fore
SplineSet
107 535 m 1,0,-1
 149 536 l 1,1,2
 325 536 325 536 413 457 c 128,-1,3
 501 378 501 378 501 263 c 0,4,5
 501 186 501 186 464 114.5 c 128,-1,6
 427 43 427 43 358 -4 c 128,-1,7
 289 -51 289 -51 213 -51 c 128,-1,8
 137 -51 137 -51 88 -18.5 c 128,-1,9
 39 14 39 14 -10 73 c 1,10,11
 32 122 32 122 52 130 c 1,12,13
 59.4666666667 130 59.4666666667 130 69.7333333333 119 c 128,-1,14
 80 108 80 108 85 104 c 0,15,16
 195 12 195 12 285 12 c 0,17,18
 353 12 353 12 392.5 64 c 128,-1,19
 432 116 432 116 432 190 c 0,20,21
 432 290 432 290 362 367 c 128,-1,22
 292 444 292 444 164 444 c 0,23,24
 137 444 137 444 114 440.5 c 128,-1,25
 91 437 91 437 87 437.5 c 0,26,27
 75.8510638298 438.893617021 75.8510638298 438.893617021 74.5 447 c 2,28,-1
 74 450 l 1,29,30
 46 656 46 656 22 747.5 c 2,31,-1
 14 778 l 1,32,33
 14 787 14 787 24 787 c 0,34,35
 28 787 28 787 57.5 780 c 128,-1,36
 87 773 87 773 162 760 c 128,-1,37
 237 747 237 747 297.5 747 c 128,-1,38
 358 747 358 747 362 769 c 1,39,40
 368 773 368 773 372 773 c 1,41,42
 376 771 376 771 381 756.5 c 128,-1,43
 386 742 386 742 386 725 c 128,-1,44
 386 708 386 708 384.5 699 c 128,-1,45
 383 690 383 690 379 683 c 128,-1,46
 375 676 375 676 357 668 c 128,-1,47
 339 660 339 660 309.5 660 c 0,48,49
 259.363636364 660 259.363636364 660 143 680 c 2,50,-1
 81 691 l 1,51,52
 72 691 72 691 71 685 c 1,53,54
 71 655 71 655 81 596.5 c 128,-1,55
 91 538 91 538 107 535 c 1,0,-1
EndSplineSet
EndChar

StartChar: six
Encoding: 54 54 72
Width: 526
Flags: HMW
HStem: -50 60<258 340> 429 44<275 320> 771 47<259 321>
VStem: 44 87<406 481.5> 44 138<281.5 302 271 481.5> 403 66<676.5 680> 445 72<184 219>
LayerCount: 2
Fore
SplineSet
345 818 m 0,0,1
 408 818 408 818 438.5 786.5 c 128,-1,2
 469 755 469 755 469 707 c 128,-1,3
 469 659 469 659 440 615.5 c 128,-1,4
 411 572 411 572 369 562 c 1,5,6
 364 562 364 562 362 574 c 1,7,8
 403 601 403 601 403 648.5 c 128,-1,9
 403 696 403 696 369.5 733.5 c 128,-1,10
 336 771 336 771 288 771 c 0,11,12
 251 771 251 771 214.5 718 c 128,-1,13
 178 665 178 665 154.5 581 c 128,-1,14
 131 497 131 497 131 412 c 0,15,16
 131 387 131 387 132 375 c 1,17,18
 137.7 363.6 137.7 363.6 145.85 374.3 c 128,-1,19
 154 385 154 385 171.5 403 c 128,-1,20
 189 421 189 421 234.5 447 c 128,-1,21
 280 473 280 473 325 473 c 0,22,23
 419 473 419 473 468 410.5 c 128,-1,24
 517 348 517 348 517 265 c 128,-1,25
 517 182 517 182 487.5 113 c 128,-1,26
 458 44 458 44 397 -3 c 128,-1,27
 336 -50 336 -50 258 -50 c 1,28,29
 204 -44 204 -44 161.5 -3.5 c 128,-1,30
 119 37 119 37 94 99 c 0,31,32
 44 223 44 223 44 377 c 0,33,34
 44 482 44 482 82.5 583 c 128,-1,35
 121 684 121 684 191.5 751 c 128,-1,36
 262 818 262 818 345 818 c 0,0,1
202 200 m 1,37,38
 200.178217822 189.069306931 200.178217822 189.069306931 164 175 c 1,39,40
 164 161.125 164 161.125 180.5 126.0625 c 128,-1,41
 197 91 197 91 213 67.5 c 128,-1,42
 229 44 229 44 255.5 27 c 128,-1,43
 282 10 282 10 313 10 c 0,44,45
 380 10 380 10 412.5 51.5 c 128,-1,46
 445 93 445 93 445 159 c 0,47,48
 445 253 445 253 392.5 341 c 128,-1,49
 340 429 340 429 275 429 c 0,50,51
 252 429 252 429 233.5 415.5 c 128,-1,52
 215 402 215 402 205 382 c 0,53,54
 182 336 182 336 182 305 c 0,55,56
 182 250 182 250 197 212.5 c 2,57,-1
 202 200 l 1,37,38
EndSplineSet
EndChar

StartChar: seven
Encoding: 55 55 73
Width: 353
Flags: HMW
HStem: -90 21G<282 286> 650 84<213 315.5> 767 20G<-48 -44>
VStem: 156 61
LayerCount: 2
Fore
SplineSet
343 654 m 2,0,1
 343 644 343 644 316.5 644 c 128,-1,2
 290 644 290 644 265 647 c 0,3,4
 257 647 257 647 255 641 c 1,5,6
 250 634 250 634 235.5 558 c 128,-1,7
 221 482 221 482 220 454 c 1,8,9
 243 454 243 454 266.5 450 c 128,-1,10
 290 446 290 446 293.5 443 c 128,-1,11
 297 440 297 440 298 434 c 2,12,-1
 312 362 l 1,13,14
 310 360 310 360 309 360 c 0,15,16
 270 376 270 376 217 376 c 1,17,-1
 217 362 l 2,18,19
 217 302.2 217 302.2 221 272.6 c 128,-1,20
 225 243 225 243 230 205 c 128,-1,21
 235 167 235 167 245 141.5 c 128,-1,22
 255 116 255 116 270 84 c 0,23,24
 299.20694864 21.6918429003 299.20694864 21.6918429003 365 -25 c 1,25,26
 373 -27 373 -27 373 -30.5 c 2,27,-1
 373 -32 l 2,28,29
 373 -37.9523809524 373 -37.9523809524 336 -59.9761904762 c 128,-1,30
 299 -82 299 -82 293 -87 c 1,31,32
 292 -90 292 -90 284 -90 c 128,-1,33
 276 -90 276 -90 270 -84 c 0,34,35
 156 22 156 22 156 253 c 0,36,37
 156 274 156 274 159 370 c 1,38,39
 111.349282297 357.56937799 111.349282297 357.56937799 90.5 339.5 c 0,40,41
 78.3846153846 329 78.3846153846 329 75 329 c 0,42,43
 69 330 69 330 69 342 c 128,-1,44
 69 354 69 354 75.5 372 c 128,-1,45
 82 390 82 390 106.5 414 c 128,-1,46
 131 438 131 438 170 449 c 1,47,48
 187.625 548.875 187.625 548.875 210.5 617.5 c 2,49,-1
 218 640 l 2,50,51
 218 641 218 641 219 644 c 1,52,53
 219 650 219 650 213 650 c 0,54,55
 71 656 71 656 20.5 661.5 c 128,-1,56
 -30 667 -30 667 -31.5 669 c 128,-1,57
 -33 671 -33 671 -35 675 c 1,58,-1
 -54 778 l 1,59,60
 -52 787 -52 787 -44 787 c 1,61,62
 3 761 3 761 114 747.5 c 128,-1,63
 225 734 225 734 314 734 c 0,64,65
 320 734 320 734 324 724 c 1,66,67
 339 669 339 669 343 658 c 1,68,-1
 343 654 l 2,0,1
EndSplineSet
EndChar

StartChar: eight
Encoding: 56 56 74
Width: 463
Flags: HMW
HStem: -47 46<278.5 304.5> 751 47<184.5 195>
VStem: 25 72 25 85<181 197.5> 282 75<620.5 654> 401 79<97 190>
LayerCount: 2
Fore
SplineSet
194 370 m 1,0,1
 110 321 110 321 110 238 c 128,-1,2
 110 155 110 155 182 77 c 128,-1,3
 254 -1 254 -1 322 -1 c 0,4,5
 401 -1 401 -1 401 113 c 0,6,7
 401 156 401 156 380.5 198 c 128,-1,8
 360 240 360 240 331 269.5 c 128,-1,9
 302 299 302 299 271 322.5 c 0,10,11
 213.479768786 366.104046243 213.479768786 366.104046243 194 370 c 1,0,1
161 396 m 1,12,13
 18 491 18 491 18 603 c 0,14,15
 18 684 18 684 86.5 741 c 128,-1,16
 155 798 155 798 233 798 c 0,17,18
 287 798 287 798 322 765 c 128,-1,19
 357 732 357 732 357 669 c 128,-1,20
 357 606 357 606 311 550 c 128,-1,21
 265 494 265 494 242 494 c 0,22,23
 237 494 237 494 235 506 c 1,24,25
 253 516 253 516 267.5 552 c 128,-1,26
 282 588 282 588 282 618 c 0,27,28
 282 670 282 670 246 710.5 c 128,-1,29
 210 751 210 751 174 751 c 128,-1,30
 138 751 138 751 117.5 722 c 128,-1,31
 97 693 97 693 97 642.5 c 128,-1,32
 97 592 97 592 118 557 c 128,-1,33
 139 522 139 522 173 495 c 128,-1,34
 207 468 207 468 247.5 441.5 c 128,-1,35
 288 415 288 415 329 387 c 128,-1,36
 370 359 370 359 404 328 c 0,37,38
 480 258.705882353 480 258.705882353 480 163.352941176 c 128,-1,39
 480 68 480 68 409.5 10.5 c 128,-1,40
 339 -47 339 -47 244 -47 c 128,-1,41
 149 -47 149 -47 87 13.5 c 128,-1,42
 25 74 25 74 25 160 c 0,43,44
 25 290 25 290 161 385 c 1,45,46
 165.714285714 389.714285714 165.714285714 389.714285714 161 396 c 1,12,13
EndSplineSet
EndChar

StartChar: nine
Encoding: 57 57 75
Width: 499
Flags: HMW
HStem: -50 47<207 269> 295 44<208 253> 758 60<188 270 188 270>
VStem: 11 72<549 584> 59 66<88 91.5> 346 138<466 486.5 286.5 497> 397 87<286.5 362>
LayerCount: 2
Fore
SplineSet
183 -50 m 0,0,1
 120 -50 120 -50 89.5 -18.5 c 128,-1,2
 59 13 59 13 59 61 c 128,-1,3
 59 109 59 109 88 152.5 c 128,-1,4
 117 196 117 196 159 206 c 1,5,6
 164 206 164 206 166 194 c 1,7,8
 125 167 125 167 125 119.5 c 128,-1,9
 125 72 125 72 158.5 34.5 c 128,-1,10
 192 -3 192 -3 240 -3 c 0,11,12
 277 -3 277 -3 313.5 50 c 128,-1,13
 350 103 350 103 373.5 187 c 128,-1,14
 397 271 397 271 397 356 c 0,15,16
 397 381 397 381 396 393 c 1,17,18
 390.3 404.4 390.3 404.4 382.15 393.7 c 128,-1,19
 374 383 374 383 356.5 365 c 128,-1,20
 339 347 339 347 293.5 321 c 128,-1,21
 248 295 248 295 203 295 c 0,22,23
 109 295 109 295 60 357.5 c 128,-1,24
 11 420 11 420 11 503 c 128,-1,25
 11 586 11 586 40.5 655 c 128,-1,26
 70 724 70 724 131 771 c 128,-1,27
 192 818 192 818 270 818 c 1,28,29
 324 812 324 812 366.5 771.5 c 128,-1,30
 409 731 409 731 434 669 c 0,31,32
 484 545 484 545 484 391 c 0,33,34
 484 286 484 286 445.5 185 c 128,-1,35
 407 84 407 84 336.5 17 c 128,-1,36
 266 -50 266 -50 183 -50 c 0,0,1
326 568 m 1,37,38
 327.821782178 578.930693069 327.821782178 578.930693069 364 593 c 1,39,40
 364 606.875 364 606.875 347.5 641.9375 c 128,-1,41
 331 677 331 677 315 700.5 c 128,-1,42
 299 724 299 724 272.5 741 c 128,-1,43
 246 758 246 758 215 758 c 0,44,45
 148 758 148 758 115.5 716.5 c 128,-1,46
 83 675 83 675 83 609 c 0,47,48
 83 515 83 515 135.5 427 c 128,-1,49
 188 339 188 339 253 339 c 0,50,51
 276 339 276 339 294.5 352.5 c 128,-1,52
 313 366 313 366 323 386 c 0,53,54
 346 432 346 432 346 463 c 0,55,56
 346 518 346 518 331 555.5 c 2,57,-1
 326 568 l 1,37,38
EndSplineSet
EndChar

StartChar: aacute
Encoding: 225 225 76
Width: 458
Flags: HMW
HStem: -26 21G<293 343> -19 41 -19 56<55.5 159> 338 121<129 227.5>
VStem: 0 94<90.5 91.5> 185 83<138 154 106 183> 204 82<406 430 406 433.5>
LayerCount: 2
Fore
SplineSet
111 353 m 1,0,1
 149 357 149 357 176.5 376.5 c 128,-1,2
 204 396 204 396 204 431 c 0,3,4
 204 440 204 440 203 445 c 1,5,6
 203 459 203 459 219 459 c 128,-1,7
 235 459 235 459 260.5 446.5 c 128,-1,8
 286 434 286 434 286 420 c 0,9,10
 286 395 286 395 240.5 366.5 c 128,-1,11
 195 338 195 338 129 338 c 0,12,13
 111 338 111 338 111 353 c 1,0,1
203 262 m 1,14,15
 206 268 206 268 257.5 268 c 128,-1,16
 309 268 309 268 309 253 c 0,17,18
 309 250 309 250 303 241 c 0,19,20
 268 193 268 193 268 141 c 128,-1,21
 268 89 268 89 292.5 55.5 c 128,-1,22
 317 22 317 22 355 22 c 0,23,24
 417 22 417 22 481 110 c 1,25,-1
 488 98 l 1,26,27
 410 -26 410 -26 316 -26 c 0,28,29
 245 -26 245 -26 207 47 c 1,30,31
 191 23 191 23 155 2 c 128,-1,32
 119 -19 119 -19 87 -19 c 0,33,34
 0 -19 0 -19 0 54 c 0,35,36
 0 111 0 111 48.5 173.5 c 128,-1,37
 97 236 97 236 144 236 c 0,38,39
 148 236 148 236 148 233 c 128,-1,40
 148 230 148 230 144 226 c 1,41,42
 123 215 123 215 108.5 180.5 c 128,-1,43
 94 146 94 146 94 110 c 0,44,45
 94 37 94 37 150 37 c 0,46,47
 166 37 166 37 180.5 45.5 c 128,-1,48
 195 54 195 54 198 70 c 1,49,50
 185 105 185 105 185 143 c 128,-1,51
 185 181 185 181 188.5 207 c 0,52,53
 195.903846154 262 195.903846154 262 203 262 c 1,14,15
EndSplineSet
EndChar

StartChar: acute
Encoding: 180 180 77
Width: 458
Flags: HMW
HStem: 338 121<159 257.5>
VStem: 234 82<406 430 406 433.5>
LayerCount: 2
Fore
SplineSet
141 353 m 1,0,1
 179 357 179 357 206.5 376.5 c 128,-1,2
 234 396 234 396 234 431 c 0,3,4
 234 440 234 440 233 445 c 1,5,6
 233 459 233 459 249 459 c 0,7,8
 265 459 265 459 290.5 446.5 c 128,-1,9
 316 434 316 434 316 420 c 0,10,11
 316 395 316 395 270.5 366.5 c 128,-1,12
 225 338 225 338 159 338 c 0,13,14
 141 338 141 338 141 353 c 1,0,1
EndSplineSet
EndChar

StartChar: grave
Encoding: 96 96 78
Width: 458
Flags: HMW
HStem: 338 121<200.5 299>
VStem: 142 82<406 430>
LayerCount: 2
Fore
SplineSet
317 353 m 1,0,1
 317 340 317 340 299 338 c 1,2,3
 233 338 233 338 187.5 366.5 c 128,-1,4
 142 395 142 395 142 420 c 0,5,6
 142 434 142 434 167.5 446.5 c 128,-1,7
 193 459 193 459 209 459 c 128,-1,8
 225 459 225 459 225 445 c 1,9,10
 224 440 224 440 224 431 c 0,11,12
 224 396 224 396 251.5 376.5 c 128,-1,13
 279 357 279 357 317 353 c 1,0,1
EndSplineSet
EndChar

StartChar: at
Encoding: 64 64 79
Width: 690
Flags: HMW
HStem: -216 37<270 382> -19 41 -19 56<219.5 323> 428 44<308 414>
VStem: 14 58<55 201.5> 164 94<90.5 91.5> 349 83<138 154 106 183> 618 38<142 248.5>
LayerCount: 2
Fore
SplineSet
374 -179 m 0,0,1
 499 -179 499 -179 591 -60 c 1,2,-1
 598 -72 l 1,3,4
 553 -145 553 -145 482.5 -180.5 c 128,-1,5
 412 -216 412 -216 331 -216 c 0,6,7
 173 -216 173 -216 93.5 -133 c 128,-1,8
 14 -50 14 -50 14 75 c 0,9,10
 14 166 14 166 48.5 243 c 128,-1,11
 83 320 83 320 139 369 c 128,-1,12
 195 418 195 418 262 445 c 128,-1,13
 329 472 329 472 397 472 c 0,14,15
 508 472 508 472 582 402.5 c 128,-1,16
 656 333 656 333 656 200 c 0,17,18
 656 109 656 109 607.5 41.5 c 128,-1,19
 559 -26 559 -26 484 -26 c 128,-1,20
 409 -26 409 -26 371 47 c 1,21,22
 355 23 355 23 319 2 c 128,-1,23
 283 -19 283 -19 251 -19 c 0,24,25
 164 -19 164 -19 164 54 c 0,26,27
 164 111 164 111 212.5 173.5 c 128,-1,28
 261 236 261 236 308 236 c 0,29,30
 312 236 312 236 312 233 c 128,-1,31
 312 230 312 230 308 226 c 1,32,33
 287 215 287 215 272.5 180.5 c 128,-1,34
 258 146 258 146 258 110 c 0,35,36
 258 37 258 37 314 37 c 0,37,38
 330 37 330 37 344.5 45.5 c 128,-1,39
 359 54 359 54 362 70 c 1,40,41
 349 105 349 105 349 143 c 128,-1,42
 349 181 349 181 352.5 207 c 0,43,44
 359.903846154 262 359.903846154 262 367 262 c 1,45,46
 370 268 370 268 421.5 268 c 128,-1,47
 473 268 473 268 473 253 c 0,48,49
 473 250 473 250 467 241 c 0,50,51
 432 193 432 193 432 141 c 128,-1,52
 432 89 432 89 456.5 55.5 c 128,-1,53
 481 22 481 22 522.5 22 c 128,-1,54
 564 22 564 22 591 62.5 c 128,-1,55
 618 103 618 103 618 162 c 0,56,57
 618 285 618 285 537 356.5 c 128,-1,58
 456 428 456 428 345 428 c 128,-1,59
 234 428 234 428 153 351 c 128,-1,60
 72 274 72 274 72 132 c 0,61,62
 72 -45.1063829787 72 -45.1063829787 204.5 -132.5 c 0,63,64
 275 -179 275 -179 374 -179 c 0,0,1
EndSplineSet
EndChar

StartChar: dotlessi
Encoding: 305 305 80
Width: 312
Flags: HMW
HStem: -45 48<163 176.5> 240 20G<96 98.5>
VStem: 15 82<118.5 165.5>
LayerCount: 2
Fore
SplineSet
20 224 m 1,0,1
 20 233 20 233 29 236 c 0,2,3
 89 260 89 260 96.5 260 c 0,4,5
 104 260 104 260 104 251 c 1,6,7
 97 210 97 210 97 170 c 0,8,9
 97 93 97 93 123 48 c 128,-1,10
 149 3 149 3 191 3 c 0,11,12
 257 3 257 3 335 110 c 1,13,-1
 342 98 l 1,14,15
 297 28 297 28 245 -8.5 c 128,-1,16
 193 -45 193 -45 140.5 -45 c 0,17,18
 88 -45 88 -45 51.5 7.5 c 128,-1,19
 15 60 15 60 15 155 c 0,20,21
 15 182 15 182 20 224 c 1,0,1
EndSplineSet
EndChar

StartChar: oacute
Encoding: 243 243 82
Width: 384
Flags: HMW
HStem: -40 57<134 144> 239 48<208 208.5 179.5 224> 338 121<56 154.5>
VStem: 1 74<94.5 133.5> 133 55<187 204.5 170 229> 133 80 253 20<126.5 174>
LayerCount: 2
Fore
SplineSet
240 71 m 1,0,1
 253 100 253 100 253 144 c 128,-1,2
 253 188 253 188 241.5 213.5 c 128,-1,3
 230 239 230 239 215 239 c 0,4,5
 204 239 204 239 196 225 c 128,-1,6
 188 211 188 211 188 185.5 c 128,-1,7
 188 160 188 160 202 127 c 128,-1,8
 216 94 216 94 240 71 c 1,0,1
75 122 m 0,9,10
 75 78 75 78 98.5 47.5 c 128,-1,11
 122 17 122 17 160 17 c 128,-1,12
 198 17 198 17 222 44 c 1,13,14
 183 71 183 71 158 120 c 128,-1,15
 133 169 133 169 133 226 c 0,16,17
 133 232 133 232 135 242 c 1,18,19
 75 200 75 200 75 122 c 0,9,10
122 -40 m 0,20,21
 64 -40 64 -40 32.5 -1 c 128,-1,22
 1 38 1 38 1 98 c 128,-1,23
 1 158 1 158 39 208.5 c 128,-1,24
 77 259 77 259 143 262 c 1,25,26
 159 287 159 287 190.5 287 c 128,-1,27
 222 287 222 287 247.5 250.5 c 128,-1,28
 273 214 273 214 273 156 c 128,-1,29
 273 98 273 98 256 57 c 1,30,31
 281 39 281 39 308 39 c 0,32,33
 361 39 361 39 407 110 c 1,34,-1
 415 100 l 1,35,36
 366 20 366 20 296 20 c 0,37,38
 268 20 268 20 243 32 c 1,39,40
 221 -2 221 -2 188.5 -21 c 128,-1,41
 156 -40 156 -40 122 -40 c 0,20,21
38 353 m 1,42,43
 76 357 76 357 103.5 376.5 c 128,-1,44
 131 396 131 396 131 431 c 0,45,46
 131 440 131 440 130 445 c 1,47,48
 130 459 130 459 146 459 c 128,-1,49
 162 459 162 459 187.5 446.5 c 128,-1,50
 213 434 213 434 213 420 c 0,51,52
 213 395 213 395 167.5 366.5 c 128,-1,53
 122 338 122 338 56 338 c 0,54,55
 38 338 38 338 38 353 c 1,42,43
EndSplineSet
EndChar

StartChar: egrave
Encoding: 232 232 85
Width: 314
Flags: HMW
HStem: -45 62<77 203> 167 47 279 73<138.5 155.5> 321 31<84 164> 379 121<34.5 133>
VStem: -39 70<240 252.5> -39 231<193 334.5> -24 82<447 471> 1 78<14.5 150>
LayerCount: 2
Fore
SplineSet
127 296 m 1,0,-1
 128 309 l 2,1,2
 128 321 128 321 101 321 c 128,-1,3
 74 321 74 321 52.5 305 c 128,-1,4
 31 289 31 289 31 262 c 0,5,6
 31 214 31 214 100 214 c 0,7,8
 111 214 111 214 122.5 217.5 c 128,-1,9
 134 221 134 221 146 221 c 128,-1,10
 158 221 158 221 158 213 c 0,11,12
 158 212 158 212 150 208.5 c 128,-1,13
 142 205 142 205 130.5 198 c 128,-1,14
 119 191 119 191 107 180 c 0,15,16
 79 154.333333333 79 154.333333333 79 109.166666667 c 128,-1,17
 79 64 79 64 106 40.5 c 128,-1,18
 133 17 133 17 176 17 c 128,-1,19
 219 17 219 17 264 42 c 128,-1,20
 309 67 309 67 337 110 c 1,21,-1
 344 98 l 1,22,23
 306 32 306 32 238.5 -6.5 c 128,-1,24
 171 -45 171 -45 115.5 -45 c 128,-1,25
 60 -45 60 -45 30.5 -22 c 128,-1,26
 1 1 1 1 1 37.5 c 128,-1,27
 1 74 1 74 19 105 c 128,-1,28
 37 136 37 136 50.5 149.5 c 128,-1,29
 64 163 64 163 70.5 168.5 c 128,-1,30
 77 174 77 174 77 176.5 c 128,-1,31
 77 179 77 179 76 179 c 0,32,33
 44 167 44 167 14 167 c 0,34,35
 -39 167 -39 167 -39 210 c 0,36,37
 -39 268 -39 268 27 310 c 128,-1,38
 93 352 93 352 142.5 352 c 128,-1,39
 192 352 192 352 192 328 c 0,40,41
 192 313 192 313 176 296 c 128,-1,42
 160 279 160 279 147 279 c 0,43,44
 127 279 127 279 127 296 c 1,0,-1
151 394 m 1,45,46
 151 381 151 381 133 379 c 1,47,48
 67 379 67 379 21.5 407.5 c 128,-1,49
 -24 436 -24 436 -24 461 c 0,50,51
 -24 475 -24 475 1.5 487.5 c 128,-1,52
 27 500 27 500 43 500 c 128,-1,53
 59 500 59 500 59 486 c 1,54,55
 58 481 58 481 58 472 c 0,56,57
 58 437 58 437 85.5 417.5 c 128,-1,58
 113 398 113 398 151 394 c 1,45,46
EndSplineSet
EndChar

StartChar: ograve
Encoding: 242 242 87
Width: 384
Flags: HMW
HStem: -40 57<134 144> 239 48<208 208.5 179.5 224> 338 121<78.5 177>
VStem: 1 74<94.5 133.5> 20 82<406 430> 133 55<187 204.5 170 229> 253 20<126.5 174>
LayerCount: 2
Fore
SplineSet
240 71 m 1,0,1
 253 100 253 100 253 144 c 128,-1,2
 253 188 253 188 241.5 213.5 c 128,-1,3
 230 239 230 239 215 239 c 0,4,5
 204 239 204 239 196 225 c 128,-1,6
 188 211 188 211 188 185.5 c 128,-1,7
 188 160 188 160 202 127 c 128,-1,8
 216 94 216 94 240 71 c 1,0,1
75 122 m 0,9,10
 75 78 75 78 98.5 47.5 c 128,-1,11
 122 17 122 17 160 17 c 128,-1,12
 198 17 198 17 222 44 c 1,13,14
 183 71 183 71 158 120 c 128,-1,15
 133 169 133 169 133 226 c 0,16,17
 133 232 133 232 135 242 c 1,18,19
 75 200 75 200 75 122 c 0,9,10
122 -40 m 0,20,21
 64 -40 64 -40 32.5 -1 c 128,-1,22
 1 38 1 38 1 98 c 128,-1,23
 1 158 1 158 39 208.5 c 128,-1,24
 77 259 77 259 143 262 c 1,25,26
 159 287 159 287 190.5 287 c 128,-1,27
 222 287 222 287 247.5 250.5 c 128,-1,28
 273 214 273 214 273 156 c 128,-1,29
 273 98 273 98 256 57 c 1,30,31
 281 39 281 39 308 39 c 0,32,33
 361 39 361 39 407 110 c 1,34,-1
 415 100 l 1,35,36
 366 20 366 20 296 20 c 0,37,38
 268 20 268 20 243 32 c 1,39,40
 221 -2 221 -2 188.5 -21 c 128,-1,41
 156 -40 156 -40 122 -40 c 0,20,21
195 353 m 1,42,43
 195 340 195 340 177 338 c 1,44,45
 111 338 111 338 65.5 366.5 c 128,-1,46
 20 395 20 395 20 420 c 0,47,48
 20 434 20 434 45.5 446.5 c 128,-1,49
 71 459 71 459 87 459 c 128,-1,50
 103 459 103 459 103 445 c 1,51,52
 102 440 102 440 102 431 c 0,53,54
 102 396 102 396 129.5 376.5 c 128,-1,55
 157 357 157 357 195 353 c 1,42,43
EndSplineSet
EndChar

StartChar: germandbls
Encoding: 223 223 89
Width: 463
Flags: HMW
HStem: -414 21G<133.5 136> -176 25<-116.5 -113> -176 54<-138 -113> -40 44<267.5 289.5 267.5 312> 791 30<26 63.5>
VStem: -78 63<582.5 673.5> 116 48 163 40 321 48
LayerCount: 2
Fore
SplineSet
-58 -146 m 1,0,1
 -85 -134 -85 -134 -113.5 -134 c 128,-1,2
 -142 -134 -142 -134 -142 -142.5 c 128,-1,3
 -142 -151 -142 -151 -114 -151 c 128,-1,4
 -86 -151 -86 -151 -58 -146 c 1,0,1
-19 -157 m 1,5,6
 56 -210 56 -210 119 -340 c 1,7,-1
 122 -335 l 1,8,9
 108 -241 108 -241 76 -110 c 1,10,11
 30 -139 30 -139 -19 -157 c 1,5,6
486 110 m 1,12,-1
 493 98 l 1,13,14
 451 31 451 31 392 -4.5 c 128,-1,15
 333 -40 333 -40 280.5 -40 c 0,16,17
 172.755555556 -40 172.755555556 -40 138 52 c 1,18,19
 138 57 138 57 161 85 c 128,-1,20
 184 113 184 113 191.5 113 c 128,-1,21
 199 113 199 113 200 108 c 0,22,23
 206 76 206 76 233.5 40 c 128,-1,24
 261 4 261 4 284 4 c 0,25,26
 320 4 320 4 320.5 23 c 128,-1,27
 321 42 321 42 288.5 72 c 128,-1,28
 256 102 256 102 218 131.5 c 128,-1,29
 180 161 180 161 148 200.5 c 128,-1,30
 116 240 116 240 116 273 c 0,31,32
 116 286.5 116 286.5 122 300 c 0,33,34
 163 400 163 400 163 513 c 128,-1,35
 163 626 163 626 123 708.5 c 128,-1,36
 83 791 83 791 24 791 c 0,37,38
 -15 791 -15 791 -15 696 c 128,-1,39
 -15 601 -15 601 39.5 386.5 c 128,-1,40
 94 172 94 172 148.5 -47 c 128,-1,41
 203 -266 203 -266 203 -367 c 0,42,43
 203 -374 203 -374 197.5 -375 c 128,-1,44
 192 -376 192 -376 169 -391.5 c 128,-1,45
 146 -407 146 -407 142.5 -410.5 c 128,-1,46
 139 -414 139 -414 134.5 -414 c 128,-1,47
 130 -414 130 -414 127 -406 c 0,48,49
 58 -220 58 -220 -31 -161 c 1,50,51
 -84 -176 -84 -176 -115.5 -176 c 0,52,53
 -182 -176 -182 -176 -182 -152 c 0,54,55
 -182 -141 -182 -141 -165 -131.5 c 128,-1,56
 -148 -122 -148 -122 -114.5 -122 c 128,-1,57
 -81 -122 -81 -122 -43 -142 c 1,58,59
 11 -128 11 -128 71 -92 c 1,60,61
 58 -41 58 -41 23 95.5 c 128,-1,62
 -12 232 -12 232 -28.5 301.5 c 0,63,64
 -78 510 -78 510 -78 608.5 c 128,-1,65
 -78 707 -78 707 -37.5 764 c 128,-1,66
 3 821 3 821 78 821 c 0,67,68
 142 821 142 821 173 752 c 128,-1,69
 204 683 204 683 204 564 c 128,-1,70
 204 445 204 445 164 333 c 1,71,72
 165.835497835 288.948051948 165.835497835 288.948051948 238 224 c 0,73,74
 268 197 268 197 297.5 171 c 0,75,76
 369 107.983050847 369 107.983050847 369 69.9915254237 c 128,-1,77
 369 32 369 32 334 4 c 1,78,79
 416 6 416 6 486 110 c 1,12,-1
EndSplineSet
EndChar

StartChar: question
Encoding: 63 63 90
Width: 277
Flags: HMW
HStem: -23 116<97.5 126> 485 55<-75 11> 732 57<7.5 52.5>
VStem: -133 56<624.5 625.5> 57 44<268.5 303> 57 107 105 91<620 648.5>
LayerCount: 2
Fore
SplineSet
164 35 m 128,-1,1
 164 11 164 11 148.5 -6 c 128,-1,2
 133 -23 133 -23 111.5 -23 c 0,3,4
 90 -23 90 -23 75 -6 c 128,-1,5
 60 11 60 11 60 35 c 128,-1,6
 60 59 60 59 75 76 c 128,-1,7
 90 93 90 93 111.5 93 c 0,8,9
 133 93 133 93 148.5 76 c 128,-1,0
 164 59 164 59 164 35 c 128,-1,1
150 208 m 0,10,11
 125 176 125 176 108 176 c 0,12,13
 57 176 57 176 57 256 c 0,14,15
 57 301 57 301 81 429.5 c 128,-1,16
 105 558 105 558 105 614 c 0,17,18
 105 732 105 732 20 732 c 0,19,20
 -30 732 -30 732 -53.5 709 c 128,-1,21
 -77 686 -77 686 -77 648.5 c 0,22,23
 -77 611 -77 611 -52 576 c 128,-1,24
 -27 541 -27 541 5 540 c 0,25,26
 18 540 18 540 18 531 c 0,27,28
 17 518 17 518 -2.5 501.5 c 128,-1,29
 -22 485 -22 485 -45 485 c 0,30,31
 -88 485 -88 485 -110.5 511.5 c 128,-1,32
 -133 538 -133 538 -133 581 c 0,33,34
 -133 655 -133 655 -75.5 722 c 128,-1,35
 -18 789 -18 789 72 789 c 0,36,37
 196 789 196 789 196 678 c 0,38,39
 196 618 196 618 148.5 475 c 128,-1,40
 101 332 101 332 101 282 c 0,41,42
 101 232 101 232 140 218 c 1,43,44
 151 216 151 216 151 212.5 c 0,45,46
 151 209 151 209 150 208 c 0,10,11
EndSplineSet
EndChar

StartChar: questiondown
Encoding: 191 191 91
Width: 254
Flags: HMW
HStem: -381 57<131.5 176.5> -132 55<173 259> 315 116<58 86.5>
VStem: -12 91<-240.5 -212> 20 107 83 44<105 139.5> 261 56<-217.5 -216.5>
LayerCount: 2
Fore
SplineSet
20 373 m 128,-1,1
 20 397 20 397 35.5 414 c 128,-1,2
 51 431 51 431 72.5 431 c 0,3,4
 94 431 94 431 109 414 c 128,-1,5
 124 397 124 397 124 373 c 128,-1,6
 124 349 124 349 109 332 c 128,-1,7
 94 315 94 315 72.5 315 c 0,8,9
 51 315 51 315 35.5 332 c 128,-1,0
 20 349 20 349 20 373 c 128,-1,1
34 200 m 0,10,11
 59 232 59 232 76 232 c 0,12,13
 127 232 127 232 127 152 c 0,14,15
 127 107 127 107 103 -21.5 c 128,-1,16
 79 -150 79 -150 79 -206 c 0,17,18
 79 -324 79 -324 164 -324 c 0,19,20
 214 -324 214 -324 237.5 -301 c 128,-1,21
 261 -278 261 -278 261 -240.5 c 0,22,23
 261 -203 261 -203 236 -168 c 128,-1,24
 211 -133 211 -133 179 -132 c 0,25,26
 166 -132 166 -132 166 -123 c 0,27,28
 167 -110 167 -110 186.5 -93.5 c 128,-1,29
 206 -77 206 -77 229 -77 c 0,30,31
 272 -77 272 -77 294.5 -103.5 c 128,-1,32
 317 -130 317 -130 317 -173 c 0,33,34
 317 -247 317 -247 259.5 -314 c 128,-1,35
 202 -381 202 -381 112 -381 c 0,36,37
 -12 -381 -12 -381 -12 -270 c 0,38,39
 -12 -210 -12 -210 35.5 -67 c 128,-1,40
 83 76 83 76 83 126 c 0,41,42
 83 176 83 176 44 190 c 1,43,44
 33 192 33 192 33 195.5 c 0,45,46
 33 199 33 199 34 200 c 0,10,11
EndSplineSet
EndChar

StartChar: parenleft
Encoding: 40 40 92
Width: 365
Flags: HMW
HStem: -296 21G -254 21G 562 20G
VStem: 172 86
LayerCount: 2
Fore
SplineSet
355 811 m 1,0,1
 345 813 345 813 327 813 c 0,2,3
 262 813 262 813 209 776 c 128,-1,4
 156 739 156 739 124 678 c 0,5,6
 58 552.1875 58 552.1875 58 395 c 0,7,8
 58 180.970588235 58 180.970588235 164 9.5 c 0,9,10
 215 -73 215 -73 297.5 -123.5 c 128,-1,11
 380 -174 380 -174 480 -174 c 0,12,13
 514.5 -174 514.5 -174 552 -168 c 1,14,-1
 553 -168 l 2,15,16
 557 -168 557 -168 557 -178 c 0,17,18
 557 -228 557 -228 466.5 -228 c 128,-1,19
 376 -228 376 -228 303.5 -195 c 128,-1,20
 231 -162 231 -162 180 -106 c 128,-1,21
 129 -50 129 -50 93.5 25 c 0,22,23
 24 171.830985915 24 171.830985915 24 355 c 0,24,25
 24 545.219512195 24 545.219512195 109 709 c 0,26,27
 150 788 150 788 217.5 838 c 128,-1,28
 285 888 285 888 367 888 c 0,29,30
 380 888 380 888 386 886 c 1,31,-1
 386 883 l 2,32,33
 386 866.8 386 866.8 362.5 824.5 c 2,34,-1
 355 811 l 1,0,1
EndSplineSet
EndChar

StartChar: parenright
Encoding: 41 41 93
Width: 365
Flags: HMW
HStem: -216 21G -174 21G 642 20G
VStem: 172 86
LayerCount: 2
Fore
SplineSet
-43 -131 m 1,0,1
 -33 -133 -33 -133 -15 -133 c 0,2,3
 50 -133 50 -133 103 -96 c 128,-1,4
 156 -59 156 -59 188 2 c 0,5,6
 254 127.8125 254 127.8125 254 285 c 0,7,8
 254 499.029411765 254 499.029411765 148 670.5 c 0,9,10
 97 753 97 753 14.5 803.5 c 128,-1,11
 -68 854 -68 854 -168 854 c 0,12,13
 -202.5 854 -202.5 854 -240 848 c 1,14,-1
 -241 848 l 2,15,16
 -245 848 -245 848 -245 858 c 0,17,18
 -245 908 -245 908 -154.5 908 c 128,-1,19
 -64 908 -64 908 8.5 875 c 128,-1,20
 81 842 81 842 132 786 c 128,-1,21
 183 730 183 730 218.5 655 c 0,22,23
 288 508.169014085 288 508.169014085 288 325 c 0,24,25
 288 134.780487805 288 134.780487805 203 -29 c 0,26,27
 162 -108 162 -108 94.5 -158 c 128,-1,28
 27 -208 27 -208 -55 -208 c 0,29,30
 -68 -208 -68 -208 -74 -206 c 1,31,-1
 -74 -203 l 2,32,33
 -74 -186.8 -74 -186.8 -50.5 -144.5 c 2,34,-1
 -43 -131 l 1,0,1
EndSplineSet
EndChar

StartChar: ampersand
Encoding: 38 38 94
Width: 593
Flags: HMW
HStem: -110 21G<423 440.5> -41 78<205.5 228.5> 790 42<197.5 207>
VStem: -16 83<168.5 205> 99 36<671 711> 253 57<682 728> 452 45<165.5 202.5>
LayerCount: 2
Fore
SplineSet
135 700 m 0,0,1
 135 617 135 617 170 509 c 1,2,3
 253 606 253 606 253 698 c 0,4,5
 253 741 253 741 234.5 765.5 c 128,-1,6
 216 790 216 790 192 790 c 128,-1,7
 168 790 168 790 151.5 766.5 c 128,-1,8
 135 743 135 743 135 700 c 0,0,1
316 45 m 1,9,10
 211 238 211 238 146 432 c 1,11,12
 67 336 67 336 67 237.5 c 128,-1,13
 67 139 67 139 120.5 88 c 128,-1,14
 174 37 174 37 254 37 c 0,15,16
 286 37 286 37 316 45 c 1,9,10
134 469 m 1,17,18
 99 582 99 582 99 658.5 c 128,-1,19
 99 735 99 735 138.5 783.5 c 128,-1,20
 178 832 178 832 227 832 c 0,21,22
 262 832 262 832 286 804.5 c 128,-1,23
 310 777 310 777 310 727 c 0,24,25
 310 629 310 629 183 474 c 1,26,27
 246 299 246 299 387 77 c 1,28,29
 452 121 452 121 452 183.5 c 128,-1,30
 452 246 452 246 381 293 c 0,31,32
 375 298 375 298 375 306 c 128,-1,33
 375 314 375 314 389.5 326.5 c 128,-1,34
 404 339 404 339 411.5 339 c 128,-1,35
 419 339 419 339 420 338 c 0,36,37
 497 278 497 278 497 192 c 128,-1,38
 497 106 497 106 415 35 c 1,39,40
 460 -33 460 -33 473.5 -48.5 c 128,-1,41
 487 -64 487 -64 487 -69 c 128,-1,42
 487 -74 487 -74 465.5 -92 c 128,-1,43
 444 -110 444 -110 431 -110 c 0,44,45
 408 -110 408 -110 347 -8 c 1,46,47
 281 -41 281 -41 195 -41 c 128,-1,48
 109 -41 109 -41 46.5 10.5 c 128,-1,49
 -16 62 -16 62 -16 163 c 0,50,51
 -16 303 -16 303 134 469 c 1,17,18
EndSplineSet
EndChar

StartChar: comma
Encoding: 44 44 95
Width: 221
Flags: HMW
HStem: -120 210
VStem: 57 139
LayerCount: 2
Fore
SplineSet
164 82 m 128,-1,1
 173 68 173 68 173 27.5 c 128,-1,2
 173 -13 173 -13 150.5 -53.5 c 128,-1,3
 128 -94 128 -94 106 -113 c 2,4,-1
 84 -132 l 1,5,6
 68 -132 68 -132 68 -125.5 c 128,-1,7
 68 -119 68 -119 77 -110 c 1,8,9
 114 -56 114 -56 114 -33.5 c 128,-1,10
 114 -11 114 -11 88.5 5.5 c 128,-1,11
 63 22 63 22 63 38.5 c 128,-1,12
 63 55 63 55 87.5 75.5 c 128,-1,13
 112 96 112 96 133.5 96 c 128,-1,0
 155 96 155 96 164 82 c 128,-1,1
EndSplineSet
EndChar

StartChar: period
Encoding: 46 46 96
Width: 277
Flags: HMW
HStem: -23 116<97.5 126>
VStem: 60 104<19 51>
LayerCount: 2
Fore
SplineSet
164 35 m 128,-1,1
 164 11 164 11 148.5 -6 c 128,-1,2
 133 -23 133 -23 111.5 -23 c 0,3,4
 90 -23 90 -23 75 -6 c 128,-1,5
 60 11 60 11 60 35 c 128,-1,6
 60 59 60 59 75 76 c 128,-1,7
 90 93 90 93 111.5 93 c 0,8,9
 133 93 133 93 148.5 76 c 128,-1,0
 164 59 164 59 164 35 c 128,-1,1
EndSplineSet
EndChar

StartChar: OE
Encoding: 338 338 97
Width: 1011
Flags: HMW
HStem: -43 55<275 355.5> 408 112 430 90<859 912> 694 62<401.5 435> 899 20G<1107.5 1134>
VStem: -8 87<266.5 376> 490 50<464.5 626> 579 104<119 197>
LayerCount: 2
Fore
SplineSet
852 12 m 0,0,1
 903 12 903 12 951.5 36.5 c 128,-1,2
 1000 61 1000 61 1034 110 c 1,3,-1
 1041 98 l 1,4,5
 1005 33 1005 33 930.5 -3 c 128,-1,6
 856 -39 856 -39 781.5 -39 c 128,-1,7
 707 -39 707 -39 651.5 -7 c 128,-1,8
 596 25 596 25 582 85 c 1,9,10
 461 -43 461 -43 299 -43 c 0,11,12
 154 -43 154 -43 73 52 c 128,-1,13
 -8 147 -8 147 -8 287.5 c 128,-1,14
 -8 428 -8 428 70.5 560.5 c 128,-1,15
 149 693 149 693 296 770 c 1,16,-1
 298 770 l 2,17,18
 302 770 302 770 302 761 c 128,-1,19
 302 752 302 752 295 748 c 0,20,21
 196 699 196 699 137.5 587 c 128,-1,22
 79 475 79 475 79 351 c 0,23,24
 79 216.885714286 79 216.885714286 150 118.5 c 0,25,26
 185 70 185 70 245 41 c 128,-1,27
 305 12 305 12 381 12 c 0,28,29
 500 12 500 12 579 119 c 1,30,31
 579 205.865671642 579 205.865671642 649.5 269 c 0,32,33
 683 299 683 299 716 321 c 128,-1,34
 749 343 749 343 792.5 370 c 0,35,36
 865 415 865 415 865 426 c 0,37,38
 865 430 865 430 856 430 c 128,-1,39
 847 430 847 430 763 419 c 128,-1,40
 679 408 679 408 647 408 c 0,41,42
 490 408 490 408 490 504 c 0,43,44
 490 571 490 571 555 641 c 1,45,46
 492 694 492 694 404 694 c 0,47,48
 262 694 262 694 214 519 c 0,49,50
 212 510 212 510 204 510 c 0,51,52
 198 510 198 510 198 521 c 0,53,54
 198 564 198 564 235 618.5 c 128,-1,55
 272 673 272 673 339 714.5 c 128,-1,56
 406 756 406 756 489.5 756 c 128,-1,57
 573 756 573 756 636 710 c 1,58,59
 716 767 716 767 831.5 818.5 c 128,-1,60
 947 870 947 870 1025 894.5 c 128,-1,61
 1103 919 1103 919 1121.5 919 c 128,-1,62
 1140 919 1140 919 1155 906.5 c 128,-1,63
 1170 894 1170 894 1170 878 c 0,64,65
 1170 850 1170 850 1132.5 828 c 128,-1,66
 1095 806 1095 806 1057.5 798 c 2,67,-1
 1020 790 l 1,68,69
 1010 790 1010 790 1010 797 c 128,-1,70
 1010 804 1010 804 1021 815 c 128,-1,71
 1032 826 1032 826 1032 828 c 128,-1,72
 1032 830 1032 830 1022 830 c 128,-1,73
 1012 830 1012 830 935.5 805 c 128,-1,74
 859 780 859 780 769.5 743.5 c 128,-1,75
 680 707 680 707 610 657.5 c 128,-1,76
 540 608 540 608 540 567 c 0,77,78
 540 509 540 509 659 509 c 0,79,80
 709 509 709 509 788.5 514.5 c 128,-1,81
 868 520 868 520 898 520 c 0,82,83
 951 520 951 520 951 480 c 0,84,85
 951 464 951 464 927.5 443 c 128,-1,86
 904 422 904 422 855.5 390.5 c 128,-1,87
 807 359 807 359 773.5 334.5 c 128,-1,88
 740 310 740 310 711.5 267 c 128,-1,89
 683 224 683 224 683 174 c 0,90,91
 683 12 683 12 852 12 c 0,0,1
EndSplineSet
EndChar

StartChar: AE
Encoding: 198 198 98
Width: 1001
Flags: HMW
HStem: -40 52<309 318> -39 21G<718 817> 408 112 430 90<849 902> 746 44<413.5 529> 899 20G<1099 1124>
VStem: 3 108<203.5 316> 480 50<464.5 626> 569 104<118 128.5>
LayerCount: 2
Fore
SplineSet
309 12 m 1,0,1
 358 12 358 12 420.5 53 c 128,-1,2
 483 94 483 94 522 134 c 128,-1,3
 561 174 561 174 598 219 c 1,4,5
 622 258 622 258 666 292 c 128,-1,6
 710 326 710 326 767 361 c 128,-1,7
 824 396 824 396 849 416 c 0,8,9
 855 422 855 422 855 426 c 128,-1,10
 855 430 855 430 846 430 c 128,-1,11
 837 430 837 430 753 419 c 128,-1,12
 669 408 669 408 637 408 c 0,13,14
 480 408 480 408 480 503.5 c 128,-1,15
 480 599 480 599 607 696 c 1,16,17
 579 746 579 746 495.5 746 c 128,-1,18
 412 746 412 746 336 702 c 128,-1,19
 260 658 260 658 212 588.5 c 128,-1,20
 164 519 164 519 137.5 437 c 128,-1,21
 111 355 111 355 111 274 c 0,22,23
 111 162 111 162 161.5 88 c 128,-1,24
 212 14 212 14 309 12 c 1,0,1
842 12 m 0,25,26
 893 12 893 12 941.5 36.5 c 128,-1,27
 990 61 990 61 1024 110 c 1,28,-1
 1031 98 l 1,29,30
 995 33 995 33 920.5 -3 c 128,-1,31
 846 -39 846 -39 766 -39 c 128,-1,32
 686 -39 686 -39 627.5 2 c 128,-1,33
 569 43 569 43 569 119 c 0,34,35
 569 146 569 146 577 173 c 1,36,37
 528.526315789 111.881006865 528.526315789 111.881006865 467.263157895 59.9405034325 c 0,38,39
 349.384615385 -40 349.384615385 -40 235.692307692 -40 c 128,-1,40
 122 -40 122 -40 62.5 24 c 128,-1,41
 3 88 3 88 3 193 c 0,42,43
 3 267 3 267 31 349.5 c 128,-1,44
 59 432 59 432 111.5 509.5 c 128,-1,45
 164 587 164 587 233 650.5 c 128,-1,46
 302 714 302 714 392.5 752 c 128,-1,47
 483 790 483 790 570.5 790 c 128,-1,48
 658 790 658 790 688 750 c 1,49,50
 767 797 767 797 867 838.5 c 128,-1,51
 967 880 967 880 1031.5 899.5 c 128,-1,52
 1096 919 1096 919 1113 919 c 128,-1,53
 1130 919 1130 919 1145 906.5 c 128,-1,54
 1160 894 1160 894 1160 878 c 0,55,56
 1160 850 1160 850 1122.5 828 c 128,-1,57
 1085 806 1085 806 1047.5 798 c 2,58,-1
 1010 790 l 1,59,60
 1000 790 1000 790 1000 797 c 128,-1,61
 1000 804 1000 804 1011 815 c 128,-1,62
 1022 826 1022 826 1022 828 c 128,-1,63
 1022 830 1022 830 1012 830 c 128,-1,64
 1002 830 1002 830 925.5 805 c 128,-1,65
 849 780 849 780 759.5 743.5 c 128,-1,66
 670 707 670 707 600 657.5 c 128,-1,67
 530 608 530 608 530 567 c 0,68,69
 530 509 530 509 649 509 c 0,70,71
 699 509 699 509 778.5 514.5 c 128,-1,72
 858 520 858 520 888 520 c 0,73,74
 941 520 941 520 941 480 c 0,75,76
 941 464 941 464 917.5 443 c 128,-1,77
 894 422 894 422 845.5 390.5 c 128,-1,78
 797 359 797 359 763.5 334.5 c 128,-1,79
 730 310 730 310 701.5 267 c 128,-1,80
 673 224 673 224 673 174 c 0,81,82
 673 12 673 12 842 12 c 0,25,26
EndSplineSet
EndChar

StartChar: atilde
Encoding: 227 227 99
Width: 458
Flags: HMW
HStem: -26 21G<293 343> -19 41 -19 56<55.5 159> 328 61<210 216> 345 44 413 20G<290 290.5>
VStem: 0 94<90.5 91.5> 185 83<138 154 106 183> 185 113
LayerCount: 2
Fore
SplineSet
136 399 m 1,0,-1
 221 389 l 1,1,2
 250 389 250 389 290 433 c 1,3,4
 298 433 298 433 298 421 c 0,5,6
 298 397 298 397 262.5 362.5 c 128,-1,7
 227 328 227 328 186 328 c 0,8,9
 174 328 174 328 143 336.5 c 128,-1,10
 112 345 112 345 102 345 c 0,11,12
 68 345 68 345 54 310 c 1,13,14
 43 310 43 310 43 321 c 0,15,16
 43 356 43 356 74.5 377.5 c 128,-1,17
 106 399 106 399 136 399 c 1,0,-1
203 262 m 1,18,19
 206 268 206 268 257.5 268 c 128,-1,20
 309 268 309 268 309 253 c 0,21,22
 309 250 309 250 303 241 c 0,23,24
 268 193 268 193 268 141 c 128,-1,25
 268 89 268 89 292.5 55.5 c 128,-1,26
 317 22 317 22 355 22 c 0,27,28
 417 22 417 22 481 110 c 1,29,-1
 488 98 l 1,30,31
 410 -26 410 -26 316 -26 c 0,32,33
 245 -26 245 -26 207 47 c 1,34,35
 191 23 191 23 155 2 c 128,-1,36
 119 -19 119 -19 87 -19 c 0,37,38
 0 -19 0 -19 0 54 c 0,39,40
 0 111 0 111 48.5 173.5 c 128,-1,41
 97 236 97 236 144 236 c 0,42,43
 148 236 148 236 148 233 c 128,-1,44
 148 230 148 230 144 226 c 1,45,46
 123 215 123 215 108.5 180.5 c 128,-1,47
 94 146 94 146 94 110 c 0,48,49
 94 37 94 37 150 37 c 0,50,51
 166 37 166 37 180.5 45.5 c 128,-1,52
 195 54 195 54 198 70 c 1,53,54
 185 105 185 105 185 143 c 128,-1,55
 185 181 185 181 188.5 207 c 0,56,57
 195.903846154 262 195.903846154 262 203 262 c 1,18,19
EndSplineSet
EndChar

StartChar: tilde
Encoding: 732 732 100
Width: 337
Flags: HMW
HStem: 310 21G<54 54> 328 61<210 216> 345 44 413 20G<290 290.5>
LayerCount: 2
Fore
SplineSet
136 399 m 1,0,-1
 221 389 l 1,1,2
 250 389 250 389 290 433 c 1,3,4
 298 433 298 433 298 421 c 0,5,6
 298 397 298 397 262.5 362.5 c 128,-1,7
 227 328 227 328 186 328 c 0,8,9
 174 328 174 328 143 336.5 c 128,-1,10
 112 345 112 345 102 345 c 0,11,12
 68 345 68 345 54 310 c 1,13,14
 43 310 43 310 43 321 c 0,15,16
 43 356 43 356 74.5 377.5 c 128,-1,17
 106 399 106 399 136 399 c 1,0,-1
EndSplineSet
EndChar

StartChar: otilde
Encoding: 245 245 102
Width: 384
Flags: HMW
HStem: -40 57<134 144> 239 48<208 208.5 179.5 224> 332 61<163 169> 349 44 417 20G<243 243.5>
VStem: 1 74<94.5 133.5> 1 250 133 55<187 204.5 170 229> 253 20<126.5 174>
LayerCount: 2
Fore
SplineSet
240 71 m 1,0,1
 253 100 253 100 253 144 c 128,-1,2
 253 188 253 188 241.5 213.5 c 128,-1,3
 230 239 230 239 215 239 c 0,4,5
 204 239 204 239 196 225 c 128,-1,6
 188 211 188 211 188 185.5 c 128,-1,7
 188 160 188 160 202 127 c 128,-1,8
 216 94 216 94 240 71 c 1,0,1
75 122 m 0,9,10
 75 78 75 78 98.5 47.5 c 128,-1,11
 122 17 122 17 160 17 c 128,-1,12
 198 17 198 17 222 44 c 1,13,14
 183 71 183 71 158 120 c 128,-1,15
 133 169 133 169 133 226 c 0,16,17
 133 232 133 232 135 242 c 1,18,19
 75 200 75 200 75 122 c 0,9,10
122 -40 m 0,20,21
 64 -40 64 -40 32.5 -1 c 128,-1,22
 1 38 1 38 1 98 c 128,-1,23
 1 158 1 158 39 208.5 c 128,-1,24
 77 259 77 259 143 262 c 1,25,26
 159 287 159 287 190.5 287 c 128,-1,27
 222 287 222 287 247.5 250.5 c 128,-1,28
 273 214 273 214 273 156 c 128,-1,29
 273 98 273 98 256 57 c 1,30,31
 281 39 281 39 308 39 c 0,32,33
 361 39 361 39 407 110 c 1,34,-1
 415 100 l 1,35,36
 366 20 366 20 296 20 c 0,37,38
 268 20 268 20 243 32 c 1,39,40
 221 -2 221 -2 188.5 -21 c 128,-1,41
 156 -40 156 -40 122 -40 c 0,20,21
89 403 m 1,42,-1
 174 393 l 1,43,44
 203 393 203 393 243 437 c 1,45,46
 251 437 251 437 251 425 c 0,47,48
 251 401 251 401 215.5 366.5 c 128,-1,49
 180 332 180 332 139 332 c 0,50,51
 127 332 127 332 96 340.5 c 128,-1,52
 65 349 65 349 55 349 c 0,53,54
 21 349 21 349 7 314 c 1,55,56
 -4 314 -4 314 -4 325 c 0,57,58
 -4 360 -4 360 27.5 381.5 c 128,-1,59
 59 403 59 403 89 403 c 1,42,-1
EndSplineSet
EndChar

StartChar: Ntilde
Encoding: 209 209 103
Width: 743
Flags: HMW
HStem: -45 52<602 653> 784 61<231 237> 801 44 869 20G<311 311.5>
VStem: 338 87<535 626>
LayerCount: 2
Fore
SplineSet
712 7 m 1,0,-1
 734 8 l 2,1,2
 746 8 746 8 746 -2.5 c 128,-1,3
 746 -13 746 -13 704.5 -29 c 128,-1,4
 663 -45 663 -45 631 -45 c 0,5,6
 560 -45 560 -45 505 4.5 c 128,-1,7
 450 54 450 54 419.5 127 c 128,-1,8
 389 200 389 200 369.5 296.5 c 0,9,10
 338 452.384615385 338 452.384615385 338 626 c 1,11,12
 260 359 260 359 164 -26 c 1,13,14
 114 -45 114 -45 103 -45 c 128,-1,15
 92 -45 92 -45 92 -31 c 0,16,17
 72.1565617805 425.399079048 72.1565617805 425.399079048 -7.5 610 c 0,18,19
 -39 683 -39 683 -78 695 c 0,20,21
 -87 698 -87 698 -87 702 c 0,22,23
 -87 708 -87 708 -43 722.5 c 128,-1,24
 1 737 1 737 14 737 c 1,25,26
 86 705 86 705 116 560.5 c 128,-1,27
 146 416 146 416 166 86 c 0,28,29
 166 82 166 82 169 82 c 1,30,-1
 171 83 l 1,31,-1
 319 652 l 1,32,33
 334 652 334 652 367.5 674 c 128,-1,34
 401 696 401 696 413 696 c 128,-1,35
 425 696 425 696 425 687 c 0,36,37
 425 433.285714286 425 433.285714286 485.5 234.5 c 0,38,39
 517 131 517 131 575 69 c 128,-1,40
 633 7 633 7 712 7 c 1,0,-1
157 855 m 1,41,-1
 242 845 l 1,42,43
 271 845 271 845 311 889 c 1,44,45
 319 889 319 889 319 877 c 0,46,47
 319 853 319 853 283.5 818.5 c 128,-1,48
 248 784 248 784 207 784 c 0,49,50
 195 784 195 784 164 792.5 c 128,-1,51
 133 801 133 801 123 801 c 0,52,53
 89 801 89 801 75 766 c 1,54,55
 64 766 64 766 64 777 c 0,56,57
 64 812 64 812 95.5 833.5 c 128,-1,58
 127 855 127 855 157 855 c 1,41,-1
EndSplineSet
EndChar

StartChar: exclam
Encoding: 33 33 104
Width: 205
Flags: HMW
HStem: -23 116<74.5 103> 830 20G<78 79.5>
VStem: -9 69<748 773> 37 104<19 51> 57 54<188 214.5>
LayerCount: 2
Fore
SplineSet
111 188 m 1,0,1
 83 164 83 164 70 164 c 128,-1,2
 57 164 57 164 57 172 c 0,3,4
 57 211 57 211 24 439.5 c 128,-1,5
 -9 668 -9 668 -9 711 c 128,-1,6
 -9 754 -9 754 0 775.5 c 128,-1,7
 9 797 9 797 21.5 810 c 0,8,9
 46.5 836 46.5 836 78 850 c 1,10,11
 83 850 83 850 83 846 c 128,-1,12
 83 842 83 842 79 838 c 0,13,14
 60 819 60 819 60 785 c 128,-1,15
 60 751 60 751 85.5 496 c 128,-1,16
 111 241 111 241 111 188 c 1,0,1
141 35 m 128,-1,18
 141 11 141 11 125.5 -6 c 128,-1,19
 110 -23 110 -23 88.5 -23 c 128,-1,20
 67 -23 67 -23 52 -6 c 128,-1,21
 37 11 37 11 37 35 c 128,-1,22
 37 59 37 59 52 76 c 128,-1,23
 67 93 67 93 88.5 93 c 128,-1,24
 110 93 110 93 125.5 76 c 128,-1,17
 141 59 141 59 141 35 c 128,-1,18
EndSplineSet
EndChar

StartChar: quotesingle
Encoding: 39 39 105
Width: 237
Flags: HMW
HStem: 333 21G<64.5 99.5> 537 20G<67 67>
LayerCount: 2
Fore
SplineSet
119 343 m 1,0,1
 108 333 108 333 91 333 c 0,2,3
 53 333 53 333 28.5 388.5 c 128,-1,4
 4 444 4 444 4 519 c 0,5,6
 4 531 4 531 20 540.5 c 128,-1,7
 36 550 36 550 51.5 553.5 c 2,8,-1
 67 557 l 1,9,10
 68 550 68 550 69.5 513 c 128,-1,11
 71 476 71 476 73.5 445.5 c 128,-1,12
 76 415 76 415 87.5 383.5 c 128,-1,13
 99 352 99 352 119 343 c 1,0,1
EndSplineSet
EndChar

StartChar: thorn
Encoding: 254 254 107
Width: 433
Flags: HMW
HStem: -418 21G<106.5 114> -53 36<230.5 250.5> -53 57<170 250.5> 227 73<197.5 217.5> 624 20G<20 28>
VStem: 112 148<106.5 128> 260 74<106.5 244>
LayerCount: 2
Fore
SplineSet
118 20 m 1,0,-1
 145 47 l 2,1,2
 147 48 147 48 150.5 48 c 128,-1,3
 154 48 154 48 154 40 c 0,4,5
 154 4 154 4 185 4 c 1,6,7
 217 6 217 6 238.5 47.5 c 128,-1,8
 260 89 260 89 260 132.5 c 128,-1,9
 260 176 260 176 243.5 201.5 c 128,-1,10
 227 227 227 227 194 227 c 0,11,12
 112 227 112 227 112 91 c 0,13,14
 112 64 112 64 118 20 c 1,0,-1
233 -17 m 0,15,16
 288 -17 288 -17 353 17 c 128,-1,17
 418 51 418 51 456 110 c 1,18,-1
 463 98 l 1,19,20
 415 24 415 24 345 -14.5 c 128,-1,21
 275 -53 275 -53 213 -53 c 128,-1,22
 151 -53 151 -53 124 -21 c 1,23,24
 131 -70 131 -70 145.5 -154.5 c 0,25,26
 177 -338.068965517 177 -338.068965517 177 -359.534482759 c 128,-1,27
 177 -381 177 -381 171 -383.5 c 128,-1,28
 165 -386 165 -386 149.5 -396 c 0,29,30
 115.4 -418 115.4 -418 110 -418 c 0,31,32
 94 -418 94 -418 92 -390 c 0,33,34
 77.696369637 -252.165016502 77.696369637 -252.165016502 20.8481848185 147.917491749 c 128,-1,35
 -36 548 -36 548 -36.5 561.5 c 128,-1,36
 -37 575 -37 575 -10.5 609.5 c 128,-1,37
 16 644 16 644 29 643.5 c 128,-1,38
 42 643 42 643 42 618 c 1,39,-1
 104 152 l 1,40,41
 111.289256198 183.58677686 111.289256198 183.58677686 132.644628099 222.29338843 c 0,42,43
 175.517241379 300 175.517241379 300 254.75862069 300 c 128,-1,44
 334 300 334 300 334 221 c 0,45,46
 334 167 334 167 298 96.5 c 128,-1,47
 262 26 262 26 218 -16 c 1,48,49
 223 -17 223 -17 233 -17 c 0,15,16
EndSplineSet
EndChar

StartChar: Aacute
Encoding: 193 193 108
Width: 832
Flags: HMW
HStem: -40 52<241.5 334> 452 42<483.5 497.5> 538 208<453.5 468.5> 746 44<413.5 544> 790 129<431 448.5 431 622>
VStem: 3 108<200.5 316> 533 126<240 424> 620 82<653 672.5>
LayerCount: 2
Fore
SplineSet
471 525 m 1,0,-1
 472 532 l 2,1,2
 472 538 472 538 466 538 c 0,3,4
 445 538 445 538 417 520 c 128,-1,5
 389 502 389 502 389 483 c 0,6,7
 389 452 389 452 434 452 c 0,8,9
 526 452 526 452 614 538.5 c 128,-1,10
 702 625 702 625 702 703 c 0,11,12
 702 790 702 790 577 790 c 0,13,14
 483 790 483 790 392.5 752 c 128,-1,15
 302 714 302 714 233 650.5 c 128,-1,16
 164 587 164 587 111.5 509.5 c 128,-1,17
 59 432 59 432 31 349.5 c 128,-1,18
 3 267 3 267 3 193 c 0,19,20
 3 88 3 88 62.5 24 c 128,-1,21
 122 -40 122 -40 242 -40 c 0,22,23
 294 -40 294 -40 344 -21.5 c 128,-1,24
 394 -3 394 -3 429.5 23 c 0,25,26
 502.212591987 76.2542927228 502.212591987 76.2542927228 534.5 120.5 c 2,27,-1
 548 139 l 1,28,-1
 560 102 l 1,29,30
 585 37 585 37 627 2 c 128,-1,31
 669 -33 669 -33 708.5 -33 c 128,-1,32
 748 -33 748 -33 782 -11.5 c 128,-1,33
 816 10 816 10 816 23 c 0,34,35
 816 28 816 28 809 28 c 128,-1,36
 802 28 802 28 792.5 24.5 c 128,-1,37
 783 21 783 21 769 21 c 0,38,39
 722 21 722 21 683 78 c 1,40,41
 666 101 666 101 647 154 c 128,-1,42
 628 207 628 207 619 266 c 1,43,-1
 619 267 l 1,44,45
 641 309 641 309 650 340 c 128,-1,46
 659 371 659 371 659 411 c 128,-1,47
 659 451 659 451 632 451 c 0,48,49
 601 451 601 451 573 421 c 0,50,51
 559 407 559 407 546 360 c 128,-1,52
 533 313 533 313 533 259 c 128,-1,53
 533 205 533 205 544 158 c 1,54,55
 483.811764706 67.7176470588 483.811764706 67.7176470588 387 28 c 0,56,57
 348 12 348 12 309 12 c 0,58,59
 212 12 212 12 161.5 85 c 128,-1,60
 111 158 111 158 111 271 c 0,61,62
 111 352 111 352 137.5 434.5 c 128,-1,63
 164 517 164 517 212 587 c 128,-1,64
 260 657 260 657 336 701.5 c 128,-1,65
 412 746 412 746 501 746 c 0,66,67
 562 746 562 746 591 718 c 128,-1,68
 620 690 620 690 620 640.5 c 128,-1,69
 620 591 620 591 581 542.5 c 128,-1,70
 542 494 542 494 491 494 c 0,71,72
 472 494 472 494 471 525 c 1,0,-1
332 813 m 1,73,74
 370 817 370 817 397.5 836.5 c 128,-1,75
 425 856 425 856 425 891 c 0,76,77
 425 900 425 900 424 905 c 1,78,79
 424 919 424 919 440 919 c 128,-1,80
 456 919 456 919 481.5 906.5 c 128,-1,81
 507 894 507 894 507 880 c 0,82,83
 507 855 507 855 461.5 826.5 c 128,-1,84
 416 798 416 798 350 798 c 0,85,86
 332 798 332 798 332 813 c 1,73,74
EndSplineSet
EndChar

StartChar: Thorn
Encoding: 222 222 109
Width: 769
Flags: HMW
HStem: -62 43<457.5 504.5> 281 60<710.5 799.5> 281 89<664.5 744> 922 20G<506 507.5>
VStem: 71 93<388.5 534.5> 397 86<786 877.5> 619 69<79 131.5> 847 72<445.5 508.5>
LayerCount: 2
Fore
SplineSet
847 430 m 0,0,1
 847 542 847 542 748 623.5 c 128,-1,2
 649 705 649 705 514 729 c 1,3,4
 532 672 532 672 575.5 544 c 128,-1,5
 619 416 619 416 637 361 c 1,6,7
 657 370 657 370 674 370 c 128,-1,8
 691 370 691 370 724 355.5 c 128,-1,9
 757 341 757 341 775 341 c 0,10,11
 809 341 809 341 828 369.5 c 128,-1,12
 847 398 847 398 847 430 c 0,0,1
597.5 14.5 m 128,-1,14
 619 48 619 48 619 90.5 c 128,-1,15
 619 133 619 133 520 391 c 128,-1,16
 421 649 421 649 403 736 c 1,17,18
 298 730 298 730 231 673.5 c 128,-1,19
 164 617 164 617 164 505 c 128,-1,20
 164 393 164 393 224 267.5 c 128,-1,21
 284 142 284 142 371.5 61.5 c 128,-1,22
 459 -19 459 -19 536 -19 c 0,23,13
 576 -19 576 -19 597.5 14.5 c 128,-1,14
399 763 m 1,24,25
 397 773 397 773 397 797 c 128,-1,26
 397 821 397 821 408 848 c 128,-1,27
 419 875 419 875 435.5 891.5 c 0,28,29
 469.333333333 925.333333333 469.333333333 925.333333333 495 937 c 2,30,-1
 506 942 l 1,31,32
 512 942 512 942 512 936.5 c 128,-1,33
 512 931 512 931 507 927 c 0,34,35
 483 903 483 903 483 869.5 c 128,-1,36
 483 836 483 836 502 771 c 1,37,38
 609 770 609 770 702.5 738.5 c 128,-1,39
 796 707 796 707 857.5 641.5 c 128,-1,40
 919 576 919 576 919 490 c 0,41,42
 919 449 919 449 879 398 c 128,-1,43
 839 347 839 347 792 314 c 128,-1,44
 745 281 745 281 726 281 c 128,-1,45
 707 281 707 281 654 305 c 1,46,47
 688 191 688 191 688 150 c 0,48,49
 688 83 688 83 649.5 33 c 128,-1,50
 611 -17 611 -17 559.5 -39.5 c 128,-1,51
 508 -62 508 -62 449 -62 c 128,-1,52
 390 -62 390 -62 328 -27.5 c 128,-1,53
 266 7 266 7 220.5 62 c 128,-1,54
 175 117 175 117 140.5 183.5 c 0,55,56
 71 317.463768116 71 317.463768116 71 446.231884058 c 128,-1,57
 71 575 71 575 163.5 657.5 c 128,-1,58
 256 740 256 740 399 763 c 1,24,25
EndSplineSet
EndChar

StartChar: exclamdown
Encoding: 161 161 110
Width: 205
Flags: HMW
HStem: -446 21G<83.5 85> 311 116<60 88.5>
VStem: 22 104<353 385> 52 54<189.5 216> 103 69<-369 -344>
LayerCount: 2
Fore
SplineSet
52 216 m 1,0,1
 52 164 52 164 77.5 -91 c 128,-1,2
 103 -346 103 -346 103 -380.5 c 128,-1,3
 103 -415 103 -415 84 -434 c 0,4,5
 80 -438 80 -438 80 -442 c 128,-1,6
 80 -446 80 -446 84.5 -445.5 c 128,-1,7
 89 -445 89 -445 94.5 -442 c 128,-1,8
 100 -439 100 -439 115 -428.5 c 128,-1,9
 130 -418 130 -418 141.5 -405.5 c 0,10,11
 172 -372.347826087 172 -372.347826087 172 -318.173913043 c 128,-1,12
 172 -264 172 -264 139 -35.5 c 128,-1,13
 106 193 106 193 106 232 c 0,14,15
 106 240 106 240 93 240 c 128,-1,16
 80 240 80 240 52 216 c 1,0,1
22 369 m 128,-1,18
 22 393 22 393 37.5 410 c 128,-1,19
 53 427 53 427 74.5 427 c 128,-1,20
 96 427 96 427 111 410 c 128,-1,21
 126 393 126 393 126 369 c 128,-1,22
 126 345 126 345 111 328 c 128,-1,23
 96 311 96 311 74.5 311 c 128,-1,24
 53 311 53 311 37.5 328 c 128,-1,17
 22 345 22 345 22 369 c 128,-1,18
EndSplineSet
EndChar

StartChar: aring
Encoding: 229 229 111
Width: 458
Flags: HMW
HStem: -26 21G<293 343> -19 41 -19 56<55.5 159> 310 34<144.5 161> 412 35<136.5 152.5>
VStem: 0 94<90.5 91.5> 86 28<378 381.5> 185 30 185 83<138 154 106 183>
LayerCount: 2
Fore
SplineSet
126 357.5 m 128,-1,1
 138 344 138 344 155 344 c 0,2,3
 186 344 186 344 186 372 c 0,4,5
 186 388 186 388 172.5 400 c 128,-1,6
 159 412 159 412 135 412 c 0,7,8
 114 412 114 412 114 388 c 0,9,0
 114 371 114 371 126 357.5 c 128,-1,1
106.5 420 m 128,-1,11
 127 447 127 447 156.5 447 c 128,-1,12
 186 447 186 447 200.5 432 c 128,-1,13
 215 417 215 417 215 390 c 128,-1,14
 215 363 215 363 193 336.5 c 128,-1,15
 171 310 171 310 141.5 310 c 128,-1,16
 112 310 112 310 99 324.5 c 128,-1,17
 86 339 86 339 86 366 c 128,-1,10
 86 393 86 393 106.5 420 c 128,-1,11
203 262 m 1,18,19
 206 268 206 268 257.5 268 c 128,-1,20
 309 268 309 268 309 253 c 0,21,22
 309 250 309 250 303 241 c 0,23,24
 268 193 268 193 268 141 c 128,-1,25
 268 89 268 89 292.5 55.5 c 128,-1,26
 317 22 317 22 355 22 c 0,27,28
 417 22 417 22 481 110 c 1,29,-1
 488 98 l 1,30,31
 410 -26 410 -26 316 -26 c 0,32,33
 245 -26 245 -26 207 47 c 1,34,35
 191 23 191 23 155 2 c 128,-1,36
 119 -19 119 -19 87 -19 c 0,37,38
 0 -19 0 -19 0 54 c 0,39,40
 0 111 0 111 48.5 173.5 c 128,-1,41
 97 236 97 236 144 236 c 0,42,43
 148 236 148 236 148 233 c 128,-1,44
 148 230 148 230 144 226 c 1,45,46
 123 215 123 215 108.5 180.5 c 128,-1,47
 94 146 94 146 94 110 c 0,48,49
 94 37 94 37 150 37 c 0,50,51
 166 37 166 37 180.5 45.5 c 128,-1,52
 195 54 195 54 198 70 c 1,53,54
 185 105 185 105 185 143 c 128,-1,55
 185 181 185 181 188.5 207 c 0,56,57
 195.903846154 262 195.903846154 262 203 262 c 1,18,19
EndSplineSet
EndChar

StartChar: ring
Encoding: 730 730 112
Width: 287
Flags: HMW
HStem: 310 34<144.5 161> 412 35<136.5 152.5>
VStem: 86 28<378 381.5> 186 29<374.5 381.5>
LayerCount: 2
Fore
SplineSet
126 357.5 m 128,-1,1
 138 344 138 344 155 344 c 0,2,3
 186 344 186 344 186 372 c 0,4,5
 186 388 186 388 172.5 400 c 128,-1,6
 159 412 159 412 135 412 c 0,7,8
 114 412 114 412 114 388 c 0,9,0
 114 371 114 371 126 357.5 c 128,-1,1
106.5 420 m 128,-1,11
 127 447 127 447 156.5 447 c 128,-1,12
 186 447 186 447 200.5 432 c 128,-1,13
 215 417 215 417 215 390 c 128,-1,14
 215 363 215 363 193 336.5 c 128,-1,15
 171 310 171 310 141.5 310 c 128,-1,16
 112 310 112 310 99 324.5 c 128,-1,17
 86 339 86 339 86 366 c 128,-1,10
 86 393 86 393 106.5 420 c 128,-1,11
EndSplineSet
EndChar

StartChar: Egrave
Encoding: 200 200 115
Width: 450
Flags: HMW
HStem: -39 51<235.5 266> 408 112 430 90<298 351> 830 89<448 573> 866 121<196.5 295>
VStem: -71 50<540.5 621> 18 104<118 197> 138 82<934 958>
LayerCount: 2
Fore
SplineSet
291 12 m 0,0,1
 342 12 342 12 390.5 36.5 c 128,-1,2
 439 61 439 61 473 110 c 1,3,-1
 480 98 l 1,4,5
 444 33 444 33 369.5 -3 c 128,-1,6
 295 -39 295 -39 215 -39 c 128,-1,7
 135 -39 135 -39 76.5 2 c 128,-1,8
 18 43 18 43 18 119 c 0,9,10
 18 205.865671642 18 205.865671642 88.5 269 c 0,11,12
 122 299 122 299 155 321 c 128,-1,13
 188 343 188 343 231.5 370 c 0,14,15
 304 415 304 415 304 426 c 0,16,17
 304 430 304 430 295 430 c 128,-1,18
 286 430 286 430 202 419 c 128,-1,19
 118 408 118 408 86 408 c 0,20,21
 -71 408 -71 408 -71 504 c 0,22,23
 -71 570 -71 570 -9.5 636.5 c 128,-1,24
 52 703 52 703 139.5 752 c 128,-1,25
 227 801 227 801 320 840 c 128,-1,26
 413 879 413 879 479 899 c 128,-1,27
 545 919 545 919 562 919 c 128,-1,28
 579 919 579 919 594 906.5 c 128,-1,29
 609 894 609 894 609 878 c 0,30,31
 609 850 609 850 571.5 828 c 128,-1,32
 534 806 534 806 496.5 798 c 2,33,-1
 459 790 l 1,34,35
 449 790 449 790 449 797 c 128,-1,36
 449 804 449 804 460 815 c 128,-1,37
 471 826 471 826 471 828 c 128,-1,38
 471 830 471 830 461 830 c 128,-1,39
 451 830 451 830 374.5 805 c 128,-1,40
 298 780 298 780 208.5 743.5 c 128,-1,41
 119 707 119 707 49 657.5 c 128,-1,42
 -21 608 -21 608 -21 567 c 0,43,44
 -21 509 -21 509 98 509 c 0,45,46
 148 509 148 509 227.5 514.5 c 128,-1,47
 307 520 307 520 337 520 c 0,48,49
 390 520 390 520 390 480 c 0,50,51
 390 464 390 464 366.5 443 c 128,-1,52
 343 422 343 422 294.5 390.5 c 128,-1,53
 246 359 246 359 212.5 334.5 c 128,-1,54
 179 310 179 310 150.5 267 c 128,-1,55
 122 224 122 224 122 174 c 0,56,57
 122 12 122 12 291 12 c 0,0,1
313 881 m 1,58,59
 313 868 313 868 295 866 c 1,60,61
 229 866 229 866 183.5 894.5 c 128,-1,62
 138 923 138 923 138 948 c 0,63,64
 138 962 138 962 163.5 974.5 c 128,-1,65
 189 987 189 987 205 987 c 128,-1,66
 221 987 221 987 221 973 c 1,67,68
 220 968 220 968 220 959 c 0,69,70
 220 924 220 924 247.5 904.5 c 128,-1,71
 275 885 275 885 313 881 c 1,58,59
EndSplineSet
EndChar

StartChar: Idieresis
Encoding: 207 207 117
Width: 451
Flags: HMW
HStem: -42 21G<223 227> 129 81 734 54<33 90.5> 822 116<-3.5 25 160.5 189>
VStem: -96 63<518.5 561> -41 104<864 896> 123 104<864 896> 166 90
LayerCount: 2
Fore
SplineSet
36 734 m 1,0,1
 -33 734 -33 734 -33 589 c 0,2,3
 -33 480 -33 480 20 382.5 c 128,-1,4
 73 285 73 285 166 240 c 1,5,6
 153.326042707 495.783501741 153.326042707 495.783501741 134.423408028 587.378292962 c 0,7,8
 103.345160639 732.919194501 103.345160639 732.919194501 36 734 c 1,0,1
453 230 m 128,-1,10
 453 221.157894737 453 221.157894737 427 198.578947368 c 128,-1,11
 401 176 401 176 356.5 154 c 128,-1,12
 312 132 312 132 265 129 c 1,13,14
 275 60 275 60 292 33 c 128,-1,15
 309 6 309 6 309 2 c 128,-1,16
 309 -2 309 -2 302.5 -6.5 c 128,-1,17
 296 -11 296 -11 277 -20 c 0,18,19
 230.555555556 -42 230.555555556 -42 226 -42 c 0,20,21
 214 -42 214 -42 198 -10 c 128,-1,22
 182 22 182 22 172 140 c 1,23,24
 62 172 62 172 -17 271 c 128,-1,25
 -96 370 -96 370 -96 498 c 0,26,27
 -96 603.913043478 -96 603.913043478 -51 690 c 0,28,29
 -28 734 -28 734 13.5 761 c 128,-1,30
 55 788 55 788 109 788 c 0,31,32
 167.881578947 788 167.881578947 788 196.5 713 c 0,33,34
 226.234871407 635.074130106 226.234871407 635.074130106 233.617435703 554.537065053 c 128,-1,35
 241 474 241 474 244 428 c 128,-1,36
 247 382 247 382 250 315.5 c 128,-1,37
 253 249 253 249 256 213 c 1,38,39
 277 210 277 210 318.5 210 c 128,-1,40
 360 210 360 210 386 215 c 128,-1,41
 412 220 412 220 427.5 229.5 c 128,-1,42
 443 239 443 239 446 239 c 0,43,9
 453 239 453 239 453 230 c 128,-1,10
227 880 m 128,-1,45
 227 856 227 856 211.5 839 c 128,-1,46
 196 822 196 822 174.5 822 c 128,-1,47
 153 822 153 822 138 839 c 128,-1,48
 123 856 123 856 123 880 c 128,-1,49
 123 904 123 904 138 921 c 128,-1,50
 153 938 153 938 174.5 938 c 128,-1,51
 196 938 196 938 211.5 921 c 128,-1,44
 227 904 227 904 227 880 c 128,-1,45
63 880 m 128,-1,53
 63 856 63 856 47.5 839 c 128,-1,54
 32 822 32 822 10.5 822 c 128,-1,55
 -11 822 -11 822 -26 839 c 128,-1,56
 -41 856 -41 856 -41 880 c 128,-1,57
 -41 904 -41 904 -26 921 c 128,-1,58
 -11 938 -11 938 10.5 938 c 128,-1,59
 32 938 32 938 47.5 921 c 128,-1,52
 63 904 63 904 63 880 c 128,-1,53
EndSplineSet
EndChar

StartChar: Ograve
Encoding: 210 210 120
Width: 709
Flags: HMW
HStem: -43 55<275 432.5> 694 62<401.5 491> 818 121<306.5 405>
VStem: -8 87<266.5 376> 248 82<886 910> 658 79<356.5 459.5>
LayerCount: 2
Fore
SplineSet
295 748 m 0,0,1
 196 699 196 699 137.5 587 c 128,-1,2
 79 475 79 475 79 351 c 0,3,4
 79 216.885714286 79 216.885714286 150 118.5 c 0,5,6
 185 70 185 70 245 41 c 128,-1,7
 305 12 305 12 385.5 12 c 128,-1,8
 466 12 466 12 531 67 c 128,-1,9
 596 122 596 122 627 204.5 c 128,-1,10
 658 287 658 287 658 379 c 0,11,12
 658 510 658 510 592.5 602 c 128,-1,13
 527 694 527 694 404 694 c 0,14,15
 262 694 262 694 214 519 c 0,16,17
 212 510 212 510 204 510 c 0,18,19
 198 510 198 510 198 521 c 0,20,21
 198 564 198 564 235 618.5 c 128,-1,22
 272 673 272 673 339 714.5 c 128,-1,23
 406 756 406 756 479 756 c 0,24,25
 607 756 607 756 672 675.5 c 128,-1,26
 737 595 737 595 737 471 c 0,27,28
 737 384 737 384 705.5 294 c 128,-1,29
 674 204 674 204 619 128.5 c 128,-1,30
 564 53 564 53 479.5 5 c 128,-1,31
 395 -43 395 -43 299 -43 c 0,32,33
 154 -43 154 -43 73 52 c 128,-1,34
 -8 147 -8 147 -8 287.5 c 128,-1,35
 -8 428 -8 428 70.5 560.5 c 128,-1,36
 149 693 149 693 296 770 c 1,37,-1
 298 770 l 2,38,39
 302 770 302 770 302 761 c 128,-1,40
 302 752 302 752 295 748 c 0,0,1
423 833 m 1,41,42
 423 820 423 820 405 818 c 1,43,44
 339 818 339 818 293.5 846.5 c 128,-1,45
 248 875 248 875 248 900 c 0,46,47
 248 914 248 914 273.5 926.5 c 128,-1,48
 299 939 299 939 315 939 c 128,-1,49
 331 939 331 939 331 925 c 1,50,51
 330 920 330 920 330 911 c 0,52,53
 330 876 330 876 357.5 856.5 c 128,-1,54
 385 837 385 837 423 833 c 1,41,42
EndSplineSet
EndChar

StartChar: Uacute
Encoding: 218 218 121
Width: 780
Flags: HMW
HStem: -43 58<658.5 746> -29 61<198.5 344> 722 51<-64 87.5> 744 29 744 121<232 330.5>
VStem: 307 82<812 836 812 839.5> 422 112<449 462.5 381 524>
LayerCount: 2
Fore
SplineSet
534 396 m 1,0,-1
 532 337 l 1,1,2
 532 306 532 306 570 228.5 c 128,-1,3
 608 151 608 151 660 83 c 128,-1,4
 712 15 712 15 744 15 c 0,5,6
 745 15 745 15 757 17 c 0,7,8
 763 17 763 17 763 9 c 0,9,10
 763 -3 763 -3 728 -23 c 128,-1,11
 693 -43 693 -43 675 -43 c 0,12,13
 645 -43 645 -43 591.5 11.5 c 128,-1,14
 538 66 538 66 500 157 c 1,15,16
 412 -29 412 -29 289 -29 c 0,17,18
 227 -29 227 -29 180 3.5 c 128,-1,19
 133 36 133 36 106 88.5 c 128,-1,20
 79 141 79 141 60 208.5 c 128,-1,21
 41 276 41 276 33 346.5 c 128,-1,22
 25 417 25 417 16 484.5 c 2,23,-1
 0 604.5 l 2,24,25
 -15.6666666667 722 -15.6666666667 722 -61 722 c 0,26,27
 -71 722 -71 722 -71 728 c 128,-1,28
 -71 734 -71 734 -57.5 742.5 c 128,-1,29
 -44 751 -44 751 -13.5 762 c 128,-1,30
 17 773 17 773 32 773 c 0,31,32
 57 773 57 773 73.5 718 c 128,-1,33
 90 663 90 663 97.5 581 c 128,-1,34
 105 499 105 499 121 402.5 c 128,-1,35
 137 306 137 306 158.5 224 c 128,-1,36
 180 142 180 142 227.5 87 c 128,-1,37
 275 32 275 32 342 32 c 0,38,39
 389 32 389 32 429.5 75 c 128,-1,40
 470 118 470 118 485 188 c 1,41,42
 481 186 481 186 465.5 240.5 c 128,-1,43
 450 295 450 295 436 374.5 c 128,-1,44
 422 454 422 454 422 508 c 1,45,-1
 424 560 l 2,46,47
 424 566 424 566 444 575.5 c 128,-1,48
 464 585 464 585 473 585 c 0,49,50
 499 585 499 585 516.5 537.5 c 128,-1,51
 534 490 534 490 534 396 c 1,0,-1
214 759 m 1,52,53
 252 763 252 763 279.5 782.5 c 128,-1,54
 307 802 307 802 307 837 c 0,55,56
 307 846 307 846 306 851 c 1,57,58
 306 865 306 865 322 865 c 128,-1,59
 338 865 338 865 363.5 852.5 c 128,-1,60
 389 840 389 840 389 826 c 0,61,62
 389 801 389 801 343.5 772.5 c 128,-1,63
 298 744 298 744 232 744 c 0,64,65
 214 744 214 744 214 759 c 1,52,53
EndSplineSet
EndChar

StartChar: Ugrave
Encoding: 217 217 122
Width: 780
Flags: HMW
HStem: -43 58<658.5 746> -29 61<198.5 344> 722 51<-64 87.5> 742 31 742 121<233.5 332>
VStem: 175 82<810 834> 422 112<449 462.5 381 524>
LayerCount: 2
Fore
SplineSet
534 396 m 1,0,-1
 532 337 l 1,1,2
 532 306 532 306 570 228.5 c 128,-1,3
 608 151 608 151 660 83 c 128,-1,4
 712 15 712 15 744 15 c 0,5,6
 745 15 745 15 757 17 c 0,7,8
 763 17 763 17 763 9 c 0,9,10
 763 -3 763 -3 728 -23 c 128,-1,11
 693 -43 693 -43 675 -43 c 0,12,13
 645 -43 645 -43 591.5 11.5 c 128,-1,14
 538 66 538 66 500 157 c 1,15,16
 412 -29 412 -29 289 -29 c 0,17,18
 227 -29 227 -29 180 3.5 c 128,-1,19
 133 36 133 36 106 88.5 c 128,-1,20
 79 141 79 141 60 208.5 c 128,-1,21
 41 276 41 276 33 346.5 c 128,-1,22
 25 417 25 417 16 484.5 c 2,23,-1
 0 604.5 l 2,24,25
 -15.6666666667 722 -15.6666666667 722 -61 722 c 0,26,27
 -71 722 -71 722 -71 728 c 128,-1,28
 -71 734 -71 734 -57.5 742.5 c 128,-1,29
 -44 751 -44 751 -13.5 762 c 128,-1,30
 17 773 17 773 32 773 c 0,31,32
 57 773 57 773 73.5 718 c 128,-1,33
 90 663 90 663 97.5 581 c 128,-1,34
 105 499 105 499 121 402.5 c 128,-1,35
 137 306 137 306 158.5 224 c 128,-1,36
 180 142 180 142 227.5 87 c 128,-1,37
 275 32 275 32 342 32 c 0,38,39
 389 32 389 32 429.5 75 c 128,-1,40
 470 118 470 118 485 188 c 1,41,42
 481 186 481 186 465.5 240.5 c 128,-1,43
 450 295 450 295 436 374.5 c 128,-1,44
 422 454 422 454 422 508 c 1,45,-1
 424 560 l 2,46,47
 424 566 424 566 444 575.5 c 128,-1,48
 464 585 464 585 473 585 c 0,49,50
 499 585 499 585 516.5 537.5 c 128,-1,51
 534 490 534 490 534 396 c 1,0,-1
350 757 m 1,52,53
 350 744 350 744 332 742 c 1,54,55
 266 742 266 742 220.5 770.5 c 128,-1,56
 175 799 175 799 175 824 c 0,57,58
 175 838 175 838 200.5 850.5 c 128,-1,59
 226 863 226 863 242 863 c 128,-1,60
 258 863 258 863 258 849 c 1,61,62
 257 844 257 844 257 835 c 0,63,64
 257 800 257 800 284.5 780.5 c 128,-1,65
 312 761 312 761 350 757 c 1,52,53
EndSplineSet
EndChar

StartChar: Udieresis
Encoding: 220 220 125
Width: 780
Flags: HMW
HStem: -43 58<658.5 746> -29 61<198.5 344> 722 51<-64 87.5> 738 35 738 116<190.5 219 354.5 383>
VStem: 153 104<780 812> 317 104<780 812> 422 112<449 462.5 381 524>
LayerCount: 2
Fore
SplineSet
534 396 m 1,0,-1
 532 337 l 1,1,2
 532 306 532 306 570 228.5 c 128,-1,3
 608 151 608 151 660 83 c 128,-1,4
 712 15 712 15 744 15 c 0,5,6
 745 15 745 15 757 17 c 0,7,8
 763 17 763 17 763 9 c 0,9,10
 763 -3 763 -3 728 -23 c 128,-1,11
 693 -43 693 -43 675 -43 c 0,12,13
 645 -43 645 -43 591.5 11.5 c 128,-1,14
 538 66 538 66 500 157 c 1,15,16
 412 -29 412 -29 289 -29 c 0,17,18
 227 -29 227 -29 180 3.5 c 128,-1,19
 133 36 133 36 106 88.5 c 128,-1,20
 79 141 79 141 60 208.5 c 128,-1,21
 41 276 41 276 33 346.5 c 128,-1,22
 25 417 25 417 16 484.5 c 2,23,-1
 0 604.5 l 2,24,25
 -15.6666666667 722 -15.6666666667 722 -61 722 c 0,26,27
 -71 722 -71 722 -71 728 c 128,-1,28
 -71 734 -71 734 -57.5 742.5 c 128,-1,29
 -44 751 -44 751 -13.5 762 c 128,-1,30
 17 773 17 773 32 773 c 0,31,32
 57 773 57 773 73.5 718 c 128,-1,33
 90 663 90 663 97.5 581 c 128,-1,34
 105 499 105 499 121 402.5 c 128,-1,35
 137 306 137 306 158.5 224 c 128,-1,36
 180 142 180 142 227.5 87 c 128,-1,37
 275 32 275 32 342 32 c 0,38,39
 389 32 389 32 429.5 75 c 128,-1,40
 470 118 470 118 485 188 c 1,41,42
 481 186 481 186 465.5 240.5 c 128,-1,43
 450 295 450 295 436 374.5 c 128,-1,44
 422 454 422 454 422 508 c 1,45,-1
 424 560 l 2,46,47
 424 566 424 566 444 575.5 c 128,-1,48
 464 585 464 585 473 585 c 0,49,50
 499 585 499 585 516.5 537.5 c 128,-1,51
 534 490 534 490 534 396 c 1,0,-1
421 796 m 128,-1,53
 421 772 421 772 405.5 755 c 128,-1,54
 390 738 390 738 368.5 738 c 128,-1,55
 347 738 347 738 332 755 c 128,-1,56
 317 772 317 772 317 796 c 128,-1,57
 317 820 317 820 332 837 c 128,-1,58
 347 854 347 854 368.5 854 c 128,-1,59
 390 854 390 854 405.5 837 c 128,-1,52
 421 820 421 820 421 796 c 128,-1,53
257 796 m 128,-1,61
 257 772 257 772 241.5 755 c 128,-1,62
 226 738 226 738 204.5 738 c 128,-1,63
 183 738 183 738 168 755 c 128,-1,64
 153 772 153 772 153 796 c 128,-1,65
 153 820 153 820 168 837 c 128,-1,66
 183 854 183 854 204.5 854 c 128,-1,67
 226 854 226 854 241.5 837 c 128,-1,60
 257 820 257 820 257 796 c 128,-1,61
EndSplineSet
EndChar

StartChar: circumflex
Encoding: 710 710 127
Width: 458
Flags: HMW
HStem: 307 21G<61 63> 338 121<200.5 299>
LayerCount: 2
Fore
SplineSet
317 353 m 1,0,1
 317 340 317 340 299 338 c 1,2,3
 249 338 249 338 211 354 c 128,-1,4
 173 370 173 370 155 393 c 1,5,6
 153 391 153 391 141.5 377 c 0,7,8
 115.245283019 345.037735849 115.245283019 345.037735849 78 314 c 0,9,10
 70 307 70 307 62 307 c 128,-1,11
 54 307 54 307 54 313 c 1,12,13
 95.7321428571 345.946428571 95.7321428571 345.946428571 107.866071429 363.473214286 c 2,14,-1
 124.5 387.5 l 2,15,16
 129 394 129 394 135 406 c 2,17,-1
 142 420 l 1,18,19
 142 434 142 434 167.5 446.5 c 128,-1,20
 193 459 193 459 209 459 c 128,-1,21
 225 459 225 459 225 445 c 1,22,23
 224 440 224 440 224 431 c 0,24,25
 224 396 224 396 251.5 376.5 c 128,-1,26
 279 357 279 357 317 353 c 1,0,1
EndSplineSet
EndChar

StartChar: ordfeminine
Encoding: 170 170 129
Width: 458
Flags: HMW
HStem: 443 21G<293 343> 450 41 450 56<55.5 159> 717 20G<248.5 279>
VStem: 0 94<559.5 560.5> 185 83<607 623 575 652>
LayerCount: 2
Fore
SplineSet
203 731 m 1,0,1
 206 737 206 737 257.5 737 c 128,-1,2
 309 737 309 737 309 722 c 0,3,4
 309 719 309 719 303 710 c 0,5,6
 268 662 268 662 268 610 c 128,-1,7
 268 558 268 558 292.5 524.5 c 128,-1,8
 317 491 317 491 355 491 c 0,9,10
 417 491 417 491 481 579 c 1,11,-1
 488 567 l 1,12,13
 410 443 410 443 316 443 c 0,14,15
 245 443 245 443 207 516 c 1,16,17
 191 492 191 492 155 471 c 128,-1,18
 119 450 119 450 87 450 c 0,19,20
 0 450 0 450 0 523 c 0,21,22
 0 580 0 580 48.5 642.5 c 128,-1,23
 97 705 97 705 144 705 c 0,24,25
 148 705 148 705 148 702 c 128,-1,26
 148 699 148 699 144 695 c 1,27,28
 123 684 123 684 108.5 649.5 c 128,-1,29
 94 615 94 615 94 579 c 0,30,31
 94 506 94 506 150 506 c 0,32,33
 166 506 166 506 180.5 514.5 c 128,-1,34
 195 523 195 523 198 539 c 1,35,36
 185 574 185 574 185 612 c 128,-1,37
 185 650 185 650 188.5 676 c 0,38,39
 195.903846154 731 195.903846154 731 203 731 c 1,0,1
EndSplineSet
EndChar

StartChar: ordmasculine
Encoding: 186 186 130
Width: 384
Flags: HMW
HStem: 433 57<134 158> 712 48<208 208.5 179.5 224>
VStem: 1 74<567.5 606.5> 133 55<660 677.5 643 702> 253 20<598 647>
LayerCount: 2
Fore
SplineSet
239 543 m 1,0,1
 253 571 253 571 253 616 c 128,-1,2
 253 661 253 661 241.5 686.5 c 128,-1,3
 230 712 230 712 215 712 c 0,4,5
 204 712 204 712 196 698 c 128,-1,6
 188 684 188 684 188 658.5 c 128,-1,7
 188 633 188 633 202 600 c 128,-1,8
 216 567 216 567 239 543 c 1,0,1
133 699 m 0,9,10
 133 705 133 705 135 715 c 1,11,12
 75 673 75 673 75 595 c 0,13,14
 75 551 75 551 98.5 520.5 c 128,-1,15
 122 490 122 490 159 490 c 128,-1,16
 196 490 196 490 222 517 c 1,17,18
 183 543 183 543 158 592.5 c 128,-1,19
 133 642 133 642 133 699 c 0,9,10
143 735 m 1,20,21
 159 760 159 760 190.5 760 c 128,-1,22
 222 760 222 760 247.5 723.5 c 128,-1,23
 273 687 273 687 273 610.5 c 128,-1,24
 273 534 273 534 226.5 483.5 c 128,-1,25
 180 433 180 433 122 433 c 128,-1,26
 64 433 64 433 32.5 472 c 128,-1,27
 1 511 1 511 1 571 c 128,-1,28
 1 631 1 631 39 681.5 c 128,-1,29
 77 732 77 732 143 735 c 1,20,21
EndSplineSet
EndChar

StartChar: ecircumflex
Encoding: 234 234 131
Width: 314
Flags: HMW
HStem: -45 62<77 203> 167 47 279 73<138.5 155.5> 321 31<84 164> 384 121<96.5 195>
VStem: -39 70<240 252.5> -39 231<193 334.5> 1 30
LayerCount: 2
Fore
SplineSet
127 296 m 1,0,-1
 128 309 l 2,1,2
 128 321 128 321 101 321 c 128,-1,3
 74 321 74 321 52.5 305 c 128,-1,4
 31 289 31 289 31 262 c 0,5,6
 31 214 31 214 100 214 c 0,7,8
 111 214 111 214 122.5 217.5 c 128,-1,9
 134 221 134 221 146 221 c 128,-1,10
 158 221 158 221 158 213 c 0,11,12
 158 212 158 212 150 208.5 c 128,-1,13
 142 205 142 205 130.5 198 c 128,-1,14
 119 191 119 191 107 180 c 0,15,16
 79 154.333333333 79 154.333333333 79 109.166666667 c 128,-1,17
 79 64 79 64 106 40.5 c 128,-1,18
 133 17 133 17 176 17 c 128,-1,19
 219 17 219 17 264 42 c 128,-1,20
 309 67 309 67 337 110 c 1,21,-1
 344 98 l 1,22,23
 306 32 306 32 238.5 -6.5 c 128,-1,24
 171 -45 171 -45 115.5 -45 c 128,-1,25
 60 -45 60 -45 30.5 -22 c 128,-1,26
 1 1 1 1 1 37.5 c 128,-1,27
 1 74 1 74 19 105 c 128,-1,28
 37 136 37 136 50.5 149.5 c 128,-1,29
 64 163 64 163 70.5 168.5 c 128,-1,30
 77 174 77 174 77 176.5 c 128,-1,31
 77 179 77 179 76 179 c 0,32,33
 44 167 44 167 14 167 c 0,34,35
 -39 167 -39 167 -39 210 c 0,36,37
 -39 268 -39 268 27 310 c 128,-1,38
 93 352 93 352 142.5 352 c 128,-1,39
 192 352 192 352 192 328 c 0,40,41
 192 313 192 313 176 296 c 128,-1,42
 160 279 160 279 147 279 c 0,43,44
 127 279 127 279 127 296 c 1,0,-1
213 399 m 1,45,46
 213 386 213 386 195 384 c 1,47,48
 145 384 145 384 107 400 c 128,-1,49
 69 416 69 416 51 439 c 1,50,51
 49 437 49 437 37.5 423 c 0,52,53
 11.2452830189 391.037735849 11.2452830189 391.037735849 -26 360 c 0,54,55
 -34 353 -34 353 -42 353 c 128,-1,56
 -50 353 -50 353 -50 359 c 1,57,58
 -8.26785714286 391.946428571 -8.26785714286 391.946428571 3.86607142857 409.473214286 c 2,59,-1
 20.5 433.5 l 2,60,61
 25 440 25 440 31 452 c 2,62,-1
 38 466 l 1,63,64
 38 480 38 480 63.5 492.5 c 128,-1,65
 89 505 89 505 105 505 c 128,-1,66
 121 505 121 505 121 491 c 1,67,68
 120 486 120 486 120 477 c 0,69,70
 120 442 120 442 147.5 422.5 c 128,-1,71
 175 403 175 403 213 399 c 1,45,46
EndSplineSet
EndChar

StartChar: Ccedilla
Encoding: 199 199 132
Width: 612
Flags: HMW
HStem: -197 173<348 382.5> -63 39<272.5 332> 445 49<278 280.5> 445 99<240 254.5 240 280.5> 768 42<297 374>
VStem: -10 106<246 389> 180 78<478.5 516.5> 391 64<-149.5 -131.5> 421 84<669 705.5>
LayerCount: 2
Fore
SplineSet
261 534 m 1,0,-1
 258 514 l 1,1,2
 258 494 258 494 284 494 c 0,3,4
 334 494 334 494 377.5 552 c 128,-1,5
 421 610 421 610 421 672 c 0,6,7
 421 768 421 768 354 768 c 0,8,9
 279 768 279 768 218.5 703.5 c 128,-1,10
 158 639 158 639 127 542 c 128,-1,11
 96 445 96 445 96 343 c 128,-1,12
 96 241 96 241 123 161.5 c 128,-1,13
 150 82 150 82 213.5 29 c 128,-1,14
 277 -24 277 -24 360.5 -24 c 0,15,16
 522.26984127 -24 522.26984127 -24 635 110 c 1,17,-1
 642 98 l 1,18,19
 602 34 602 34 534.5 -6 c 128,-1,20
 467 -46 467 -46 387 -58 c 1,21,22
 390 -79 390 -79 422.5 -100 c 128,-1,23
 455 -121 455 -121 455 -139.5 c 128,-1,24
 455 -158 455 -158 424.5 -177.5 c 128,-1,25
 394 -197 394 -197 360.5 -197 c 128,-1,26
 327 -197 327 -197 303 -183 c 1,27,-1
 311 -176 l 1,28,29
 332 -182 332 -182 351 -182 c 128,-1,30
 370 -182 370 -182 380.5 -169.5 c 128,-1,31
 391 -157 391 -157 391 -144.5 c 128,-1,32
 391 -132 391 -132 374 -107 c 128,-1,33
 357 -82 357 -82 357 -67 c 2,34,-1
 357 -62 l 1,35,36
 347 -63 347 -63 327 -63 c 0,37,38
 157 -63 157 -63 73.5 29.5 c 128,-1,39
 -10 122 -10 122 -10 265 c 0,40,41
 -10 358 -10 358 23.5 455 c 128,-1,42
 57 552 57 552 113 630.5 c 128,-1,43
 169 709 169 709 249.5 759.5 c 128,-1,44
 330 810 330 810 416 810 c 0,45,46
 457 810 457 810 481 788.5 c 128,-1,47
 505 767 505 767 505 718.5 c 128,-1,48
 505 670 505 670 459.5 604 c 128,-1,49
 414 538 414 538 346 491.5 c 128,-1,50
 278 445 278 445 220 445 c 0,51,52
 190.625 445 190.625 445 185 460 c 0,53,54
 180 473.333333333 180 473.333333333 180 487.666666667 c 128,-1,55
 180 502 180 502 207 523 c 128,-1,56
 234 544 234 544 247.5 544 c 128,-1,57
 261 544 261 544 261 534 c 1,0,-1
EndSplineSet
EndChar

StartChar: cent
Encoding: 162 162 134
Width: 401
Flags: HMW
HStem: -25 21G<257 264> 382 131<229.5 252> 742 20G<120.5 129>
VStem: 26 80<262.5 398>
LayerCount: 2
Fore
SplineSet
226 437 m 128,-1,1
 232 446 232 446 232 455 c 128,-1,2
 232 464 232 464 231 469 c 128,-1,3
 230 474 230 474 219 482 c 128,-1,4
 208 490 208 490 188 490 c 1,5,-1
 200 415 l 1,6,7
 202 417 202 417 211 422.5 c 128,-1,0
 220 428 220 428 226 437 c 128,-1,1
106 376 m 0,8,9
 106 334 106 334 128 298 c 128,-1,10
 150 262 150 262 193 245 c 1,11,-1
 155 480 l 1,12,13
 106 450 106 450 106 376 c 0,8,9
150 733 m 2,14,-1
 186 507 l 1,15,16
 208.5 513 208.5 513 236.75 513 c 128,-1,17
 265 513 265 513 280 497.5 c 128,-1,18
 295 482 295 482 295 456.5 c 128,-1,19
 295 431 295 431 277 406.5 c 128,-1,20
 259 382 259 382 237 382 c 128,-1,21
 215 382 215 382 203 400 c 1,22,-1
 229 236 l 1,23,24
 247 233 247 233 268 233 c 0,25,26
 319 233 319 233 367.5 257.5 c 128,-1,27
 416 282 416 282 450 331 c 1,28,-1
 457 319 l 1,29,30
 426 263 426 263 366 228.5 c 128,-1,31
 306 194 306 194 237 184 c 1,32,-1
 269 -17 l 1,33,34
 269 -25 269 -25 262 -25 c 0,35,36
 253 -25 253 -25 243 -12.5 c 128,-1,37
 233 0 233 0 230 23 c 2,38,-1
 204 182 l 1,39,-1
 194 182 l 2,40,41
 121 182 121 182 73.5 213.5 c 128,-1,42
 26 245 26 245 26 302 c 128,-1,43
 26 359 26 359 61 414 c 128,-1,44
 96 469 96 469 153 495 c 1,45,-1
 111 755 l 1,46,47
 111 762 111 762 124 762 c 0,48,49
 146 762 146 762 150 733 c 2,14,-1
EndSplineSet
EndChar

StartChar: section
Encoding: 167 167 135
Width: 624
Flags: HMW
HStem: -121 49<246 379> 853 47<226 246>
VStem: 2 56<463.5 506.5> 2 119<369 730> 328 68<761 762> 462 74<28 78.5 28 100> 525 74<203.5 248.5>
LayerCount: 2
Fore
SplineSet
58 570 m 0,0,1
 58 520 58 520 87 475.5 c 128,-1,2
 116 431 116 431 160.5 399.5 c 128,-1,3
 205 368 205 368 260.5 335 c 128,-1,4
 316 302 316 302 366.5 274.5 c 128,-1,5
 417 247 417 247 460.5 210 c 128,-1,6
 504 173 504 173 522 135 c 1,7,8
 525 147 525 147 525 161 c 0,9,10
 525 209 525 209 480 254.5 c 128,-1,11
 435 300 435 300 370 338 c 128,-1,12
 305 376 305 376 239 414.5 c 128,-1,13
 173 453 173 453 123 503.5 c 128,-1,14
 73 554 73 554 66 608 c 1,15,16
 58 584 58 584 58 570 c 0,0,1
2 475 m 0,17,18
 2 572 2 572 67 660 c 1,19,20
 79 751 79 751 141.5 825.5 c 128,-1,21
 204 900 204 900 270 900 c 128,-1,22
 336 900 336 900 366 869.5 c 128,-1,23
 396 839 396 839 396 791.5 c 128,-1,24
 396 744 396 744 366.5 699 c 128,-1,25
 337 654 337 654 294 644 c 1,26,27
 289 644 289 644 287 656 c 1,28,29
 328 683 328 683 328 730.5 c 128,-1,30
 328 778 328 778 294.5 815.5 c 128,-1,31
 261 853 261 853 213 853 c 0,32,33
 185 853 185 853 162.5 823 c 128,-1,34
 140 793 140 793 130.5 763.5 c 128,-1,35
 121 734 121 734 121 721 c 0,36,37
 121 673 121 673 147.5 630.5 c 128,-1,38
 174 588 174 588 216 556.5 c 128,-1,39
 258 525 258 525 309 495 c 128,-1,40
 360 465 360 465 411 436 c 128,-1,41
 462 407 462 407 504 377 c 128,-1,42
 546 347 546 347 572.5 308 c 128,-1,43
 599 269 599 269 599 225 c 0,44,45
 599 162 599 162 533 101 c 1,46,47
 536 87.5 536 87.5 536 74 c 0,48,49
 536 6 536 6 460 -57.5 c 128,-1,50
 384 -121 384 -121 306 -121 c 0,51,52
 183 -121 183 -121 87 7 c 0,53,54
 76 22 76 22 76 32.5 c 128,-1,55
 76 43 76 43 101 63.5 c 128,-1,56
 126 84 126 84 135 84 c 128,-1,57
 144 84 144 84 145 81 c 0,58,59
 172 34 172 34 242 -19 c 128,-1,60
 312 -72 312 -72 379 -72 c 1,61,62
 462 -66 462 -66 462 10 c 0,63,64
 462 59 462 59 414.5 106 c 128,-1,65
 367 153 367 153 299.5 191.5 c 128,-1,66
 232 230 232 230 164.5 270.5 c 128,-1,67
 97 311 97 311 49.5 364 c 128,-1,68
 2 417 2 417 2 475 c 0,17,18
EndSplineSet
EndChar

StartChar: sterling
Encoding: 163 163 136
Width: 656
Flags: HMW
HStem: -125 20<310 398 310 414> -9 53 364 58<14.5 128.5> 795 41<406.5 510>
VStem: 266 86<646 648.5>
LayerCount: 2
Fore
SplineSet
373.5 757.5 m 128,-1,1
 352 720 352 720 352 664.5 c 128,-1,2
 352 609 352 609 367 552 c 1,3,4
 416 602 416 602 445.5 656.5 c 128,-1,5
 475 711 475 711 475 748 c 0,6,7
 475 795 475 795 430 795 c 0,8,0
 395 795 395 795 373.5 757.5 c 128,-1,1
447 -22 m 0,9,10
 447 -14 447 -14 446 -9 c 1,11,12
 360 -3 360 -3 283 22.5 c 128,-1,13
 206 48 206 48 170 67 c 1,14,15
 193.815789474 3.49122807018 193.815789474 3.49122807018 247.5 -49 c 0,16,17
 270 -71 270 -71 305 -88 c 128,-1,18
 340 -105 340 -105 379 -105 c 0,19,20
 447 -105 447 -105 447 -22 c 0,9,10
23 364 m 0,21,22
 0 364 0 364 0 377.5 c 128,-1,23
 0 391 0 391 18 408.5 c 128,-1,24
 36 426 36 426 49 426 c 1,25,26
 83 422 83 422 96 422 c 0,27,28
 186 422 186 422 278 479 c 1,29,30
 266 524 266 524 266 562 c 0,31,32
 266 681 266 681 340 758.5 c 128,-1,33
 414 836 414 836 489 836 c 0,34,35
 549 836 549 836 549 788 c 0,36,37
 549 743 549 743 499.5 672 c 128,-1,38
 450 601 450 601 372 532 c 1,39,40
 389 474 389 474 411 419 c 1,41,42
 528 442 528 442 639 462 c 1,43,44
 638 442 638 442 633 425.5 c 128,-1,45
 628 409 628 409 623 407 c 1,46,47
 519 389 519 389 430 371 c 1,48,49
 442 339 442 339 449 324 c 1,50,51
 473 329 473 329 631 358 c 1,52,53
 630 338 630 338 625 321.5 c 128,-1,54
 620 305 620 305 615 303 c 1,55,-1
 468 276 l 1,56,57
 525 133 525 133 525 47 c 2,58,-1
 525 46 l 1,59,60
 539 44 539 44 567 44 c 0,61,62
 677 44 677 44 762 107 c 1,63,64
 770 107 770 107 770 100 c 1,65,66
 676 -6 676 -6 516 -11 c 1,67,68
 501 -61 501 -61 465 -93 c 128,-1,69
 429 -125 429 -125 379 -125 c 128,-1,70
 329 -125 329 -125 275 -94.5 c 128,-1,71
 221 -64 221 -64 183 -23.5 c 128,-1,72
 145 17 145 17 120 54.5 c 128,-1,73
 95 92 95 92 95 108 c 0,74,75
 95 117 95 117 124.5 142.5 c 128,-1,76
 154 168 154 168 174 168 c 1,77,78
 186 163 186 163 234 141.5 c 128,-1,79
 282 120 282 120 303.5 111 c 0,80,81
 382.560846561 77.9047619048 382.560846561 77.9047619048 432 64 c 1,82,83
 413 125 413 125 360 253 c 1,84,85
 292.601769912 238.256637168 292.601769912 238.256637168 272.800884956 231.128318584 c 128,-1,86
 253 224 253 224 244.5 221 c 128,-1,87
 236 218 236 218 232.5 216.5 c 128,-1,88
 229 215 229 215 228 215 c 2,89,-1
 242 273 l 1,90,91
 257 281 257 281 340 301 c 1,92,-1
 322 346 l 1,93,94
 277.019607843 334.392156863 277.019607843 334.392156863 257.009803922 326.696078431 c 128,-1,95
 237 319 237 319 236 319 c 2,96,-1
 250 377 l 1,97,98
 260 383 260 383 304 394 c 1,99,100
 291 428 291 428 282 462 c 1,101,102
 138 364 138 364 23 364 c 0,21,22
EndSplineSet
EndChar

StartChar: Ucircumflex
Encoding: 219 219 137
Width: 780
Flags: HMW
HStem: -43 58<658.5 746> -29 61<198.5 344> 722 51<-64 87.5> 734 121<288.5 387>
VStem: 422 112<449 462.5 381 524>
LayerCount: 2
Fore
SplineSet
534 396 m 1,0,-1
 532 337 l 1,1,2
 532 306 532 306 570 228.5 c 128,-1,3
 608 151 608 151 660 83 c 128,-1,4
 712 15 712 15 744 15 c 0,5,6
 745 15 745 15 757 17 c 0,7,8
 763 17 763 17 763 9 c 0,9,10
 763 -3 763 -3 728 -23 c 128,-1,11
 693 -43 693 -43 675 -43 c 0,12,13
 645 -43 645 -43 591.5 11.5 c 128,-1,14
 538 66 538 66 500 157 c 1,15,16
 412 -29 412 -29 289 -29 c 0,17,18
 227 -29 227 -29 180 3.5 c 128,-1,19
 133 36 133 36 106 88.5 c 128,-1,20
 79 141 79 141 60 208.5 c 128,-1,21
 41 276 41 276 33 346.5 c 128,-1,22
 25 417 25 417 16 484.5 c 2,23,-1
 0 604.5 l 2,24,25
 -15.6666666667 722 -15.6666666667 722 -61 722 c 0,26,27
 -71 722 -71 722 -71 728 c 128,-1,28
 -71 734 -71 734 -57.5 742.5 c 128,-1,29
 -44 751 -44 751 -13.5 762 c 128,-1,30
 17 773 17 773 32 773 c 0,31,32
 57 773 57 773 73.5 718 c 128,-1,33
 90 663 90 663 97.5 581 c 128,-1,34
 105 499 105 499 121 402.5 c 128,-1,35
 137 306 137 306 158.5 224 c 128,-1,36
 180 142 180 142 227.5 87 c 128,-1,37
 275 32 275 32 342 32 c 0,38,39
 389 32 389 32 429.5 75 c 128,-1,40
 470 118 470 118 485 188 c 1,41,42
 481 186 481 186 465.5 240.5 c 128,-1,43
 450 295 450 295 436 374.5 c 128,-1,44
 422 454 422 454 422 508 c 1,45,-1
 424 560 l 2,46,47
 424 566 424 566 444 575.5 c 128,-1,48
 464 585 464 585 473 585 c 0,49,50
 499 585 499 585 516.5 537.5 c 128,-1,51
 534 490 534 490 534 396 c 1,0,-1
405 749 m 1,52,53
 405 736 405 736 387 734 c 1,54,55
 337 734 337 734 299 750 c 128,-1,56
 261 766 261 766 243 789 c 1,57,58
 241 787 241 787 229.5 773 c 0,59,60
 203.245283019 741.037735849 203.245283019 741.037735849 166 710 c 0,61,62
 158 703 158 703 150 703 c 128,-1,63
 142 703 142 703 142 709 c 1,64,65
 183.732142857 741.946428571 183.732142857 741.946428571 195.866071429 759.473214286 c 2,66,-1
 212.5 783.5 l 2,67,68
 217 790 217 790 223 802 c 2,69,-1
 230 816 l 1,70,71
 230 830 230 830 255.5 842.5 c 128,-1,72
 281 855 281 855 297 855 c 128,-1,73
 313 855 313 855 313 841 c 1,74,75
 312 836 312 836 312 827 c 0,76,77
 312 792 312 792 339.5 772.5 c 128,-1,78
 367 753 367 753 405 749 c 1,52,53
EndSplineSet
EndChar

StartChar: Atilde
Encoding: 195 195 139
Width: 832
Flags: HMW
HStem: -40 52<241.5 334> 452 42<483.5 497.5> 452 86<453.5 468.5 453.5 497.5> 746 44<413.5 544> 813 61<473 479> 830 44 898 20G<553 553.5>
VStem: 3 108<200.5 316> 389 82<471.5 526.5> 533 126<240 424> 620 82<653 672.5>
LayerCount: 2
Fore
SplineSet
472 532 m 2,0,-1
 471 525 l 1,1,2
 472 494 472 494 491 494 c 0,3,4
 542 494 542 494 581 542.5 c 128,-1,5
 620 591 620 591 620 640.5 c 128,-1,6
 620 690 620 690 591 718 c 128,-1,7
 562 746 562 746 501 746 c 0,8,9
 412 746 412 746 336 701.5 c 128,-1,10
 260 657 260 657 212 587 c 128,-1,11
 164 517 164 517 137.5 434.5 c 128,-1,12
 111 352 111 352 111 271 c 0,13,14
 111 158 111 158 161.5 85 c 128,-1,15
 212 12 212 12 309 12 c 0,16,17
 348 12 348 12 386.5 27 c 128,-1,18
 425 42 425 42 452.5 63.5 c 0,19,20
 508.493975904 107.277108434 508.493975904 107.277108434 533.5 143 c 2,21,-1
 544 158 l 1,22,23
 533 205 533 205 533 259 c 128,-1,24
 533 313 533 313 546 360 c 128,-1,25
 559 407 559 407 573 421 c 0,26,27
 601 451 601 451 632 451 c 0,28,29
 659 451 659 451 659 411 c 128,-1,30
 659 371 659 371 650 340 c 128,-1,31
 641 309 641 309 619 267 c 1,32,-1
 619 266 l 1,33,34
 628 207 628 207 647 154 c 128,-1,35
 666 101 666 101 683 78 c 1,36,37
 722 21 722 21 769 21 c 0,38,39
 783 21 783 21 792.5 24.5 c 128,-1,40
 802 28 802 28 809 28 c 128,-1,41
 816 28 816 28 816 23 c 0,42,43
 816 10 816 10 782 -11.5 c 128,-1,44
 748 -33 748 -33 708.5 -33 c 128,-1,45
 669 -33 669 -33 627 2 c 128,-1,46
 585 37 585 37 560 102 c 1,47,-1
 548 139 l 1,48,49
 530.5 114.5 530.5 114.5 496.25 80.25 c 128,-1,50
 462 46 462 46 429 22.5 c 128,-1,51
 396 -1 396 -1 345 -20.5 c 128,-1,52
 294 -40 294 -40 242 -40 c 0,53,54
 122 -40 122 -40 62.5 24 c 128,-1,55
 3 88 3 88 3 193 c 0,56,57
 3 267 3 267 31 349.5 c 128,-1,58
 59 432 59 432 111.5 509.5 c 128,-1,59
 164 587 164 587 233 650.5 c 128,-1,60
 302 714 302 714 392.5 752 c 128,-1,61
 483 790 483 790 577 790 c 0,62,63
 702 790 702 790 702 703 c 0,64,65
 702 625 702 625 614 538.5 c 128,-1,66
 526 452 526 452 434 452 c 0,67,68
 389 452 389 452 389 483 c 0,69,70
 389 502 389 502 417 520 c 128,-1,71
 445 538 445 538 466 538 c 0,72,73
 472 538 472 538 472 532 c 2,0,-1
399 884 m 1,74,-1
 484 874 l 1,75,76
 513 874 513 874 553 918 c 1,77,78
 561 918 561 918 561 906 c 0,79,80
 561 882 561 882 525.5 847.5 c 128,-1,81
 490 813 490 813 449 813 c 0,82,83
 437 813 437 813 406 821.5 c 128,-1,84
 375 830 375 830 365 830 c 0,85,86
 331 830 331 830 317 795 c 1,87,88
 306 795 306 795 306 806 c 0,89,90
 306 841 306 841 337.5 862.5 c 128,-1,91
 369 884 369 884 399 884 c 1,74,-1
EndSplineSet
EndChar

StartChar: Euro
Encoding: 8364 8364 141
Width: 690
Flags: HMW
HStem: -46 37<380 471> 435 49<538 540.5> 435 99<500 514.5 500 540.5> 768 39<496 599>
VStem: 440 78<468.5 506.5> 681 84<659 690.5>
LayerCount: 2
Fore
SplineSet
521 524 m 1,0,-1
 518 504 l 1,1,2
 518 484 518 484 544 484 c 0,3,4
 594 484 594 484 637.5 542 c 128,-1,5
 681 600 681 600 681 654.5 c 0,6,7
 681 768 681 768 552 768 c 0,8,9
 480 768 480 768 415 734.5 c 128,-1,10
 350 701 350 701 304 645 c 0,11,12
 208.558927311 528.810868031 208.558927311 528.810868031 186 375 c 1,13,14
 283 394 283 394 405 416 c 1,15,16
 404 396 404 396 399 379.5 c 128,-1,17
 394 363 394 363 389 361 c 1,18,19
 267 340 267 340 181 322 c 1,20,-1
 181 301 l 2,21,22
 181 281 181 281 182 271 c 1,23,24
 275 290 275 290 397 312 c 1,25,26
 396 292 396 292 391 275.5 c 128,-1,27
 386 259 386 259 381 257 c 1,28,29
 237 232 237 232 188 221 c 1,30,31
 207 117 207 117 276 54 c 128,-1,32
 345 -9 345 -9 466.5 -9 c 128,-1,33
 588 -9 588 -9 680 110 c 1,34,-1
 687 98 l 1,35,36
 642 25 642 25 571.5 -10.5 c 128,-1,37
 501 -46 501 -46 420 -46 c 0,38,39
 263 -46 263 -46 179.5 20.5 c 128,-1,40
 96 87 96 87 82 197 c 1,41,42
 41.8823529412 186.647058824 41.8823529412 186.647058824 18.9411764706 177.823529412 c 128,-1,43
 -4 169 -4 169 -6 169 c 1,44,-1
 8 227 l 1,45,46
 21 234 21 234 80 249 c 1,47,48
 80 265 80 265 84 299 c 1,49,50
 26 283 26 283 15 278 c 128,-1,51
 4 273 4 273 2 273 c 1,52,-1
 16 331 l 1,53,54
 30 338 30 338 95 354 c 1,55,56
 117 438 117 438 166.5 518.5 c 128,-1,57
 216 599 216 599 284.5 663.5 c 128,-1,58
 353 728 353 728 442.5 767.5 c 128,-1,59
 532 807 532 807 614.5 807 c 0,60,61
 765 807 765 807 765 714 c 0,62,63
 765 660 765 660 719.5 594 c 128,-1,64
 674 528 674 528 606 481.5 c 128,-1,65
 538 435 538 435 480 435 c 0,66,67
 450.625 435 450.625 435 445 450 c 0,68,69
 440 463.333333333 440 463.333333333 440 477.666666667 c 128,-1,70
 440 492 440 492 467 513 c 128,-1,71
 494 534 494 534 507.5 534 c 128,-1,72
 521 534 521 534 521 524 c 1,0,-1
EndSplineSet
EndChar

StartChar: yen
Encoding: 165 165 142
Width: 647
Flags: HMW
HStem: -250 49<552 659> 230 54<161 256> 807 20G<403.5 442.5>
VStem: 354 118<619 760>
LayerCount: 2
Fore
SplineSet
654 -201 m 1,0,-1
 677 -196 l 2,1,2
 681 -196 681 -196 681 -200 c 0,3,4
 681 -213 681 -213 648.5 -231.5 c 128,-1,5
 616 -250 616 -250 582 -250 c 0,6,7
 508 -250 508 -250 455 38 c 1,8,9
 319.751295337 9.89637305699 319.751295337 9.89637305699 272 -10 c 0,10,11
 260 -15 260 -15 259 -15 c 2,12,-1
 273 43 l 1,13,14
 294 56 294 56 447 87 c 1,15,-1
 439 136 l 1,16,17
 332.714285714 113.224489796 332.714285714 113.224489796 304.857142857 102.612244898 c 0,18,19
 269.125 89 269.125 89 267 89 c 1,20,-1
 281 147 l 1,21,22
 300 159 300 159 432 187 c 1,23,24
 427 223 427 223 422 269 c 0,25,26
 412.483870968 356.548387097 412.483870968 356.548387097 409 367 c 1,27,28
 409 365 409 365 399 351.5 c 128,-1,29
 389 338 389 338 369 317.5 c 128,-1,30
 349 297 349 297 324 277.5 c 128,-1,31
 299 258 299 258 263 244 c 128,-1,32
 227 230 227 230 191 230 c 0,33,34
 126 230 126 230 88.5 282 c 128,-1,35
 51 334 51 334 38.5 410.5 c 128,-1,36
 26 487 26 487 18.5 565 c 0,37,38
 -0.123188405797 758.68115942 -0.123188405797 758.68115942 -56 779 c 0,39,40
 -61 781 -61 781 -61 786 c 0,41,42
 -61 798 -61 798 -39 805.5 c 0,43,44
 -8.2 816 -8.2 816 15.4 816 c 128,-1,45
 39 816 39 816 46 815 c 1,46,47
 99.0687387926 717.421996414 99.0687387926 717.421996414 116 534 c 0,48,49
 122 469 122 469 133 410 c 128,-1,50
 144 351 144 351 173 317.5 c 128,-1,51
 202 284 202 284 255.5 284 c 128,-1,52
 309 284 309 284 352.5 327.5 c 128,-1,53
 396 371 396 371 401 393 c 1,54,55
 354 554 354 554 354 723 c 0,56,57
 354 775 354 775 373 801 c 128,-1,58
 392 827 392 827 420.5 827 c 128,-1,59
 449 827 449 827 460.5 771 c 128,-1,60
 472 715 472 715 472 668.5 c 0,61,62
 472 592 472 592 465.5 559.5 c 2,63,-1
 463 547 l 1,64,65
 483 346 483 346 505 201 c 1,66,67
 592 218 592 218 670 232 c 1,68,69
 669 212 669 212 664 195.5 c 128,-1,70
 659 179 659 179 654 177 c 1,71,72
 533 155 533 155 513 151 c 1,73,-1
 521 102 l 1,74,-1
 662 128 l 1,75,76
 661 108 661 108 656 91.5 c 128,-1,77
 651 75 651 75 646 73 c 1,78,79
 535 53 535 53 531 52 c 1,80,81
 583 -201 583 -201 654 -201 c 1,0,-1
EndSplineSet
EndChar

